<svg width="133" height="36" viewBox="0 0 133 36" fill="none" xmlns="http://www.w3.org/2000/svg">
<path d="M21.539 16.7522C21.539 12.9126 24.7687 11.0548 24.8929 10.9309C23.0297 8.32993 20.2968 7.95836 19.3031 7.8345C16.9429 7.58679 14.5828 9.19693 13.4648 9.19693C12.2226 9.19693 10.3593 7.8345 8.37184 7.8345C5.76324 7.8345 3.40309 9.32078 2.03668 11.6741C-0.696133 16.3806 1.29137 23.3166 3.89996 27.1562C5.26637 29.014 6.757 31.1196 8.7445 30.9957C10.732 30.8719 11.4773 29.7571 13.8375 29.7571C16.1976 29.7571 16.8187 30.9957 18.9304 30.9957C21.0422 30.9957 22.4086 29.1379 23.6507 27.28C25.1414 25.1744 25.7625 23.0689 25.7625 22.945C25.6382 22.8212 21.539 21.3349 21.539 16.7522Z" fill="white"/>
<path d="M17.6886 5.35759C18.6823 3.99517 19.4277 2.26117 19.3034 0.40332C17.8128 0.527177 15.8253 1.39417 14.8316 2.7566C13.8378 3.87131 12.9683 5.72916 13.2167 7.46315C14.8316 7.58701 16.5706 6.59616 17.6886 5.35759Z" fill="white"/>
<path d="M49.8609 30.7485H47.1281L45.6375 26.042H40.4203L39.0539 30.7485H36.4453L41.6625 14.771H44.8922L49.8609 30.7485ZM45.1406 24.0603L43.7742 19.8491C43.65 19.4775 43.4016 18.3628 42.9047 16.8766C42.7805 17.4958 42.532 18.6106 42.1594 19.8491L40.793 24.0603H45.1406Z" fill="white"/>
<path d="M63.1523 24.9272C63.1523 26.9089 62.6555 28.3952 61.5375 29.6338C60.5438 30.6246 59.4258 31.12 57.9352 31.12C56.4445 31.12 55.3266 30.6246 54.7055 29.5099V35.5789H52.0969V23.1932C52.0969 21.9547 52.0969 20.7161 51.9727 19.3537H54.2086L54.3328 21.2115C55.2023 19.8491 56.4445 19.106 58.1836 19.106C59.55 19.106 60.668 19.6014 61.5375 20.7161C62.6555 21.7069 63.1523 23.0694 63.1523 24.9272ZM60.5438 24.9272C60.5438 23.8125 60.2953 22.8217 59.7984 22.2024C59.3016 21.4592 58.5563 21.0877 57.5625 21.0877C56.9414 21.0877 56.3203 21.3354 55.8234 21.7069C55.3266 22.0785 54.9539 22.6978 54.8297 23.3171C54.7055 23.6886 54.7055 23.9364 54.7055 24.0602V26.0419C54.7055 26.9089 54.9539 27.5282 55.4508 28.1475C55.9477 28.7668 56.693 29.0145 57.4383 29.0145C58.432 29.0145 59.1773 28.6429 59.6742 27.8998C60.2953 27.1566 60.5438 26.1658 60.5438 24.9272Z" fill="white"/>
<path d="M76.4438 24.9272C76.4438 26.9089 75.9469 28.3952 74.829 29.6338C73.8352 30.6246 72.7173 31.12 71.2266 31.12C69.736 31.12 68.6181 30.6246 67.997 29.5099V35.5789H65.3884V23.1932C65.3884 21.9547 65.3884 20.7161 65.2642 19.3537H67.5001L67.6243 21.2115C68.4938 19.8491 69.736 19.106 71.4751 19.106C72.8415 19.106 73.9595 19.6014 74.829 20.7161C75.9469 21.7069 76.4438 23.0694 76.4438 24.9272ZM73.8352 24.9272C73.8352 23.8125 73.5868 22.8217 73.0899 22.2024C72.593 21.4592 71.8477 21.0877 70.854 21.0877C70.2329 21.0877 69.6118 21.3354 69.1149 21.7069C68.6181 22.0785 68.2454 22.6978 68.1212 23.3171C67.997 23.6886 67.997 23.9364 67.997 24.0602V26.0419C67.997 26.9089 68.2454 27.5282 68.7423 28.1475C69.2391 28.7668 69.9845 29.0145 70.7298 29.0145C71.7235 29.0145 72.4688 28.6429 72.9657 27.8998C73.5868 27.1566 73.8352 26.1658 73.8352 24.9272Z" fill="white"/>
<path d="M91.3499 26.2895C91.3499 27.6519 90.853 28.7666 89.9835 29.6336C88.9897 30.6245 87.4991 30.9961 85.6358 30.9961C83.8968 30.9961 82.5304 30.6245 81.5366 30.0052L82.1577 27.8996C83.2757 28.5189 84.5179 28.8905 85.8843 28.8905C86.878 28.8905 87.6233 28.6428 88.1202 28.2712C88.6171 27.7758 88.8655 27.2804 88.8655 26.5372C88.8655 25.9179 88.6171 25.2987 88.2444 24.9271C87.7475 24.4317 87.0022 24.0601 86.0085 23.6885C83.1515 22.6977 81.7851 21.0875 81.7851 19.1058C81.7851 17.7434 82.2819 16.7525 83.2757 15.8855C84.2694 15.0185 85.5116 14.647 87.2507 14.647C88.7413 14.647 89.8592 14.8947 90.853 15.3901L90.2319 17.4957C89.3624 17.0003 88.3686 16.7525 87.1264 16.7525C86.2569 16.7525 85.5116 17.0003 85.0147 17.3718C84.6421 17.7434 84.3936 18.2388 84.3936 18.8581C84.3936 19.4774 84.6421 19.9728 85.139 20.4682C85.5116 20.8398 86.3811 21.2114 87.4991 21.7068C88.8655 22.2022 89.8593 22.9454 90.6046 23.6885C90.9772 24.3078 91.3499 25.1748 91.3499 26.2895Z" fill="white"/>
<path d="M99.7967 21.2113H96.9397V26.7848C96.9397 28.1472 97.4366 28.8904 98.4303 28.8904C98.9272 28.8904 99.2999 28.8904 99.5483 28.7665L99.6725 30.7482C99.1757 30.9959 98.5546 30.9959 97.685 30.9959C96.6913 30.9959 95.8218 30.7482 95.3249 30.1289C94.7038 29.5097 94.4554 28.5188 94.4554 27.0325V21.2113H92.7163V19.2296H94.4554V17.124L96.9397 16.3809V19.2296H99.7967V21.2113Z" fill="white"/>
<path d="M112.592 24.9271C112.592 26.6611 112.095 28.1473 111.101 29.262C109.983 30.3768 108.617 30.996 106.877 30.996C105.138 30.996 103.772 30.3768 102.778 29.262C101.784 28.1473 101.288 26.7849 101.288 25.0509C101.288 23.3169 101.784 21.8306 102.902 20.7159C103.896 19.6012 105.387 18.9819 107.126 18.9819C108.865 18.9819 110.231 19.6012 111.225 20.7159C112.095 21.8306 112.592 23.1931 112.592 24.9271ZM109.859 25.0509C109.859 23.9362 109.61 23.0692 109.113 22.3261C108.617 21.4591 107.747 20.9636 106.753 20.9636C105.759 20.9636 104.89 21.4591 104.393 22.3261C103.896 23.0692 103.648 24.0601 103.648 25.0509C103.648 26.1656 103.896 27.0326 104.393 27.7758C104.89 28.6428 105.759 29.1382 106.753 29.1382C107.747 29.1382 108.492 28.6428 109.113 27.7758C109.61 27.0326 109.859 26.0418 109.859 25.0509Z" fill="white"/>
<path d="M120.914 21.4589C120.666 21.4589 120.417 21.335 120.045 21.335C119.175 21.335 118.43 21.7066 117.933 22.3259C117.56 22.9452 117.312 23.6883 117.312 24.5553V30.6243H114.703V22.6975C114.703 21.335 114.703 20.2203 114.579 19.1056H116.815L116.939 21.335H117.063C117.312 20.5919 117.809 19.9726 118.306 19.4772C118.927 19.1056 119.548 18.8579 120.169 18.8579C120.417 18.8579 120.666 18.8579 120.79 18.8579V21.4589H120.914Z" fill="white"/>
<path d="M132.342 24.4316C132.342 24.9271 132.342 25.2986 132.218 25.5463H124.517C124.517 26.6611 124.889 27.5281 125.635 28.1473C126.256 28.6428 127.125 29.0143 128.119 29.0143C129.237 29.0143 130.355 28.8905 131.224 28.5189L131.597 30.2529C130.479 30.7483 129.237 30.996 127.746 30.996C126.007 30.996 124.517 30.5006 123.523 29.3859C122.529 28.395 122.032 26.9088 122.032 25.1748C122.032 23.4408 122.529 21.9545 123.399 20.8398C124.392 19.6012 125.759 18.9819 127.498 18.9819C129.113 18.9819 130.479 19.6012 131.224 20.8398C132.094 21.8306 132.342 23.0692 132.342 24.4316ZM129.982 23.8123C129.982 23.0692 129.858 22.4499 129.485 21.8306C128.989 21.0875 128.367 20.7159 127.498 20.7159C126.628 20.7159 126.007 21.0875 125.51 21.7068C125.138 22.2022 124.889 22.9454 124.765 23.6885H129.982V23.8123Z" fill="white"/>
<path d="M44.3954 4.98572C44.3954 6.34814 44.0228 7.46285 43.1532 8.20599C42.4079 8.82527 41.2899 9.19685 39.7993 9.19685C39.054 9.19685 38.4329 9.19684 37.936 9.07299V1.39388C38.5571 1.27002 39.3024 1.27002 40.172 1.27002C41.5384 1.27002 42.5321 1.51773 43.2774 2.13702C43.8985 2.7563 44.3954 3.74715 44.3954 4.98572ZM43.029 4.98572C43.029 4.11872 42.7806 3.37558 42.2837 2.88016C41.7868 2.38473 41.0415 2.13702 40.172 2.13702C39.7993 2.13702 39.4267 2.13702 39.1782 2.26087V8.08213C39.3024 8.08213 39.6751 8.08213 40.0478 8.08213C41.0415 8.08213 41.7868 7.83442 42.2837 7.339C42.7806 6.84357 43.029 5.97657 43.029 4.98572Z" fill="white"/>
<path d="M51.3516 6.22451C51.3516 7.09151 51.1031 7.83465 50.6063 8.33008C50.1094 8.94936 49.3641 9.19707 48.4945 9.19707C47.625 9.19707 47.0039 8.94936 46.507 8.33008C46.0102 7.83465 45.7617 7.09151 45.7617 6.22451C45.7617 5.35752 46.0102 4.61438 46.507 4.11895C47.0039 3.49967 47.7492 3.25195 48.6188 3.25195C49.4883 3.25195 50.1094 3.49967 50.6063 4.11895C51.1031 4.61438 51.3516 5.35752 51.3516 6.22451ZM50.1094 6.22451C50.1094 5.72909 49.9852 5.23366 49.7367 4.86209C49.4883 4.36666 49.1156 4.24281 48.6188 4.24281C48.1219 4.24281 47.7492 4.49052 47.5008 4.86209C47.2523 5.23366 47.1281 5.72909 47.1281 6.22451C47.1281 6.71994 47.2523 7.21537 47.5008 7.58694C47.7492 8.08236 48.1219 8.20622 48.6188 8.20622C49.1156 8.20622 49.4883 7.95851 49.7367 7.46308C49.9852 7.21537 50.1094 6.71994 50.1094 6.22451Z" fill="white"/>
<path d="M60.9164 3.37598L59.1773 9.07338H58.0594L57.3141 6.59625C57.0656 5.97697 56.9414 5.35768 56.8172 4.7384C56.693 5.35768 56.5688 5.97697 56.3203 6.59625L55.575 9.07338H54.457L52.5938 3.37598H53.8359L54.457 6.10083C54.5813 6.72011 54.7055 7.33939 54.8297 7.95868C54.9539 7.46325 55.0781 6.84397 55.3266 6.10083L56.0719 3.37598H57.0656L57.8109 5.97697C58.0594 6.59625 58.1836 7.21554 58.3078 7.83482C58.432 7.21554 58.5563 6.59625 58.6805 5.97697L59.4258 3.37598H60.9164Z" fill="white"/>
<path d="M67.3758 9.07305H66.1336V5.85278C66.1336 4.86192 65.7609 4.3665 65.0156 4.3665C64.643 4.3665 64.3945 4.49036 64.1461 4.73807C63.8977 4.98578 63.7734 5.35735 63.7734 5.72892V9.07305H62.5312V4.98578C62.5312 4.49035 62.5312 3.99493 62.5312 3.37564H63.6492V4.24264C63.7734 3.99493 64.0219 3.74721 64.2703 3.4995C64.643 3.25179 65.0156 3.12793 65.3883 3.12793C65.8852 3.12793 66.382 3.25179 66.7547 3.62336C67.2516 3.99493 67.3758 4.61421 67.3758 5.48121V9.07305Z" fill="white"/>
<path d="M70.854 9.0733H69.6118V0.774902H70.854V9.0733Z" fill="white"/>
<path d="M78.3071 6.22451C78.3071 7.09151 78.0587 7.83465 77.5618 8.33008C77.0649 8.94936 76.3196 9.19707 75.4501 9.19707C74.5806 9.19707 73.9595 8.94936 73.4626 8.33008C72.9657 7.83465 72.7173 7.09151 72.7173 6.22451C72.7173 5.35752 72.9657 4.61438 73.4626 4.11895C73.9595 3.62352 74.7048 3.25195 75.5743 3.25195C76.4438 3.25195 77.0649 3.49967 77.5618 4.11895C78.0587 4.61438 78.3071 5.35752 78.3071 6.22451ZM77.0649 6.22451C77.0649 5.72909 76.9407 5.23366 76.6923 4.86209C76.4438 4.36666 76.0712 4.24281 75.5743 4.24281C75.0774 4.24281 74.7048 4.49052 74.4563 4.86209C74.2079 5.23366 74.0837 5.72909 74.0837 6.22451C74.0837 6.71994 74.2079 7.21537 74.4563 7.58694C74.7048 8.08236 75.0774 8.20622 75.5743 8.20622C76.0712 8.20622 76.4438 7.95851 76.6923 7.46308C76.9407 7.21537 77.0649 6.71994 77.0649 6.22451Z" fill="white"/>
<path d="M84.3939 9.07321H83.276L83.1517 8.45393C82.7791 8.94936 82.158 9.19707 81.5369 9.19707C81.04 9.19707 80.5432 9.07321 80.2947 8.70164C80.0463 8.33007 79.7979 7.95851 79.7979 7.58694C79.7979 6.8438 80.0463 6.34837 80.6674 5.9768C81.2885 5.60523 82.0338 5.48137 83.1517 5.48137V5.35752C83.1517 4.61438 82.7791 4.24281 82.0338 4.24281C81.4127 4.24281 81.04 4.36666 80.5432 4.61438L80.2947 3.74738C80.7916 3.37581 81.4127 3.25195 82.2822 3.25195C83.7728 3.25195 84.5181 3.99509 84.5181 5.60523V7.71079C84.3939 8.33008 84.3939 8.70164 84.3939 9.07321ZM83.1517 7.09151V6.22451C81.7853 6.22451 81.04 6.59608 81.04 7.33922C81.04 7.58694 81.1643 7.83465 81.2885 7.95851C81.4127 8.08236 81.6611 8.20622 81.9096 8.20622C82.158 8.20622 82.4064 8.08236 82.6549 7.95851C82.9033 7.83465 83.0275 7.58694 83.1517 7.33922C83.1517 7.33922 83.1517 7.21537 83.1517 7.09151Z" fill="white"/>
<path d="M91.5983 9.07347H90.4803V8.20647C90.1076 8.94961 89.4865 9.19733 88.617 9.19733C87.8717 9.19733 87.3748 8.94961 86.8779 8.45419C86.3811 7.95876 86.2568 7.21562 86.2568 6.34862C86.2568 5.48163 86.5053 4.73849 87.0021 4.1192C87.499 3.62377 88.1201 3.37606 88.7412 3.37606C89.4865 3.37606 89.9834 3.62377 90.3561 4.1192V0.898926H91.5983V7.58719C91.5983 8.08262 91.5983 8.57804 91.5983 9.07347ZM90.3561 6.72019V5.72934C90.3561 5.60548 90.3561 5.48163 90.3561 5.35777C90.2318 5.11006 90.1076 4.86234 89.8592 4.61463C89.6107 4.36691 89.3623 4.36691 88.9897 4.36691C88.4928 4.36691 88.1201 4.61463 87.8717 4.9862C87.6232 5.35777 87.499 5.8532 87.499 6.47248C87.499 7.09176 87.6232 7.46333 87.8717 7.8349C88.1201 8.20647 88.4928 8.45419 88.9897 8.45419C89.3623 8.45419 89.735 8.33033 89.9834 7.95876C90.2318 7.46333 90.3561 7.09176 90.3561 6.72019Z" fill="white"/>
<path d="M102.405 6.22451C102.405 7.09151 102.157 7.83465 101.66 8.33008C101.163 8.94936 100.418 9.19707 99.5482 9.19707C98.6787 9.19707 98.0576 8.94936 97.5607 8.33008C97.0639 7.83465 96.8154 7.09151 96.8154 6.22451C96.8154 5.35752 97.0639 4.61438 97.5607 4.11895C98.0576 3.49967 98.8029 3.25195 99.6725 3.25195C100.542 3.25195 101.163 3.49967 101.66 4.11895C102.157 4.61438 102.405 5.35752 102.405 6.22451ZM101.039 6.22451C101.039 5.72909 100.915 5.23366 100.666 4.86209C100.418 4.36666 100.045 4.24281 99.5482 4.24281C99.0514 4.24281 98.6787 4.49052 98.4303 4.86209C98.1818 5.23366 98.0576 5.72909 98.0576 6.22451C98.0576 6.71994 98.1818 7.21537 98.4303 7.58694C98.6787 8.08236 99.0514 8.20622 99.5482 8.20622C100.045 8.20622 100.418 7.95851 100.666 7.46308C100.915 7.21537 101.039 6.71994 101.039 6.22451Z" fill="white"/>
<path d="M109.238 9.07305H107.995V5.85278C107.995 4.86192 107.623 4.3665 106.877 4.3665C106.505 4.3665 106.256 4.49036 106.008 4.73807C105.759 4.98578 105.635 5.35735 105.635 5.72892V9.07305H104.393V4.98578C104.393 4.49035 104.393 3.99493 104.393 3.37564H105.511V4.24264C105.635 3.99493 105.884 3.74721 106.132 3.4995C106.505 3.25179 106.877 3.12793 107.25 3.12793C107.747 3.12793 108.244 3.25179 108.617 3.62336C109.113 3.99493 109.238 4.61421 109.238 5.48121V9.07305Z" fill="white"/>
<path d="M117.684 4.36695H116.318V7.0918C116.318 7.83494 116.567 8.08265 117.063 8.08265C117.312 8.08265 117.436 8.08265 117.684 8.08265V9.0735C117.436 9.19736 117.063 9.19736 116.691 9.19736C116.194 9.19736 115.821 9.07351 115.573 8.70194C115.324 8.45422 115.2 7.83494 115.2 7.21566V4.36695H114.331V3.3761H115.2V2.38524L116.442 2.01367V3.3761H117.809V4.36695H117.684Z" fill="white"/>
<path d="M124.392 9.0733H123.15V5.85303C123.15 4.86218 122.778 4.36675 122.032 4.36675C121.411 4.36675 121.038 4.61446 120.79 5.23375C120.79 5.3576 120.79 5.48146 120.79 5.72917V9.0733H119.548V0.774902H120.79V4.24289C121.163 3.62361 121.784 3.25204 122.529 3.25204C123.026 3.25204 123.523 3.37589 123.771 3.74746C124.144 4.11903 124.392 4.86217 124.392 5.60532V9.0733Z" fill="white"/>
<path d="M131.224 5.97697C131.224 6.22468 131.224 6.34854 131.224 6.59625H127.498C127.498 7.21553 127.746 7.5871 127.994 7.83482C128.367 8.08253 128.74 8.20639 129.237 8.20639C129.858 8.20639 130.355 8.08253 130.727 7.95867L130.976 8.82567C130.479 9.07339 129.858 9.19724 129.112 9.19724C128.243 9.19724 127.498 8.94953 127.001 8.4541C126.504 7.95867 126.255 7.21553 126.255 6.34854C126.255 5.48154 126.504 4.7384 127.001 4.24297C127.498 3.62369 128.119 3.37598 128.988 3.37598C129.858 3.37598 130.479 3.62369 130.851 4.24297C131.1 4.61454 131.224 5.23383 131.224 5.97697ZM130.106 5.6054C130.106 5.23383 129.982 4.86226 129.858 4.61454C129.609 4.24297 129.361 4.11912 128.864 4.11912C128.491 4.11912 128.119 4.24297 127.87 4.61454C127.622 4.86226 127.498 5.23383 127.498 5.6054H130.106Z" fill="white"/>
</svg>
