<svg width="140" height="35" viewBox="0 0 140 35" fill="none" xmlns="http://www.w3.org/2000/svg">
<path fill-rule="evenodd" clip-rule="evenodd" d="M78.875 33.375C78.25 32.875 77.75 32 77.5 31.5L79.5 30.625C79.625 30.875 79.875 31.25 80.125 31.625C80.625 32.125 81.375 32.625 82.125 32.625C82.875 32.625 83.75 32.25 84.25 31.625C84.625 31 84.875 30.375 84.875 29.5V28.75C83.375 30.625 80.25 30.375 78.5 28.375C76.625 26.375 76.625 23 78.5 21C80.375 19.125 83.125 18.875 84.75 20.625V19.75H86.875V29.125C86.875 31.5 86 32.875 84.875 33.75C84.125 34.375 83 34.625 82 34.625C80.875 34.5 79.75 34.125 78.875 33.375ZM131.25 33.875L133.375 28.875L129.625 20.25H131.75L134.375 26.375L137 20.25H139.125L133.375 33.875H131.25ZM121.125 29.125C120.5 28.5 120.25 27.625 120.25 26.75C120.25 26 120.5 25.25 121 24.75C121.875 23.875 123.125 23.5 124.5 23.5C125.375 23.5 126.125 23.625 126.75 24C126.75 22.5 125.5 21.875 124.5 21.875C123.625 21.875 122.75 22.375 122.375 23.25L120.5 22.5C120.875 21.625 121.875 20 124.375 20C125.625 20 126.875 20.375 127.625 21.25C128.375 22.125 128.625 23.125 128.625 24.5V29.75H126.5V28.875C126.25 29.25 125.75 29.5 125.375 29.75C124.875 30 124.25 30.125 123.625 30.125C122.875 30 121.75 29.75 121.125 29.125ZM54.5 24.625C54.5 22.125 56.375 19.375 59.75 19.375C63 19.375 65 22.125 65 24.625C65 27.125 63.125 29.875 59.75 29.875C56.375 29.875 54.5 27.125 54.5 24.625ZM65.75 24.625C65.75 22.125 67.625 19.375 71 19.375C74.25 19.375 76.25 22.125 76.25 24.625C76.25 27.125 74.375 29.875 71 29.875C67.75 29.875 65.75 27.125 65.75 24.625ZM40.375 27.375C37.25 24.25 37.375 19.125 40.5 15.875C42.125 14.25 44.125 13.5 46.25 13.5C48.25 13.5 50.25 14.25 51.75 15.75L50.25 17.375C48 15.125 44.375 15.25 42.25 17.5C40 19.875 40 23.5 42.25 25.875C44.5 28.25 48.25 28.375 50.5 26C51.25 25.25 51.5 24.25 51.625 23.25H46.375V21H53.75C53.875 21.5 53.875 22.125 53.875 22.75C53.875 24.625 53.125 26.5 51.875 27.75C50.5 29.125 48.5 29.875 46.5 29.875C44.25 29.75 42 29 40.375 27.375ZM93.25 28.25C91.375 26.25 91.375 22.875 93.25 20.75C95.125 18.75 98.25 18.75 100 20.75C100.625 21.375 101 22.25 101.375 23.125L94.5 26C94.875 26.875 95.75 27.625 97 27.625C98.125 27.625 98.875 27.25 99.625 26.125L101.5 27.375C101.25 27.625 101 27.875 100.875 28.125C98.75 30.25 95.125 30.25 93.25 28.25ZM106.25 29.75V15.875H110.75C113.375 15.875 115.5 17.75 115.5 20C115.5 22.25 113.625 24.125 111.25 24.125H108.5V29.625H106.25V29.75ZM116.75 29.75V15.875H118.875V29.75H116.75ZM88.5 29.5V14H90.75V29.5H88.5ZM126.625 25.625C126.125 25.25 125.375 25.125 124.625 25.125C123.125 25.125 122.25 25.875 122.25 26.75C122.25 27.625 123.125 28.125 124 28.125C125.25 28.125 126.625 27.125 126.625 25.625ZM62.625 24.625C62.625 23.125 61.625 21.5 59.75 21.5C57.875 21.5 56.875 23.125 56.875 24.625C56.875 26.125 57.875 27.75 59.75 27.75C61.5 27.75 62.625 26.125 62.625 24.625ZM73.875 24.625C73.875 23.125 72.875 21.5 71 21.5C69.125 21.5 68.125 23.125 68.125 24.625C68.125 26.125 69.125 27.75 71 27.75C72.875 27.75 73.875 26.125 73.875 24.625ZM85 25.5C85 25.375 85 25.25 85.125 25.125C85.125 25 85.125 24.75 85.125 24.625C85.125 24.5 85.125 24.25 85.125 24.125V24C85.125 23.875 85 23.625 85 23.5C84.625 22.25 83.5 21.375 82.375 21.375C80.875 21.375 79.625 22.875 79.625 24.5C79.625 26.25 80.875 27.625 82.5 27.625C83.5 27.75 84.5 26.875 85 25.5ZM94.125 24.375L98.75 22.375C98.25 21.5 97.5 21.25 96.875 21.25C95 21.375 93.875 23.375 94.125 24.375ZM113.25 20.125C113.25 18.875 112.25 18 110.875 18H108.375V22.375H111C112.25 22.375 113.25 21.375 113.25 20.125Z" fill="white"/>
<path fill-rule="evenodd" clip-rule="evenodd" d="M132.876 31.375H132.75V31.25H132.876H132.75V31.375H132.876Z" fill="white"/>
<path fill-rule="evenodd" clip-rule="evenodd" d="M133.125 31.375C133.125 31.25 133.125 31.25 133.125 31.375C133 31.25 133 31.25 133.125 31.375C133 31.375 133 31.375 133.125 31.375ZM133.125 31.25C133.125 31.375 133.125 31.375 133.125 31.25C133.125 31.375 133 31.375 133.125 31.25C133 31.25 133.125 31.25 133.125 31.25Z" fill="white"/>
<path fill-rule="evenodd" clip-rule="evenodd" d="M133.251 31.25H133.125H133.251V31.375V31.25Z" fill="white"/>
<path d="M38.625 3.625C38.625 1.375 40.25 0 42.25 0C43.625 0 44.5 0.624999 45.125 1.5L44.125 2.125C43.75 1.625 43.125 1.25 42.25 1.25C40.875 1.25 39.875 2.25 39.875 3.75C39.875 5.25 40.875 6.25 42.25 6.25C43 6.25 43.625 5.875 43.875 5.625V4.5H41.875V3.375H45.25V6C44.625 6.75 43.625 7.25 42.375 7.25C40.25 7.25 38.625 5.75 38.625 3.625Z" fill="white"/>
<path d="M46.75 7.125V0.125H51.5V1.25H47.875V3H51.375V4.125H47.875V6.125H51.5V7.25L46.75 7.125Z" fill="white"/>
<path d="M55 7.125V1.25H52.875V0.125H58.375V1.25H56.25V7.125H55Z" fill="white"/>
<path d="M62.625 7.125V0.125H63.875V7.125H62.625Z" fill="white"/>
<path d="M67.25 7.125V1.25H65.125V0.125H70.625V1.25H68.5V7.125H67.25Z" fill="white"/>
<path d="M74.625 3.625C74.625 1.5 76.125 0 78.25 0C80.375 0 81.875 1.5 81.875 3.625C81.875 5.75 80.375 7.25 78.25 7.25C76.125 7.25 74.625 5.625 74.625 3.625ZM80.5 3.625C80.5 2.125 79.625 1.125 78.125 1.125C76.75 1.125 75.75 2.25 75.75 3.625C75.75 5.125 76.625 6.125 78.125 6.125C79.625 6.125 80.5 5 80.5 3.625Z" fill="white"/>
<path d="M88.125 7.125L84.5 2.125V7.125H83.25V0.125H84.5L88.125 5V0.125H89.375V7.125H88.125Z" fill="white"/>
<path d="M6.53896 4.04754L12.4259 9.54205L18.3647 15.0619L19.7037 13.7057L21.4238 11.9579L16.099 8.90113L6.53896 4.04754ZM6.53896 4.04754L6.5 4.49976L5 3.08329L6.53896 4.04754ZM7.41273 28.4998L3.82256 30.4958C3.72393 30.5452 3.67467 30.5452 3.57604 30.5452C3.47741 30.5452 3.37884 30.5452 3.32952 30.4958C3.18164 30.3973 3.08301 30.2493 3.08301 30.0521V1.94927C3.08301 1.77071 3.16414 1.59259 3.32578 1.52379C3.38429 1.48931 3.44912 1.468 3.51781 1.4601C3.57263 1.45124 3.62649 1.45323 3.67836 1.46488C3.72598 1.47283 3.77427 1.48629 3.82256 1.50561L16.5921 8.06295L22.3599 11.3795C22.3939 11.3879 22.4272 11.3996 22.4592 11.4156L28.4249 14.8668C28.7207 15.064 28.9179 15.3597 28.9179 15.7048C28.9179 16.05 28.7207 16.3951 28.4249 16.543L22.5739 19.9279C22.5404 19.9565 22.5022 19.9799 22.4592 19.9942C22.3606 20.0928 22.3113 20.1421 22.2127 20.1421C22.2099 20.1421 22.2074 20.1418 22.2047 20.1418L16.5921 23.3962L7.41273 28.4998ZM7.41273 28.4998L5 28.9998L6.62527 26.9998L7.41273 28.4998ZM4.06908 3.08329L17.6205 15.7478L4.06908 28.8475V3.08329ZM16.099 22.5581L6.62527 27.7833L15.606 19.102L18.3647 16.4467L21.3963 19.5171L16.099 22.5581ZM22.2954 18.9891L19.1019 15.7546L22.3137 12.5016L27.9319 15.7542L22.2954 18.9891Z" stroke="white" stroke-width="1.5"/>
</svg>
