<svg width="50" height="50" viewBox="0 0 50 50" fill="none" xmlns="http://www.w3.org/2000/svg">
<g clip-path="url(#clip0)">
<path d="M33.9317 3.55365C29.9998 4.47897 26.7119 7.15127 25.0004 10.8012C23.2887 7.15125 20.0002 4.47859 16.0682 3.55364L16.0678 3.55356C12.7231 2.77927 9.20759 3.38976 6.32029 5.24666C3.25537 7.20456 1.11112 10.3183 0.375142 13.8801C-1.06423 20.5977 0.890218 26.6691 4.56777 31.7658C8.24423 36.8611 13.6448 40.9858 19.1099 43.8199L24.571 46.6529L24.571 46.6529C24.8402 46.7922 25.1605 46.7922 25.4297 46.6529L25.4297 46.6529L30.8908 43.8199C36.3557 40.987 41.7563 36.8622 45.4327 31.7666C49.1101 26.6695 51.0644 20.5974 49.6244 13.8793C48.8904 10.3157 46.7465 7.20042 43.6805 5.24137C40.792 3.38634 37.2761 2.77734 33.932 3.55358L33.9317 3.55365ZM2.20067 14.271L2.20083 14.2702C2.83354 11.1978 4.68061 8.51157 7.323 6.82146L7.32326 6.82129C9.78896 5.23318 12.7921 4.71044 15.6489 5.37211C19.8079 6.37014 23.065 9.60089 24.0973 13.7516L24.0977 13.753C24.2058 14.1627 24.5765 14.4485 25.0004 14.4485C25.4241 14.4485 25.795 14.1627 25.9027 13.7529L25.903 13.7516C26.936 9.59978 30.1951 6.36902 34.3559 5.37212C37.2113 4.71233 40.2122 5.23394 42.6775 6.81867L42.6777 6.81878C45.3205 8.50965 47.1675 11.1971 47.7999 14.2702L47.8 14.271C49.1268 20.4624 47.2749 26.091 43.7944 30.8463C40.3128 35.6031 35.2042 39.4817 30.0313 42.1632L25.0004 44.7716L19.9694 42.1632C14.7965 39.4817 9.68786 35.6031 6.2063 30.8463C2.72583 26.091 0.873939 20.4624 2.20067 14.271Z" fill="white" stroke="white" stroke-width="0.2"/>
<path d="M20.6251 18.65C19.5342 18.65 18.65 19.5342 18.65 20.6249C18.65 21.7158 19.5342 22.6 20.6251 22.6C21.7158 22.6 22.6 21.7158 22.6 20.6249C22.6 19.5342 21.7158 18.65 20.6251 18.65Z" fill="white" stroke="white" stroke-width="0.2"/>
<path d="M29.3749 18.65C28.2842 18.65 27.4 19.5342 27.4 20.6249C27.4 21.7158 28.2842 22.6 29.3749 22.6C30.4658 22.6 31.35 21.7158 31.35 20.6249C31.35 19.5342 30.4658 18.65 29.3749 18.65Z" fill="white" stroke="white" stroke-width="0.2"/>
<path d="M20.0015 28.324H19.9015C19.9015 28.3477 19.9164 29.5133 20.5604 30.6764C20.8833 31.2595 21.365 31.8433 22.0828 32.281C22.8008 32.7188 23.7496 33.007 25.001 33.007C26.2524 33.007 27.2012 32.7188 27.9192 32.281C28.6369 31.8433 29.1187 31.2595 29.4415 30.6764C30.0856 29.5133 30.1006 28.3477 30.1006 28.324L30.1006 28.3238C30.0993 27.8187 29.693 27.4081 29.1879 27.4017L29.1879 27.4016L29.184 27.4017C28.6852 27.4144 28.2765 27.8003 28.2344 28.2973L28.2344 28.2973L28.2342 28.3009C28.2303 28.3813 28.1884 29.0948 27.7644 29.7855C27.3449 30.4689 26.5455 31.1405 25.001 31.1405C23.464 31.1405 22.6649 30.472 22.2437 29.7902C21.8214 29.1067 21.7733 28.3995 21.768 28.3047C21.7616 27.7906 21.3405 27.3779 20.8256 27.383C20.3104 27.3877 19.8964 27.8094 19.9015 28.325L20.0015 28.324ZM20.0015 28.324C19.9969 27.8636 20.3665 27.4871 20.8266 27.483L21.668 28.308C21.6779 28.4907 21.8553 31.2405 25.001 31.2405C28.1617 31.2405 28.3257 28.4781 28.3341 28.3057C28.3718 27.8594 28.7388 27.5131 29.1866 27.5016C29.6371 27.5074 29.9994 27.8735 30.0006 28.324C30.0006 28.3572 29.943 32.907 25.001 32.907C20.0587 32.907 20.0015 28.3572 20.0015 28.324Z" fill="white" stroke="white" stroke-width="0.2"/>
</g>
<defs>
<clipPath id="clip0">
<rect width="50" height="50" fill="white"/>
</clipPath>
</defs>
</svg>
