<svg width="50" height="50" viewBox="0 0 50 50" fill="none" xmlns="http://www.w3.org/2000/svg">
<path d="M25 31.4242C23.074 31.4242 21.5055 29.8557 21.5055 27.9297C21.5055 26.0036 23.074 24.4352 25 24.4352C26.926 24.4352 28.4945 26.0036 28.4945 27.9297C28.4945 29.8557 26.926 31.4242 25 31.4242Z" stroke="white" stroke-width="1.8"/>
<path d="M17.1109 44.043C17.1109 39.6935 20.6505 36.1539 25 36.1539C29.3495 36.1539 32.8891 39.6935 32.8891 44.043V49.1H17.1109V44.043Z" stroke="white" stroke-width="1.8"/>
<path d="M8.88672 27.3648C10.8128 27.3648 12.3812 28.9333 12.3812 30.8594C12.3812 32.7854 10.8128 34.3539 8.88672 34.3539C6.96068 34.3539 5.39219 32.7854 5.39219 30.8594C5.39219 28.9333 6.96068 27.3648 8.88672 27.3648Z" stroke="white" stroke-width="1.8"/>
<path d="M41.1133 27.3648C43.0393 27.3648 44.6078 28.9333 44.6078 30.8594C44.6078 32.7854 43.0393 34.3539 41.1133 34.3539C39.1872 34.3539 37.6187 32.7854 37.6187 30.8594C37.6187 28.9333 39.1872 27.3648 41.1133 27.3648Z" stroke="white" stroke-width="1.8"/>
<path d="M5.31901 6.14516L5.82309 6.07407L6.02188 5.60542L7.43187 2.28123L8.87954 5.61267L9.07937 6.07254L9.57557 6.14463L12.8127 6.61495L10.4697 8.90008L10.1335 9.22802L10.2102 9.6914L10.7767 13.1124L7.83876 11.5769L7.42188 11.359L7.00499 11.5769L4.06707 13.1124L4.63356 9.6914L4.71153 9.22054L4.36549 8.89184L1.97101 6.61734L5.31901 6.14516Z" stroke="white" stroke-width="1.8"/>
<path d="M26.4577 5.61267L26.6575 6.07254L27.1537 6.14463L30.3908 6.61495L28.0478 8.90008L27.7116 9.22802L27.7883 9.6914L28.3548 13.1124L25.4169 11.5769L25 11.359L24.5831 11.5769L21.6452 13.1124L22.2117 9.6914L22.2884 9.22802L21.9522 8.90008L19.6117 6.61739L22.8995 6.14483L23.4018 6.07263L23.6 5.60542L25.01 2.28123L26.4577 5.61267Z" stroke="white" stroke-width="1.8"/>
<path d="M40.4776 6.14483L40.98 6.07263L41.1781 5.60542L42.5881 2.28123L44.0358 5.61267L44.2363 6.074L44.7342 6.14498L48.0315 6.61494L45.6345 8.89184L45.2885 9.22054L45.3664 9.6914L45.9329 13.1124L42.995 11.5769L42.5781 11.359L42.1612 11.5769L39.2233 13.1124L39.7898 9.6914L39.8665 9.22802L39.5303 8.90008L37.1899 6.61739L40.4776 6.14483Z" stroke="white" stroke-width="1.8"/>
<path d="M37.6185 44.043C37.6185 42.7134 37.3889 41.4494 37.0065 40.2644C38.2076 39.5204 39.6068 39.0836 41.1131 39.0836C45.4832 39.0836 49.0998 42.6284 49.0998 46.9727V49.1H37.6185V44.043Z" stroke="white" stroke-width="1.8"/>
<path d="M12.3813 49.1H0.9V46.9727C0.9 42.6284 4.5166 39.0836 8.88672 39.0836C10.393 39.0836 11.7922 39.5204 12.9933 40.2644C12.6109 41.4494 12.3813 42.7134 12.3813 44.043V49.1Z" stroke="white" stroke-width="1.8"/>
</svg>
