<svg width="50" height="50" viewBox="0 0 50 50" fill="none" xmlns="http://www.w3.org/2000/svg">
<path d="M28.4007 41.9922H21.5993C21.2757 41.9922 20.9961 42.2141 20.9961 42.5376V43.7325C20.9961 44.7313 21.8262 45.5078 22.8248 45.5078H27.1752C28.1738 45.5078 29.0039 44.7313 29.0039 43.7325V42.5376C29.0039 42.2141 28.7243 41.9922 28.4007 41.9922ZM27.832 43.7325C27.832 44.0852 27.5279 44.3359 27.1752 44.3359H22.8248C22.4721 44.3359 22.168 44.0852 22.168 43.7325V43.1641H27.832V43.7325Z" fill="white" stroke="white" stroke-width="0.6"/>
<path d="M6.78321 22.9897C6.87952 23.1123 7.0189 23.1935 7.17299 23.217C7.32708 23.2404 7.48431 23.2043 7.61271 23.1159L8.78907 22.2966V40.3312C8.78907 40.6542 9.00753 40.9162 9.33048 40.9172L17.9688 40.9415V44.4678C17.9688 46.8181 19.9231 48.7305 22.2733 48.7305H27.7268C30.077 48.7305 32.0313 46.8181 32.0313 44.4678V40.9808L40.3892 41.0156H40.3902C40.552 41.0138 40.707 40.9507 40.8239 40.839C40.9397 40.7288 41.0084 40.578 41.0156 40.4184V22.2852L42.2949 23.1211C42.414 23.1988 42.5576 23.2295 42.698 23.2073C42.8385 23.1851 42.9656 23.1115 43.0548 23.0008L44.9871 20.6473C45.0867 20.5318 45.1373 20.3819 45.1279 20.2297C45.1186 20.0775 45.0501 19.935 44.9371 19.8325L36.6211 12.5942V1.85547C36.6211 1.53184 36.3175 1.26953 35.9939 1.26953H29.7259C29.4023 1.26953 29.1016 1.53213 29.1016 1.85547V5.75059L25.6894 2.86338C25.585 2.77409 25.4521 2.72525 25.3148 2.72573C25.1775 2.72621 25.0449 2.776 24.9412 2.86602L5.08536 19.8196C4.97238 19.9167 4.90064 20.0532 4.88471 20.2013C4.86878 20.3495 4.90987 20.4981 4.99962 20.617L6.78321 22.9897ZM30.8594 44.4678C30.8594 46.1719 29.4309 47.5586 27.7268 47.5586H22.2733C20.5692 47.5586 19.1406 46.1719 19.1406 44.4678V39.1982C19.1406 38.5077 19.7446 37.9883 20.4351 37.9883H29.565C30.2554 37.9883 30.8594 38.5077 30.8594 39.1982V44.4678ZM23.3835 35.0565L24.7835 33.9258C24.852 33.8685 24.907 33.7968 24.9444 33.7157C24.9819 33.6347 25.0009 33.5463 25 33.457V31.9133C25.0008 31.8273 24.9825 31.7422 24.9464 31.6641C24.9103 31.586 24.8574 31.5169 24.7914 31.4617L23.5322 30.4191L24.8771 28.7547C24.9615 28.6503 25.0074 28.52 25.0073 28.3857C25.0072 28.2515 24.9609 28.1213 24.8763 28.0171L23.4787 26.2971L25.3231 24.1412L26.6602 25.9495V36.8164H23.425L23.3835 35.0565ZM25.334 4.07998L29.3485 7.45801C29.4302 7.52965 29.5312 7.5757 29.6388 7.59043C29.7465 7.60515 29.8561 7.5879 29.954 7.54082C30.053 7.49264 30.1358 7.41679 30.1925 7.32246C30.2492 7.22812 30.2773 7.11937 30.2734 7.00938V2.44141H35.4492V12.8613C35.4454 12.9438 35.4596 13.0261 35.4909 13.1025C35.5222 13.1789 35.5697 13.2476 35.6303 13.3037L43.7247 20.3429L42.4763 21.8535L40.7106 20.7183C40.6254 20.6614 40.5262 20.6292 40.4238 20.6254C40.3215 20.6216 40.2201 20.6462 40.131 20.6966C40.0408 20.748 39.9663 20.8231 39.9157 20.9137C39.8651 21.0044 39.8402 21.1072 39.8438 21.2109V39.8308L32.0313 39.8089V39.1982C32.0313 37.8613 30.9017 36.8164 29.565 36.8164H27.832V25.7542C27.839 25.6295 27.8047 25.5059 27.7344 25.4026L25.834 22.8563C25.7823 22.7864 25.7154 22.729 25.6384 22.6885C25.5614 22.648 25.4763 22.6254 25.3893 22.6223C25.3024 22.6193 25.2158 22.6359 25.1362 22.671C25.0566 22.706 24.9859 22.7586 24.9294 22.8248L22.2699 25.9023C22.18 26.0066 22.1296 26.1391 22.1276 26.2767C22.1257 26.4144 22.1722 26.5483 22.2591 26.6551L23.6676 28.3879L22.2583 30.1338C22.161 30.2533 22.1147 30.4063 22.1294 30.5598C22.1442 30.7132 22.2187 30.8546 22.337 30.9534L23.8281 32.1892V33.1748L22.4219 34.3007C22.351 34.3614 22.2947 34.4372 22.2569 34.5225C22.2191 34.6079 22.2009 34.7006 22.2035 34.7938L22.2533 36.8164H20.4351C19.0984 36.8164 17.9688 37.8613 17.9688 39.1982V39.7696L9.96095 39.7469V21.1621C9.956 21.0531 9.92203 20.9474 9.86253 20.8559C9.80304 20.7644 9.72019 20.6905 9.62255 20.6418C9.52491 20.5931 9.41603 20.5713 9.30716 20.5788C9.1983 20.5863 9.0934 20.6227 9.00333 20.6843L7.38351 21.8301L6.27228 20.3536L25.334 4.07998Z" fill="white" stroke="white" stroke-width="0.6"/>
</svg>
