<svg width="138" height="46" viewBox="0 0 138 46" fill="none" xmlns="http://www.w3.org/2000/svg">
<g clip-path="url(#clip0)">
<path d="M58.1723 33.4906L58.1722 33.4906C56.6011 34.2634 54.8567 34.609 53.1121 34.493C51.071 34.4852 49.0437 34.1559 47.1036 33.5169C47.1035 33.5169 47.1034 33.5168 47.1033 33.5168L58.1723 33.4906ZM58.1723 33.4906L58.1802 33.4866C58.7453 33.196 59.2175 32.7514 59.5433 32.204C59.8683 31.6579 60.0347 31.0311 60.024 30.395M58.1723 33.4906L42.4385 31.2559L40.2383 36.137C41.8988 37.217 43.7099 38.0425 45.6124 38.5859C48.1322 39.2716 50.7302 39.621 53.34 39.6253L53.3475 39.6253L53.355 39.6255C55.9019 39.706 58.4377 39.2503 60.8005 38.2876L60.8071 38.2849L60.8138 38.2824C62.6279 37.6026 64.1918 36.3767 65.2929 34.77C66.2707 33.3297 66.7892 31.6222 66.7785 29.8759L66.7784 29.8581L66.7796 29.8404C66.8956 28.0578 66.3384 26.2977 65.221 24.9134C64.1457 23.7248 62.8172 22.7979 61.3357 22.2023C59.3352 21.4845 57.2929 20.8913 55.2203 20.4262C53.3374 20.0076 51.4915 19.4351 49.7008 18.7144C49.0864 18.4934 48.5551 18.0871 48.1788 17.5514C47.8005 17.0129 47.5973 16.3698 47.5967 15.7108L47.5967 15.7095C47.5977 15.066 47.766 14.4338 48.0851 13.8759C48.4042 13.3179 48.8631 12.8535 49.4164 12.5295L49.4213 12.5266L49.4214 12.5266C50.9375 11.6619 52.6747 11.2713 54.4119 11.4045C57.5115 11.4878 60.5431 12.319 63.2537 13.8244L65.1908 8.94142C63.7116 8.06795 62.1149 7.41354 60.4495 6.99886L60.4475 6.99835C58.4677 6.49657 56.4322 6.25301 54.391 6.27362L54.3796 6.27373L54.3683 6.27333C51.8218 6.18317 49.2853 6.63894 46.9264 7.61064L46.9189 7.61371L46.9114 7.61653C45.098 8.29606 43.5348 9.52117 42.4337 11.1268C41.454 12.6065 40.936 14.3487 40.947 16.1288L40.9471 16.1443L40.9462 16.1598C40.8462 17.9424 41.4019 19.6989 42.5057 21.093C43.5807 22.2808 44.9087 23.2071 46.3895 23.8025C48.3902 24.5203 50.4328 25.1135 52.5057 25.5787L52.5159 25.581L52.526 25.5837C53.0158 25.7154 53.4912 25.8382 53.9428 25.9549C54.9134 26.2057 55.7739 26.4281 56.4307 26.6485C57.3323 26.9385 58.1702 27.3995 58.8996 28.0067C59.2509 28.2976 59.5337 28.663 59.728 29.0766C59.9217 29.4889 60.0227 29.9391 60.024 30.395M60.024 30.395C60.024 30.3964 60.024 30.3978 60.024 30.3992L59.524 30.3998L60.0239 30.3908C60.0239 30.3922 60.0239 30.3936 60.024 30.395Z" fill="#2D8BF9" stroke="#2D8BF9"/>
<path d="M82.5217 31.5453L89.6264 14.4152H95.669L85.3955 38.9919H78.5144L68.2409 14.4152H74.6993L81.596 31.5406L82.053 32.6753L82.5217 31.5453Z" fill="#2D8BF9" stroke="#2D8BF9"/>
<path d="M103.883 37.78L103.883 37.7797C101.927 36.7667 100.29 35.223 99.1569 33.3222C98.0338 31.3387 97.4429 29.0939 97.4429 26.8093C97.4429 24.5233 98.0345 22.2771 99.159 20.2927C100.261 18.3718 101.901 16.8235 103.874 15.8426L103.874 15.8427L103.885 15.837C106.037 14.7002 108.443 14.1379 110.871 14.2035L110.885 14.2038L110.898 14.2035C113.292 14.1379 115.662 14.7001 117.776 15.8354L117.776 15.8354L117.782 15.8388C119.737 16.8521 121.373 18.3957 122.506 20.2963C123.63 22.2797 124.22 24.5245 124.22 26.8091C124.22 29.0951 123.629 31.3413 122.504 33.3257C121.403 35.2465 119.762 36.7947 117.79 37.7756L117.79 37.7754L117.778 37.7816C115.659 38.9063 113.29 39.4682 110.896 39.4147L110.885 39.4144L110.874 39.4147C108.445 39.4682 106.041 38.9063 103.883 37.78ZM115.879 21.2015L115.869 21.1902L115.859 21.1795C115.216 20.5059 114.44 19.9747 113.581 19.6204C112.727 19.2679 111.809 19.0982 110.885 19.1222C109.948 19.098 109.015 19.2667 108.145 19.6178C107.27 19.9707 106.476 20.5003 105.812 21.1738L105.812 21.1738L105.805 21.1816C105.109 21.9186 104.571 22.7914 104.223 23.7459C103.879 24.6924 103.728 25.6995 103.781 26.706C103.738 27.7099 103.893 28.7125 104.237 29.6561C104.584 30.6076 105.116 31.4799 105.802 32.2217L105.807 32.2275L105.812 32.2332C106.476 32.9067 107.27 33.4363 108.145 33.7892C109.015 34.14 109.946 34.3086 110.882 34.2849C111.808 34.3194 112.73 34.1544 113.587 33.8009C114.449 33.4454 115.225 32.9074 115.863 32.2236L115.997 32.0796V32.0719C116.613 31.3597 117.087 30.5348 117.394 29.6419C117.719 28.6958 117.851 27.6931 117.78 26.6946C117.851 24.6891 117.173 22.7287 115.879 21.2015Z" fill="#2D8BF9" stroke="#2D8BF9"/>
<path d="M130.148 14.4152H136.485V38.9919H130.148V14.4152Z" fill="#2D8BF9" stroke="#2D8BF9"/>
<path d="M12.0522 36.5845L12.0525 36.5842C13.1433 37.235 14.3513 37.6597 15.6059 37.8335C16.8618 38.0075 18.1391 37.9266 19.3629 37.5957C20.5867 37.2647 21.7324 36.6904 22.733 35.9063C23.7329 35.1229 24.5678 34.1457 25.1889 33.032C25.8695 31.8389 26.0526 30.2762 26.0384 28.5922C26.0264 27.1638 25.8699 25.5817 25.7109 23.975C25.6815 23.678 25.652 23.3801 25.6233 23.0822L25.6207 23.0551L25.6152 23.0285C24.8956 19.5362 24.8112 15.9412 25.3662 12.4194L25.5013 11.5619L24.6964 11.8688C21.7008 13.0106 18.2425 14.8611 15.2514 16.9164C12.2769 18.9603 9.6944 21.254 8.52355 23.3038L8.5225 23.3057C7.25929 25.5392 6.92095 28.1876 7.58175 30.6746C8.24259 33.1617 9.84919 35.286 12.0522 36.5845ZM26.9341 9.01926L29.2175 8.40231L28.2278 10.4366C28.2276 10.4372 28.2273 10.4378 28.227 10.4383C27.3819 12.1452 27.085 14.2016 27.0578 16.3606C27.0306 18.5234 27.2745 20.8344 27.5431 23.0673C27.8109 25.3066 28.0529 27.429 28.0259 29.3531C27.9989 31.2762 27.7026 32.9502 26.9317 34.3094C25.375 37.0342 22.8102 39.0213 19.8019 39.8341C16.7935 40.647 13.5879 40.2189 10.8902 38.6446C8.19249 37.0703 6.22289 34.4785 5.41513 31.4386C4.60733 28.3987 5.02766 25.1597 6.58428 22.4346C8.13249 19.7242 11.6838 16.7769 15.671 14.2837C19.6435 11.7997 23.9545 9.82431 26.9341 9.01926Z" fill="#2D8BF9" stroke="#2D8BF9"/>
<path d="M11.738 32.3336C11.7584 32.404 11.7798 32.4741 11.8022 32.5437C11.7432 32.4823 11.6849 32.4202 11.6273 32.3573C11.4679 31.9682 11.264 31.5991 11.0199 31.2574C10.9701 31.1056 10.8966 30.9458 10.8321 30.8052C10.8184 30.7754 10.8051 30.7464 10.7925 30.7186C10.6963 30.5061 10.5999 30.2785 10.5293 30.0129L10.5253 29.9982L10.5205 29.9838C10.3519 29.4755 10.2584 28.9449 10.2432 28.4091L10.2416 28.3504L10.2265 28.2936L10.1984 28.1877L10.2069 28.1728L10.265 28.0714L10.2723 27.9544C10.2859 27.7353 10.2802 27.5395 10.2762 27.3984C10.2751 27.3606 10.2741 27.3268 10.2736 27.2975C10.2722 27.2049 10.2766 27.1639 10.278 27.1513L10.3207 27.0767L10.3316 26.9706C10.3883 26.4157 10.5409 25.8751 10.7823 25.3732L11.5782 23.9832C11.687 23.9303 11.7883 23.8625 11.8791 23.7814C12.008 23.6664 12.113 23.5271 12.1883 23.3717C12.1886 23.3714 12.1889 23.3712 12.1892 23.3709C12.2114 23.3526 12.2407 23.3325 12.297 23.295C12.2992 23.2936 12.3014 23.2921 12.3037 23.2906C12.3513 23.2589 12.4221 23.2119 12.4885 23.1569C12.5583 23.099 12.6444 23.0157 12.7122 22.9001C12.9096 22.5773 13.1979 22.3214 13.5401 22.1648L13.597 22.1388L13.6456 22.0994C13.932 21.8677 14.2408 21.6679 14.5664 21.5027C14.3805 21.7612 14.1881 22.0151 13.9894 22.2639L13.9654 22.294L13.9462 22.3274L12.7207 24.4676C12.5821 24.7097 12.5057 24.9802 12.4477 25.1857C12.4453 25.1943 12.4429 25.2027 12.4406 25.211C12.3748 25.4435 12.326 25.6053 12.2505 25.7372L12.1506 25.9115L12.1987 26.1074C12.2102 26.154 12.2112 26.2029 12.2016 26.2503C12.192 26.2978 12.172 26.3426 12.1431 26.3813L12.1248 26.4057L12.1097 26.4321C12.0414 26.5514 12.0119 26.6711 11.9968 26.7628C11.9827 26.8483 11.9776 26.9337 11.9742 26.9911L11.9737 26.9991C11.9696 27.067 11.967 27.1027 11.9623 27.1313C11.9616 27.1353 11.961 27.1385 11.9605 27.1409L11.9284 27.1971L11.9123 27.2765L11.7876 27.892L11.7164 28.0163L11.6138 28.1955L11.6671 28.3958L11.728 28.6253C11.7176 28.8714 11.7305 29.0752 11.742 29.2564L11.7422 29.2599C11.755 29.4625 11.7657 29.6361 11.7528 29.852L11.748 29.9315L11.768 30.0086C11.7932 30.1062 11.8044 30.2537 11.8182 30.4728C11.8187 30.4803 11.8191 30.488 11.8196 30.4957C11.8309 30.6753 11.8459 30.9146 11.8972 31.1152C11.9588 31.3999 11.9168 31.6979 11.7783 31.9546L11.6808 32.1355L11.738 32.3336Z" fill="#2D8BF9" stroke="#2D8BF9"/>
<path d="M133.198 6.29211C134.99 6.29211 136.416 7.4497 136.416 9.1028C136.416 10.7547 134.991 11.907 133.198 11.907C131.412 11.907 130.022 10.761 130.022 9.1028C130.022 7.4434 131.414 6.29211 133.198 6.29211Z" fill="#2D8BF9" stroke="#2D8BF9"/>
</g>
<defs>
<clipPath id="clip0">
<rect width="138" height="44.4672" fill="white" transform="translate(0 0.766113)"/>
</clipPath>
</defs>
</svg>
