<svg width="30" height="30" viewBox="0 0 30 30" fill="none" xmlns="http://www.w3.org/2000/svg">
<g clip-path="url(#clip0)">
<path d="M29.3348 30.1768L29.1578 30.3538L28.981 30.1766L14.8551 16.0172L0.729296 30.1766L0.552519 30.3538L0.375532 30.1768L-0.287283 29.514L-0.463852 29.3374L-0.287489 29.1606L13.8402 14.9998L-0.287493 0.838465L-0.463972 0.661566L-0.287161 0.484999L0.375654 -0.176899L0.552639 -0.353638L0.729292 -0.176569L14.8551 13.9824L28.981 -0.176569L29.1577 -0.353638L29.3346 -0.176899L29.9975 0.484999L30.1743 0.661566L29.9978 0.838465L15.8701 14.9998L29.9978 29.1606L30.1741 29.3374L29.9976 29.514L29.3348 30.1768Z" fill="black" stroke="black" stroke-width="0.5"/>
</g>
<defs>
<clipPath id="clip0">
<rect width="30" height="30" fill="white" transform="matrix(-1 0 0 1 30 0)"/>
</clipPath>
</defs>
</svg>
