<svg width="85" height="85" viewBox="0 0 85 85" fill="none" xmlns="http://www.w3.org/2000/svg">
<path d="M67.4395 63.8695C69.7345 62.2784 71.2499 60.7843 71.3296 60.7046L72.3788 59.6554L71.2207 58.7284C67.3173 55.6059 65.0781 50.9469 65.0781 45.9491V23.9062C65.0781 11.4564 54.9498 1.32812 42.5 1.32812C30.0502 1.32812 19.9219 11.4564 19.9219 23.9062V45.9491C19.9219 50.9482 17.6827 55.6059 13.7793 58.7284L12.6212 59.6554L13.6704 60.7046C13.7501 60.7843 15.2655 62.2784 17.5591 63.8695C10.8601 67.5524 6.64062 74.5583 6.64062 82.3438V83.6719H78.3594V82.3438C78.3594 74.5583 74.1399 67.5511 67.4395 63.8695ZM22.5781 45.9491V23.9062C22.5781 12.9213 31.5151 3.98438 42.5 3.98438C53.4849 3.98438 62.4219 12.9213 62.4219 23.9062V45.9491C62.4219 51.2391 64.5801 56.2023 68.3918 59.7882C67.5325 60.5253 66.1898 61.5732 64.604 62.5441L51.6176 57.2302C50.1115 56.6153 49.1406 55.1677 49.1406 53.542V52.5884C55.6763 48.0715 59.7656 40.5835 59.7656 32.3398V27.8906H58.4375C51.7278 27.8906 45.139 26.0658 39.3842 22.6127L34.6906 19.797L34.1102 19.9909C28.8017 21.76 25.2344 26.7086 25.2344 32.3412C25.2344 40.5835 29.3237 48.0728 35.8594 52.5898V53.5434C35.8594 55.169 34.8885 56.6153 33.3837 57.2302L20.3973 62.5441C18.8102 61.5732 17.4688 60.5253 16.6082 59.7882C20.4199 56.2009 22.5781 51.2391 22.5781 45.9491ZM27.8906 62.3488V73.0469H25.2344V63.4352L27.8906 62.3488ZM42.5 53.048C33.7423 49.9335 27.8906 41.6686 27.8906 32.3053C27.8906 28.054 30.4791 24.2715 34.3918 22.7136L38.0176 24.8904C43.8042 28.3621 50.3798 30.2985 57.1094 30.5243V32.3398C57.1094 41.6686 51.2577 49.9348 42.5 53.048ZM42.0803 55.7122L42.5 55.853L42.9197 55.7135C44.1774 55.2938 45.3834 54.7812 46.5309 54.1835C46.6265 55.177 46.9373 56.112 47.4313 56.9407L42.5 61.872L37.5673 56.9394C38.0614 56.1106 38.3722 55.1756 38.4678 54.1822C39.6153 54.7798 40.8226 55.2938 42.0803 55.7122ZM30.5469 73.0469V62.1111L31.8405 64.3742C33.0252 66.4474 35.2431 67.7344 37.6311 67.7344C39.3869 67.7344 41.1055 67.0225 42.3473 65.7807L42.5 65.628L42.6527 65.7807C43.8945 67.0225 45.6131 67.7344 47.3689 67.7344C49.7569 67.7344 51.9762 66.4461 53.1595 64.3742L54.4531 62.1111V73.0469H30.5469ZM50.8539 63.0567C50.1407 64.3038 48.8059 65.0781 47.3689 65.0781C46.3117 65.0781 45.2784 64.6505 44.5307 63.9027L44.378 63.75L49.227 58.901C49.652 59.2091 50.1075 59.4841 50.6095 59.6899L52.3666 60.4084L50.8539 63.0567ZM35.773 58.901L40.622 63.75L40.4693 63.9027C39.7216 64.6505 38.6883 65.0781 37.6311 65.0781C36.1941 65.0781 34.8593 64.3038 34.1461 63.0567L32.6334 60.4084L34.3905 59.6899C34.8925 59.4841 35.348 59.2091 35.773 58.901ZM23.1638 75.7031H61.8348C62.4073 75.7031 62.9133 76.067 63.0952 76.6116L64.5641 81.0156H20.4359L21.9034 76.6116C22.0854 76.067 22.5927 75.7031 23.1638 75.7031ZM59.7656 73.0469H57.1094V62.3488L59.7656 63.4352V73.0469ZM20.7652 65.2641L22.5781 64.5216V73.0934C21.1092 73.3112 19.8661 74.3298 19.3853 75.7709L17.6375 81.0156H9.34336C9.83875 74.0363 14.2109 67.9442 20.7652 65.2641ZM67.3625 81.0156L65.6147 75.7709C65.1339 74.3298 63.8895 73.3112 62.4219 73.0934V64.5216L64.2348 65.2641C70.7891 67.9455 75.1612 74.0363 75.6566 81.0156H67.3625Z" fill="#2D8BF9"/>
</svg>
