<svg width="113" height="86" viewBox="0 0 113 86" fill="none" xmlns="http://www.w3.org/2000/svg">
<g clip-path="url(#clip0)">
<path d="M20.1018 65.9028C16.2135 65.9028 13.0503 69.066 13.0503 72.9543C13.0503 76.8426 16.2135 80.0058 20.1018 80.0058C23.99 80.0058 27.1532 76.8426 27.1532 72.9543C27.1532 69.066 23.99 65.9028 20.1018 65.9028ZM20.1018 76.7512C18.0082 76.7512 16.3049 75.0478 16.3049 72.9543C16.3049 70.8608 18.0082 69.1574 20.1018 69.1574C22.1953 69.1574 23.8986 70.8608 23.8986 72.9543C23.8986 75.0478 22.1953 76.7512 20.1018 76.7512Z" fill="#2D8BF9"/>
<path d="M93.9795 23.2463V20.8772C93.9795 11.5082 87.6582 3.88574 78.2893 3.88574C68.9203 3.88574 62.599 11.5082 62.599 20.8772V46.5038C62.599 51.7314 58.346 55.9844 53.1184 55.9844H51.6723C48.4653 52.1051 43.9153 49.3401 38.6291 48.4205L14.4112 44.2088C11.324 43.6713 8.17686 44.5201 5.77731 46.5375C3.37691 48.5557 2 51.5117 2 54.6477V75.2685C2 78.6509 4.75209 81.403 8.13452 81.403H10.4442C12.7912 84.4519 16.4744 86.4222 20.6109 86.4222C24.7473 86.4222 28.4304 84.4521 30.7777 81.403H50.5181C53.9006 81.403 56.6527 78.6509 56.6527 75.2685V69.8479C56.6527 66.0401 55.67 62.4395 53.9321 59.3014C60.627 58.8799 65.9454 53.3025 65.9454 46.5033V20.877C65.9454 13.353 70.7653 7.23166 78.2895 7.23166C85.8136 7.23166 90.6336 13.353 90.6336 20.8772V23.2463C88.6864 23.9369 87.2874 25.7966 87.2874 27.9775V51.1769C87.2874 53.3578 88.6864 55.2175 90.6336 55.9082V75.5288H93.9797V55.9082C95.9269 55.2175 97.3258 53.3578 97.3258 51.1769V27.9775C97.3256 25.7966 95.9267 23.9369 93.9795 23.2463ZM18.1191 48.2496L36.487 51.4437V54.1459C36.487 54.987 36.1129 55.7749 35.4605 56.3065C34.8084 56.8383 33.9603 57.0464 33.1364 56.8772L20.3493 54.2498C19.0571 53.983 18.1194 52.8342 18.1194 51.5182L18.1191 48.2496ZM8.13452 78.0573C6.59689 78.0573 5.34614 76.8065 5.34614 75.2689V75.1574H7.88264C8.00555 76.1641 8.24296 77.1359 8.58578 78.0573H8.13452ZM20.6109 83.0762C15.3833 83.0762 11.1303 78.8235 11.1303 73.5956C11.1303 68.3677 15.383 64.1149 20.6109 64.1149C25.8386 64.1149 30.0916 68.3677 30.0916 73.5956C30.0916 78.8235 25.8384 83.0762 20.6109 83.0762ZM53.3065 75.2687C53.3065 76.8061 52.0558 78.057 50.5181 78.057H32.6359C32.9787 77.1355 33.2161 76.1638 33.339 75.1572H53.3065V75.2687ZM53.3065 71.8108H33.3107C32.4391 65.5802 27.0779 60.7688 20.6109 60.7688C14.1442 60.7688 8.78257 65.5802 7.91115 71.8108H5.34614V54.6477C5.34614 52.502 6.28841 50.4792 7.93081 49.0979C9.57212 47.7176 11.7243 47.1376 13.8372 47.5048L14.7728 47.6675V51.5182C14.7728 54.4135 16.8334 56.9407 19.6738 57.5268L32.4626 60.1547C32.8767 60.2396 33.293 60.2815 33.7062 60.2815C35.1047 60.2815 36.4674 59.8028 37.5749 58.8998C39.0099 57.7298 39.8328 55.9969 39.8328 54.1459V52.1185C47.7386 54.3059 53.3063 61.4927 53.3063 69.8481L53.3065 71.8108ZM93.9795 51.1771C93.9795 52.0997 93.229 52.8502 92.3064 52.8502C91.3838 52.8502 90.6333 52.0997 90.6333 51.1771V27.9775C90.6333 27.0549 91.3838 26.3044 92.3064 26.3044C93.229 26.3044 93.9795 27.0549 93.9795 27.9775V51.1771Z" fill="#2D8BF9"/>
<path d="M103.511 75.7152H81.1032L74.6138 86.4226H110L103.511 75.7152ZM82.9882 79.0611H101.626L104.06 83.0765H80.5545L82.9882 79.0611Z" fill="#2D8BF9"/>
</g>
<defs>
<clipPath id="clip0">
<rect width="113" height="86" fill="white"/>
</clipPath>
</defs>
</svg>
