<svg width="111" height="85" viewBox="0 0 111 85" fill="none" xmlns="http://www.w3.org/2000/svg">
<path fill-rule="evenodd" clip-rule="evenodd" d="M87.0343 31.721C87.4728 31.721 87.8885 31.8793 88.1982 32.1728L88.2026 32.1768L94.2044 37.6001C94.571 37.9331 94.78 38.4062 94.78 38.8955V49.882C94.78 50.8455 93.9938 51.6332 93.0361 51.6332H76.8053C75.8476 51.6332 75.0614 50.8455 75.0614 49.882V33.4722C75.0614 32.5088 75.8476 31.721 76.8053 31.721H87.0343ZM91.2097 39.5905L91.2921 39.6649V39.776V47.8808V48.1308H91.0421H78.7993H78.5493V47.8808V35.4534V35.2034H78.7993H86.2567H86.3528L86.4242 35.2679L91.2097 39.5905ZM19.8074 64.7007V64.4507V59.1275C19.8074 58.1641 19.0212 57.3763 18.0634 57.3763C17.1057 57.3763 16.3195 58.1641 16.3195 59.1275V66.4519C16.3195 67.4154 17.1057 68.2031 18.0634 68.2031H24.0652C25.023 68.2031 25.8092 67.4154 25.8092 66.4519C25.8092 65.4885 25.023 64.7007 24.0652 64.7007H20.0574H19.8074ZM12.0417 46.0699H12.0431L36.2291 46.21C37.1889 46.2096 37.9748 45.4387 37.9923 44.4743C38.0097 43.4936 37.2252 42.7076 36.2682 42.7076H36.2668L12.0804 42.5675H12.0794H12.0783H12.0773H12.0763H12.0752H12.0742H12.0731H12.0721H12.071H12.07H12.0689H12.0679H12.0668H12.0658H12.0647H12.0637H12.0626H12.0616C11.1006 42.5675 10.3177 43.3385 10.3177 44.2987L10.3176 44.3031C10.3002 45.2839 11.0847 46.0699 12.0417 46.0699ZM103.026 34.7251L88.7482 22.8575C88.4346 22.5952 88.0528 22.4555 87.6325 22.4555H70.8434H70.5934V22.2055V15.0012C70.5934 14.0378 69.8072 13.25 68.8494 13.25H18.0634C17.1057 13.25 16.3195 14.0378 16.3195 15.0012V29.6499C16.3195 30.6134 17.1057 31.4011 18.0634 31.4011C19.0212 31.4011 19.8074 30.6134 19.8074 29.6499V17.0024V16.7524H20.0574H66.8754H67.1254V17.0024V64.4507V64.7007H66.8754H50.525C49.5672 64.7007 48.781 65.4885 48.781 66.4519C48.781 67.4154 49.5672 68.2031 50.525 68.2031H74.8712C75.8289 68.2031 76.6151 67.4153 76.6151 66.4519C76.6151 65.4885 75.8289 64.7007 74.8712 64.7007H70.8633H70.6133V64.4507V26.2079V25.9579H70.8633H86.9346H87.0249L87.0944 26.0156L100.095 36.8221L100.186 36.8976L100.185 37.0156L100.046 64.412L100.044 64.6607H99.7956H97.7219C96.7641 64.6607 95.9779 65.4484 95.9779 66.4119C95.9779 67.3753 96.7641 68.1631 97.7219 68.1631H101.77C102.731 68.1631 103.514 67.3921 103.514 66.4319V66.4306L103.673 36.0973C103.654 35.5627 103.423 35.0541 103.026 34.7251ZM79.8527 64.8083C78.1833 66.4842 77.2547 68.6624 77.2547 70.9946C77.2547 73.328 78.1643 75.5053 79.8516 77.1799C81.5411 78.8365 83.7319 79.75 86.0573 79.75C90.8213 79.75 94.7003 75.8226 94.7003 70.9946C94.7003 66.1667 90.8213 62.2392 86.0573 62.2392C83.7311 62.2392 81.5211 63.1533 79.8527 64.8083ZM86.0573 76.2476C83.1705 76.2476 80.7426 73.8573 80.7426 70.9946C80.7426 68.1319 83.1705 65.7416 86.0573 65.7416C88.9119 65.7416 91.2124 68.0997 91.2124 70.9946C91.2124 73.8895 88.9119 76.2476 86.0573 76.2476ZM37.3649 62.2392C35.039 62.2392 32.8292 63.1531 31.1608 64.8078C29.4911 66.4838 28.5623 68.6622 28.5623 70.9946C28.5623 73.3281 29.4719 75.5054 31.1594 77.18C32.8488 78.8365 35.0396 79.75 37.3649 79.75C42.1289 79.75 46.0079 75.8226 46.0079 70.9946C46.0079 66.1667 42.1289 62.2392 37.3649 62.2392ZM37.3649 76.2476C34.4782 76.2476 32.0503 73.8573 32.0503 70.9946C32.0503 68.1319 34.4782 65.7416 37.3649 65.7416C40.2195 65.7416 42.52 68.0997 42.52 70.9946C42.52 73.8895 40.2195 76.2476 37.3649 76.2476ZM33.9246 53.5442C33.9246 52.5808 33.1384 51.793 32.1806 51.793H7.99395C7.0362 51.793 6.25 52.5808 6.25 53.5442C6.25 54.5076 7.0362 55.2954 7.99395 55.2954H32.1806C33.14 55.2954 33.9246 54.526 33.9246 53.5442ZM16.1093 36.9845H40.296C41.2538 36.9845 42.04 36.1967 42.04 35.2333C42.04 34.2698 41.2538 33.4821 40.296 33.4821H16.1093C15.1516 33.4821 14.3654 34.2698 14.3654 35.2333C14.3654 36.1967 15.1516 36.9845 16.1093 36.9845Z" fill="#2D8AF9"/>
<path d="M88.1982 32.1728C87.8885 31.8793 87.4728 31.721 87.0343 31.721H76.8053C75.8476 31.721 75.0614 32.5088 75.0614 33.4722V49.882C75.0614 50.8455 75.8476 51.6332 76.8053 51.6332H93.0361C93.9938 51.6332 94.78 50.8455 94.78 49.882V38.8955C94.78 38.4062 94.571 37.9331 94.2044 37.6001M88.1982 32.1728L94.2044 37.6001M88.1982 32.1728L88.2026 32.1768L94.2044 37.6001M12.0804 42.5675H12.0794H12.0783H12.0773H12.0763H12.0752H12.0742H12.0731H12.0721H12.071H12.07H12.0689H12.0679H12.0668H12.0658H12.0647H12.0637H12.0626H12.0616C11.1006 42.5675 10.3177 43.3385 10.3177 44.2987L10.3176 44.3031C10.3002 45.2839 11.0847 46.0699 12.0417 46.0699H12.0431L36.2291 46.21M12.0804 42.5675H12.0816L36.2668 42.7076M12.0804 42.5675L36.2668 42.7076M36.2668 42.7076H36.2682C37.2252 42.7076 38.0097 43.4936 37.9923 44.4743C37.9748 45.4387 37.1889 46.2096 36.2291 46.21M36.2291 46.21C36.2289 46.21 36.2294 46.21 36.2291 46.21ZM91.0421 48.1308H91.2921V47.8808V39.776V39.6649L91.2097 39.5905L86.4242 35.2679L86.3528 35.2034H86.2567H78.7993H78.5493V35.4534V47.8808V48.1308H78.7993H91.0421ZM19.8074 64.4507V64.7007H20.0574H24.0652C25.023 64.7007 25.8092 65.4885 25.8092 66.4519C25.8092 67.4154 25.023 68.2031 24.0652 68.2031H18.0634C17.1057 68.2031 16.3195 67.4154 16.3195 66.4519V59.1275C16.3195 58.1641 17.1057 57.3763 18.0634 57.3763C19.0212 57.3763 19.8074 58.1641 19.8074 59.1275V64.4507ZM103.026 34.7251C103.423 35.0541 103.654 35.5627 103.673 36.0973L103.514 66.4306V66.4319C103.514 67.3921 102.731 68.1631 101.77 68.1631H97.7219C96.7641 68.1631 95.9779 67.3753 95.9779 66.4119C95.9779 65.4484 96.7641 64.6607 97.7219 64.6607H99.7956H100.044L100.046 64.412L100.185 37.0156L100.186 36.8976L100.095 36.8221L87.0944 26.0156L87.0249 25.9579H86.9346H70.8633H70.6133V26.2079V64.4507V64.7007H70.8633H74.8712C75.8289 64.7007 76.6151 65.4885 76.6151 66.4519C76.6151 67.4153 75.8289 68.2031 74.8712 68.2031H50.525C49.5672 68.2031 48.781 67.4154 48.781 66.4519C48.781 65.4885 49.5672 64.7007 50.525 64.7007H66.8754H67.1254V64.4507V17.0024V16.7524H66.8754H20.0574H19.8074V17.0024V29.6499C19.8074 30.6134 19.0212 31.4011 18.0634 31.4011C17.1057 31.4011 16.3195 30.6134 16.3195 29.6499V15.0012C16.3195 14.0378 17.1057 13.25 18.0634 13.25H68.8494C69.8072 13.25 70.5934 14.0378 70.5934 15.0012V22.2055V22.4555H70.8434H87.6325C88.0528 22.4555 88.4346 22.5952 88.7482 22.8575L103.026 34.7251ZM77.2547 70.9946C77.2547 68.6624 78.1833 66.4842 79.8527 64.8083C81.5211 63.1533 83.7311 62.2392 86.0573 62.2392C90.8213 62.2392 94.7003 66.1667 94.7003 70.9946C94.7003 75.8226 90.8213 79.75 86.0573 79.75C83.7319 79.75 81.5411 78.8365 79.8516 77.1799C78.1643 75.5053 77.2547 73.328 77.2547 70.9946ZM80.7426 70.9946C80.7426 73.8573 83.1705 76.2476 86.0573 76.2476C88.9119 76.2476 91.2124 73.8895 91.2124 70.9946C91.2124 68.0997 88.9119 65.7416 86.0573 65.7416C83.1705 65.7416 80.7426 68.1319 80.7426 70.9946ZM31.1608 64.8078C32.8292 63.1531 35.039 62.2392 37.3649 62.2392C42.1289 62.2392 46.0079 66.1667 46.0079 70.9946C46.0079 75.8226 42.1289 79.75 37.3649 79.75C35.0396 79.75 32.8488 78.8365 31.1594 77.18C29.4719 75.5054 28.5623 73.3281 28.5623 70.9946C28.5623 68.6622 29.4911 66.4838 31.1608 64.8078ZM32.0503 70.9946C32.0503 73.8573 34.4782 76.2476 37.3649 76.2476C40.2195 76.2476 42.52 73.8895 42.52 70.9946C42.52 68.0997 40.2195 65.7416 37.3649 65.7416C34.4782 65.7416 32.0503 68.1319 32.0503 70.9946ZM32.1806 51.793C33.1384 51.793 33.9246 52.5808 33.9246 53.5442C33.9246 54.526 33.14 55.2954 32.1806 55.2954H7.99395C7.0362 55.2954 6.25 54.5076 6.25 53.5442C6.25 52.5808 7.0362 51.793 7.99395 51.793H32.1806ZM40.296 36.9845H16.1093C15.1516 36.9845 14.3654 36.1967 14.3654 35.2333C14.3654 34.2698 15.1516 33.4821 16.1093 33.4821H40.296C41.2538 33.4821 42.04 34.2698 42.04 35.2333C42.04 36.1967 41.2538 36.9845 40.296 36.9845Z" stroke="white" stroke-width="0.5"/>
</svg>
