<svg width="82" height="82" viewBox="0 0 82 82" fill="none" xmlns="http://www.w3.org/2000/svg">
<g clip-path="url(#clip0)">
<path d="M61.2186 21.5047C61.2621 21.4764 61.3102 21.4557 61.3606 21.4433C61.409 21.4323 61.4584 21.4264 61.508 21.4258C61.6028 21.424 61.6968 21.4432 61.7834 21.4819C61.8656 21.5219 61.9363 21.5823 61.9886 21.6573L62.4535 21.2468C62.4037 21.1848 62.3445 21.1309 62.2781 21.0872C62.2082 21.0402 62.1335 21.0008 62.0553 20.9697C61.9729 20.9396 61.8885 20.9156 61.8027 20.8978C61.717 20.8826 61.6301 20.8743 61.5431 20.8732C61.3885 20.8731 61.2347 20.8961 61.087 20.9416C60.9525 20.9831 60.8265 21.0485 60.7151 21.1346C60.6103 21.2166 60.5242 21.3201 60.4625 21.438C60.3996 21.5625 60.3678 21.7003 60.3695 21.8397C60.3678 21.9431 60.3869 22.0457 60.4257 22.1415C60.4603 22.2218 60.5103 22.2945 60.573 22.3555C60.6363 22.4183 60.7099 22.4699 60.7905 22.5081C60.8778 22.55 60.9674 22.5869 61.0589 22.6186C61.1756 22.6558 61.2866 22.7089 61.3887 22.7765C61.4276 22.8031 61.4592 22.839 61.4807 22.881C61.5021 22.923 61.5127 22.9697 61.5115 23.0168C61.5138 23.0731 61.5004 23.129 61.4729 23.1782C61.4474 23.2235 61.4113 23.2621 61.3677 23.2904C61.3223 23.3202 61.2717 23.341 61.2186 23.3518C61.161 23.3647 61.1021 23.3706 61.0431 23.3694C60.925 23.3691 60.8085 23.3415 60.7028 23.2887C60.5993 23.2431 60.511 23.1689 60.4485 23.0747L59.9468 23.4852C60.0062 23.5612 60.0765 23.628 60.1555 23.6834C60.2389 23.741 60.329 23.7882 60.4239 23.8237C60.5207 23.8621 60.6212 23.8904 60.7239 23.9079C60.826 23.9286 60.9302 23.938 61.0344 23.936C61.1775 23.9361 61.3201 23.9184 61.4589 23.8833C61.5969 23.8482 61.7276 23.7888 61.8448 23.7079C61.9595 23.6293 62.0553 23.5263 62.1255 23.4062C62.2012 23.2689 62.2388 23.1139 62.2342 22.9571C62.2364 22.8568 62.2179 22.7571 62.1798 22.6642C62.143 22.5778 62.09 22.4992 62.0237 22.4327C61.9492 22.3621 61.8647 22.303 61.7729 22.2572C61.6645 22.2001 61.5519 22.1514 61.4361 22.1116C61.3409 22.0797 61.2506 22.0349 61.1677 21.9783C61.1368 21.9563 61.1118 21.9271 61.095 21.8931C61.0781 21.8591 61.07 21.8215 61.0712 21.7836C61.0699 21.7267 61.0852 21.6707 61.1151 21.6222C61.141 21.5763 61.1763 21.5363 61.2186 21.5047ZM62.6464 20.9434L62.5394 21.5257H63.3446L62.9394 23.8465H63.6305L64.0305 21.5257H64.8269L64.9304 20.9381L62.6464 20.9434ZM66.9985 20.9434L66.6775 22.7186C66.6638 22.793 66.6445 22.8663 66.6196 22.9379C66.5972 23.0106 66.5602 23.0781 66.5109 23.1361C66.461 23.1972 66.3981 23.2464 66.3267 23.2799C66.2369 23.3203 66.1391 23.3395 66.0408 23.336C65.964 23.3391 65.8875 23.3259 65.8162 23.2975C65.7581 23.2768 65.7058 23.2425 65.6636 23.1975C65.625 23.1559 65.5962 23.1061 65.5794 23.0519C65.5619 22.9951 65.553 22.9359 65.5531 22.8765V22.794C65.555 22.7652 65.5585 22.7365 65.5636 22.7081L65.8741 20.9539H65.2093L64.89 22.7765C64.89 22.8168 64.8795 22.8607 64.876 22.9045C64.8725 22.9484 64.876 22.987 64.876 23.0273C64.8746 23.1575 64.9021 23.2863 64.9567 23.4045C65.0093 23.5168 65.0881 23.6148 65.1865 23.6904C65.2949 23.7709 65.4175 23.8304 65.5478 23.8658C65.7024 23.9096 65.8626 23.9309 66.0232 23.929C66.2021 23.9323 66.3802 23.9044 66.5495 23.8465C66.6955 23.7968 66.8302 23.7187 66.9459 23.6167C67.0579 23.5184 67.1497 23.3993 67.2161 23.2659C67.2869 23.1168 67.3365 22.9586 67.3634 22.7958L67.6827 20.9556L66.9985 20.9434ZM70.1561 21.2275C70.024 21.1288 69.8747 21.0556 69.7158 21.0118C69.5558 20.9677 69.3906 20.9452 69.2246 20.9451H68.1493L67.6371 23.8518H68.8246C69.0637 23.8535 69.3012 23.8132 69.5263 23.7325C69.7348 23.6586 69.9263 23.5434 70.0894 23.3939C70.249 23.2466 70.3757 23.0673 70.4613 22.8677C70.5537 22.6455 70.5991 22.4066 70.5946 22.166C70.599 21.9716 70.5562 21.779 70.47 21.6047C70.3938 21.4568 70.2861 21.3274 70.1543 21.2258L70.1561 21.2275ZM69.821 22.6309C69.7784 22.751 69.7122 22.8613 69.6263 22.9554C69.5356 23.0533 69.425 23.1305 69.3018 23.1817C69.1597 23.2411 69.0067 23.2698 68.8527 23.2659H68.4124L68.7176 21.5257H69.0913C69.2106 21.5241 69.3293 21.5431 69.4421 21.5819C69.5344 21.6163 69.6187 21.6695 69.6894 21.738C69.7543 21.804 69.8045 21.8829 69.8368 21.9696C69.8679 22.0605 69.8839 22.1559 69.8842 22.252C69.8844 22.3775 69.8631 22.5021 69.821 22.6203V22.6309ZM70.6788 23.8588H71.3647L71.8751 20.9521H71.191L70.6788 23.8588ZM74.7011 21.2275C74.5737 21.1117 74.4238 21.0234 74.2608 20.9679C74.0704 20.9067 73.8714 20.8764 73.6714 20.8785C73.3274 20.8734 72.9901 20.9741 72.7052 21.1671C72.4203 21.36 72.2016 21.6359 72.0786 21.9573C71.9927 22.1775 71.9492 22.412 71.9506 22.6484C71.9487 22.8286 71.982 23.0073 72.0488 23.1747C72.1088 23.3302 72.2043 23.4696 72.3277 23.5816C72.4558 23.6989 72.6078 23.7868 72.7733 23.8395C72.9649 23.9033 73.166 23.9336 73.3679 23.929C73.6089 23.9338 73.8481 23.8872 74.0696 23.7921C74.2739 23.7044 74.4579 23.5754 74.6099 23.4132C74.7614 23.2501 74.8805 23.0596 74.9607 22.8519C75.0451 22.6277 75.0873 22.3898 75.0853 22.1502C75.0866 21.9703 75.0539 21.7917 74.9888 21.624C74.9232 21.4693 74.8244 21.331 74.6994 21.2188L74.7011 21.2275ZM74.2994 22.6309C74.2588 22.7583 74.1952 22.8772 74.1117 22.9817C74.0286 23.0855 73.9238 23.1699 73.8047 23.229C73.6792 23.2922 73.54 23.3235 73.3995 23.3203C73.2909 23.3236 73.1829 23.3045 73.082 23.2641C72.9944 23.2295 72.9154 23.1762 72.8505 23.108C72.7866 23.0419 72.7375 22.963 72.7066 22.8765C72.673 22.7849 72.6558 22.6881 72.6557 22.5905C72.6556 22.452 72.6788 22.3144 72.7242 22.1836C72.7681 22.0565 72.8333 21.9379 72.9171 21.8327C73.0003 21.7299 73.1035 21.6452 73.2206 21.5836C73.3311 21.5282 73.452 21.4964 73.5755 21.49C73.6989 21.4837 73.8224 21.503 73.938 21.5468C74.0244 21.5809 74.1025 21.6332 74.167 21.7001C74.2314 21.7669 74.2808 21.8469 74.3117 21.9345C74.347 22.0281 74.3654 22.1273 74.3661 22.2274C74.3646 22.3624 74.3415 22.4962 74.2976 22.6239L74.2994 22.6309ZM63.0376 20.1645C63.2465 20.0906 63.4382 19.9748 63.6007 19.8242C63.7603 19.6769 63.887 19.4976 63.9726 19.298C64.0642 19.0755 64.1096 18.8368 64.1059 18.5963C64.1105 18.4024 64.0678 18.2103 63.9814 18.0367C63.9029 17.8923 63.7947 17.7661 63.6639 17.6666C63.5327 17.5665 63.3831 17.4932 63.2236 17.4508C63.0635 17.407 62.8984 17.384 62.7324 17.3824H61.6571L61.1431 20.2627H62.3307C62.5694 20.2674 62.807 20.2293 63.0324 20.1505L63.0376 20.1645ZM62.2272 17.9543H62.6008C62.7203 17.9523 62.8392 17.9719 62.9517 18.0122C63.0443 18.0459 63.1287 18.0991 63.199 18.1683C63.2657 18.2327 63.3162 18.3121 63.3464 18.3998C63.3777 18.4901 63.3937 18.585 63.3937 18.6805C63.3937 18.8091 63.3711 18.9368 63.3271 19.0576C63.2845 19.1777 63.2183 19.2881 63.1324 19.3822C63.0416 19.4795 62.9309 19.5561 62.8078 19.6067C62.6656 19.6658 62.5128 19.6951 62.3588 19.6926H61.9185L62.2272 17.9543ZM64.1849 20.2627H64.8707L65.3847 17.3543H64.6988L64.1849 20.2627ZM66.453 18.2121C66.5408 18.1104 66.6482 18.0275 66.7688 17.9683C66.8923 17.9084 67.0279 17.8773 67.1652 17.8771C67.29 17.8728 67.4138 17.9006 67.5248 17.9578C67.6133 18.0058 67.6896 18.0737 67.7476 18.156L68.2458 17.7087C68.1312 17.5622 67.9781 17.4505 67.8037 17.3859C67.6032 17.3122 67.3911 17.2753 67.1775 17.2772C66.9421 17.2752 66.7089 17.323 66.4933 17.4175C66.2879 17.5083 66.1025 17.6389 65.9478 17.8017C65.7925 17.9659 65.6699 18.1582 65.5864 18.3682C65.4988 18.5917 65.4553 18.8299 65.4584 19.0699C65.4554 19.2503 65.4894 19.4294 65.5584 19.5962C65.6226 19.7473 65.7183 19.883 65.839 19.9944C65.9663 20.1075 66.1156 20.1929 66.2776 20.2452C66.4603 20.3081 66.6527 20.3384 66.8459 20.3347C67.0393 20.335 67.232 20.3114 67.4195 20.2645C67.5925 20.2227 67.7597 20.1603 67.9177 20.0786L68.1914 18.5437H66.9968L66.8933 19.1068H67.4599L67.3652 19.6523C67.3041 19.6838 67.2384 19.7051 67.1705 19.7154C67.0952 19.7292 67.0189 19.7368 66.9424 19.7383C66.8306 19.7412 66.7193 19.7228 66.6144 19.6839C66.523 19.6507 66.4402 19.5973 66.3723 19.5278C66.305 19.461 66.2545 19.3792 66.225 19.2892C66.1905 19.1936 66.1733 19.0926 66.1741 18.991C66.1741 18.8449 66.2003 18.6999 66.2513 18.563C66.2994 18.4345 66.37 18.3157 66.46 18.2121H66.453ZM68.3229 20.2645H69.0088L69.521 17.3578H68.8352L68.3229 20.2645ZM70.1104 20.2645H70.7911L71.2015 17.9437H71.9979L72.0997 17.3561H69.8087L69.7017 17.9437H70.5157L70.1104 20.2645ZM73.3609 19.6856L73.4592 20.2645H74.1784L73.6293 17.3578H72.9627L71.1121 20.2663H71.8909L72.2418 19.6874L73.3609 19.6856ZM73.1381 18.1069L73.2908 19.1366H72.5312L73.1381 18.1069ZM75.2291 19.6698L75.6396 17.3578H74.9537L74.4415 20.2627H76.2606L76.3676 19.6681L75.2291 19.6698ZM63.3446 15.5265H64.4339L64.5322 14.9634H63.4428L63.5534 14.3424H64.7076L64.8093 13.7583H62.9832L62.4675 16.672H63.1411L63.3446 15.5265ZM64.7988 15.8352C64.7966 15.9658 64.8236 16.0953 64.8777 16.2141C64.9317 16.3256 65.011 16.423 65.1093 16.4983C65.2169 16.5802 65.3397 16.6398 65.4707 16.6737C65.6245 16.7183 65.7841 16.7395 65.9443 16.7369C66.1232 16.7404 66.3013 16.7125 66.4705 16.6544C66.6166 16.6048 66.7513 16.5267 66.867 16.4246C66.979 16.3268 67.0702 16.2075 67.1354 16.0738C67.207 15.9251 67.2566 15.7667 67.2827 15.6037L67.6055 13.7723H66.9319L66.6126 15.5423C66.5989 15.6167 66.5796 15.69 66.5547 15.7616C66.5305 15.833 66.4936 15.8995 66.446 15.958C66.3961 16.0192 66.3332 16.0683 66.2618 16.1019C66.172 16.1422 66.0742 16.1615 65.9759 16.158C65.8988 16.1599 65.8221 16.1474 65.7496 16.1212C65.6916 16.1012 65.6397 16.0668 65.5987 16.0212C65.5605 15.9783 65.5312 15.9282 65.5128 15.8738C65.4952 15.817 65.4863 15.7579 65.4864 15.6984V15.616C65.4883 15.5871 65.4918 15.5584 65.497 15.53L65.8092 13.7758H65.1304L64.8111 15.5984C64.8111 15.6405 64.8006 15.6826 64.7971 15.7265C64.7936 15.7703 64.7971 15.8002 64.7971 15.8387L64.7988 15.8352ZM69.393 16.6685L69.5 16.0738H68.3668L68.7667 13.7723H68.0809L67.5687 16.6807L69.393 16.6685ZM71.6559 16.072H70.5139L70.9226 13.7723H70.2367L69.7263 16.679H71.5489L71.6559 16.072Z" fill="white"/>
<path d="M80.5928 40.6461C80.7822 42.4003 78.2474 45.0789 75.974 45.0754C74.3742 45.0754 72.3499 44.3334 72.0745 41.36C71.5746 35.9642 75.1005 32.1612 75.0443 31.6367C74.9882 31.1122 73.9918 30.5965 73.4393 30.6579L73.3252 30.7754C73.0025 29.6896 71.4395 29.1703 70.5028 29.2405C69.1223 29.3422 67.3453 31.4192 66.5313 33.0155C65.9414 33.1 65.3614 33.2433 64.8 33.4435C65.2192 30.3105 63.8527 29.5457 62.4757 29.6948C61.6063 29.7817 60.7721 30.0831 60.0479 30.5719C60.062 30.4808 60.0655 30.3884 60.0585 30.2965C59.9813 29.5948 57.564 28.6914 57.6605 29.5948C57.8359 31.1736 53.8013 36.6992 52.1401 42.195C51.9524 42.3178 51.8893 42.3003 51.6718 42.2424C50.8421 42.0143 50.0772 39.5287 49.2493 38.6797C50.5895 37.9991 55.0538 33.789 55.1696 32.0331C55.2117 31.3946 52.9523 29.9281 52.6611 30.828C52.1349 32.4471 49.2019 36.6799 47.3986 37.4939C48.1985 34.717 49.6036 32.2506 49.5843 32.0752C49.5457 31.7244 48.1564 31.1876 47.1723 31.3437C46.7741 31.4069 45.4831 34.3837 44.7165 36.5659C42.7343 39.7602 36.4052 47.033 35.8579 47.0909C35.458 47.1348 35.1966 46.1489 35.1966 45.2385C35.1966 40.3724 40.1767 35.0135 42.108 34.8047C42.6343 34.7486 43.6482 35.6274 43.5517 34.7416C43.4149 33.4751 41.8677 32.7173 40.9064 32.7576C37.0648 32.9207 33.653 37.2834 32.5601 39.8181C31.1568 42.2459 26.31 48.0925 24.6663 50.2344C24.6335 50.2671 24.589 50.2854 24.5427 50.2854C24.4963 50.2854 24.4519 50.2671 24.419 50.2344C24.3893 50.2036 24.3718 50.1631 24.3699 50.1204C25.2926 42.5967 32.0233 35.2889 32.0286 34.4521C32.0286 33.7119 30.5902 33.1768 29.271 33.3189C27.666 33.4943 16.748 49.1696 13.2204 52.7218C13.185 52.7577 13.1398 52.7824 13.0904 52.7928C13.041 52.8031 12.9897 52.7986 12.9428 52.7799C12.896 52.7611 12.8557 52.729 12.8271 52.6874C12.7984 52.6459 12.7827 52.5968 12.7819 52.5464C12.4907 43.0212 32.3461 24.734 32.4742 23.2237C32.5584 22.2185 30.2078 21.4695 29.0623 21.5046C20.3739 21.7783 -0.0463867 38.3867 -0.0463867 42.4003C-0.0463867 44.3299 3.35319 46.8523 3.33214 45.6121C3.25847 41.218 22.5999 23.3044 28.7395 23.5956C26.5661 24.9586 7.32112 41.9389 6.50193 54.1286C6.26862 57.7229 9.34017 58.6158 11.4417 58.6158C12.8731 58.6158 14.4676 57.7054 20.9001 47.5645C20.7125 48.3539 20.4862 50.3712 20.5335 50.7957C20.7195 52.5253 23.1964 53.5217 24.7277 53.3305C25.4978 53.234 28.7623 48.2083 31.3182 44.9105C31.2638 47.4926 32.8864 49.6467 36.4298 49.2713C38.091 49.0959 42.2414 43.3914 43.4465 41.1267C43.143 42.395 42.5343 43.9597 42.6325 44.8789C42.6782 45.2911 45.6146 47.1225 45.4217 45.3069C45.3094 44.272 46.1233 41.974 46.6356 39.9672C48.2775 40.4812 48.595 45.4788 51.3929 45.1754L51.4788 45.1438C51.2666 46.3717 51.128 47.3786 51.2543 48.517C51.3192 49.1135 51.6946 49.2889 51.8595 49.745C33.5951 51.978 9.78924 63.0767 4.77407 64.2449C2.9129 64.6765 2.80765 63.7467 2.49365 64.1695C1.6306 65.3045 4.53726 70.074 7.32112 69.6776C15.4342 68.5251 31.8163 55.439 54.5662 51.5763L54.3907 50.5712C54.096 38.6428 61.6091 31.0192 62.3827 31.6595C62.7336 31.9542 62.6722 33.0155 62.3669 34.5767C59.4042 36.9466 56.7378 39.876 57.0834 43.0651C57.1395 43.5913 57.4781 45.3578 59.1884 45.1122C61.6758 44.7614 63.8229 39.1708 64.5702 35.1134C64.9518 34.8114 65.3834 34.5786 65.8455 34.4258C65.421 35.6537 64.9684 36.7325 64.9684 38.4113C64.9684 38.9831 64.9947 42.1143 67.5505 42.1143C68.4276 42.1143 69.2538 41.5004 70.0327 40.6058C70.3589 43.4458 71.6114 44.921 73.2428 45.9718C69.3678 46.3189 65.5201 46.9225 61.7249 47.7785C60.4514 47.9154 60.4391 50.2344 60.9426 50.3554C72.3657 47.5382 78.0141 47.8031 79.2701 47.6172C79.8472 47.5312 79.5192 46.8471 78.9737 45.9981C81.3892 44.8789 81.7803 43.016 81.9557 42.2985C82.2978 40.7636 80.5226 39.9971 80.5928 40.6461ZM58.934 43.7247C58.7902 43.7404 58.6832 43.3738 58.6481 43.0493C58.5095 41.7582 59.9462 39.1498 61.8056 36.7939C60.8777 40.097 59.5954 43.6545 58.934 43.7247ZM67.6259 40.1883C67.3716 40.2251 67.2488 39.7971 67.2313 39.5217C66.9839 35.5976 70.18 31.3578 71.1378 31.0631C71.7921 30.8613 72.0675 31.2385 72.1008 31.5402C72.1219 31.7314 72.4867 31.5805 72.7095 31.7156C72.2679 32.3376 71.858 32.9817 71.4816 33.6452C70.3607 35.559 68.3662 40.0848 67.6259 40.1883Z" fill="white"/>
<path d="M53.6675 12.4935C54.2446 12.7847 55.3392 15.5422 55.1919 16.6315C54.3148 23.0834 38.4378 21.7765 35.7662 28.4283C34.9751 30.3965 33.8156 28.0038 34.1717 27.0688C36.6398 20.5784 51.787 18.7716 52.7536 13.0934C52.8676 12.4338 53.243 12.2795 53.6675 12.4935Z" fill="white"/>
</g>
<defs>
<clipPath id="clip0">
<rect width="82" height="82" fill="white"/>
</clipPath>
</defs>
</svg>
