<svg width="133" height="44" viewBox="0 0 133 44" fill="none" xmlns="http://www.w3.org/2000/svg">
<path d="M53.9668 32.3865L53.9668 32.3864C52.3923 33.1509 50.6446 33.4925 48.8969 33.3778C46.8516 33.3701 44.8199 33.0444 42.8754 32.4124M53.9668 32.3865L42.8748 32.4122C42.875 32.4122 42.8752 32.4123 42.8754 32.4124M53.9668 32.3865L53.9747 32.3825C54.5406 32.0953 55.0143 31.6554 55.3416 31.1127C55.6681 30.5712 55.8356 29.9492 55.8248 29.3174C55.8235 28.8646 55.7219 28.4176 55.5271 28.0085C55.332 27.5985 55.0483 27.2367 54.6965 26.949C53.965 26.3478 53.1248 25.8916 52.2213 25.6048C51.5631 25.3868 50.7008 25.1668 49.7279 24.9187C49.2751 24.8032 48.7984 24.6817 48.3072 24.5513L48.2971 24.5487L48.287 24.5464C46.2086 24.0861 44.1605 23.4991 42.1544 22.7886C40.6691 22.1993 39.3377 21.2825 38.2602 20.1074C37.1545 18.7289 36.5985 16.9933 36.6986 15.2327L36.6995 15.2169L36.6994 15.2011C36.6884 13.4424 37.2069 11.7204 38.1884 10.2572C39.2916 8.66947 40.8586 7.45691 42.6777 6.78411L42.6852 6.78134L42.6926 6.77834C45.0583 5.81656 47.6022 5.36536 50.1563 5.45462L50.1675 5.45501L50.1787 5.4549C52.2258 5.4345 54.2671 5.67558 56.2525 6.17223L56.2545 6.17273C57.9232 6.58282 59.523 7.22974 61.005 8.09296L59.0658 12.9178C56.3474 11.4267 53.3074 10.6038 50.1994 10.5213C48.4593 10.3896 46.719 10.7757 45.1996 11.631L45.1996 11.6309L45.1946 11.6338C44.6404 11.9542 44.1799 12.4138 43.8594 12.9669C43.5388 13.5201 43.3695 14.1474 43.3685 14.7863L43.3685 14.7876C43.3691 15.4424 43.5737 16.0806 43.9536 16.6145C44.3315 17.1455 44.8643 17.5471 45.4792 17.7654C47.2741 18.4784 49.1243 19.0447 51.0115 19.4589C53.0898 19.9192 55.1378 20.5062 57.1437 21.2166C58.6297 21.8062 59.9616 22.7236 61.0394 23.8995C62.1588 25.2683 62.7163 27.0075 62.6001 28.768L62.599 28.786L62.5991 28.804C62.6097 30.5293 62.0907 32.217 61.1112 33.6411C60.0079 35.23 58.4403 36.4433 56.6203 37.1165L56.6203 37.1163L56.6072 37.1215C54.2377 38.0744 51.6945 38.5255 49.1399 38.4459L49.1325 38.4456L49.1251 38.4456C46.508 38.4414 43.9027 38.0955 41.3759 37.4169C39.4697 36.8795 37.6552 36.0635 35.9914 34.9961L38.1945 30.1724M53.9668 32.3865L38.1945 30.1724M42.8754 32.4124C41.2204 31.8778 39.6461 31.1241 38.1945 30.1724M42.8754 32.4124L38.1945 30.1724" fill="white" stroke="white"/>
<path d="M78.3789 30.4599L85.5012 13.5109H91.5597L81.2646 37.8188H74.3609L64.0658 13.5109H70.5412L77.455 30.4551L77.9111 31.5731L78.3789 30.4599Z" fill="white" stroke="white"/>
<path d="M99.7934 36.6192L99.7935 36.6188C97.8323 35.6161 96.1917 34.0887 95.056 32.2089C93.9307 30.2474 93.3389 28.0279 93.3389 25.7695C93.3389 23.5097 93.9314 21.2889 95.0581 19.3265C96.1618 17.427 97.8064 15.8949 99.7847 14.9239L99.7847 14.924L99.7955 14.9185C101.954 13.7933 104.367 13.2366 106.803 13.3014L106.816 13.3018L106.83 13.3014C109.231 13.2365 111.608 13.7932 113.728 14.9168L113.728 14.9169L113.734 14.9202C115.695 15.9232 117.335 17.4506 118.47 19.3301C119.595 21.2916 120.187 23.511 120.187 25.7693C120.187 28.029 119.595 30.2497 118.468 32.212C117.364 34.1116 115.72 35.6437 113.742 36.6148L113.742 36.6146L113.73 36.6207C111.604 37.7339 109.229 38.2902 106.827 38.2372L106.816 38.237L106.805 38.2372C104.369 38.2902 101.958 37.7338 99.7934 36.6192ZM111.82 20.2148L111.81 20.2036L111.8 20.193C111.155 19.5261 110.377 19.0008 109.517 18.6505C108.661 18.302 107.741 18.1343 106.817 18.158C105.878 18.1341 104.944 18.3007 104.072 18.6479C103.195 18.9968 102.4 19.5206 101.734 20.1873L101.734 20.1872L101.727 20.195C101.029 20.9246 100.489 21.7889 100.14 22.7346C99.7937 23.6722 99.6427 24.67 99.6959 25.6674C99.6529 26.6621 99.8084 27.6556 100.153 28.5902C100.501 29.5329 101.035 30.3968 101.723 31.1311L101.729 31.1368L101.734 31.1424C102.4 31.8091 103.195 32.333 104.072 32.6818C104.943 33.0287 105.876 33.1953 106.814 33.1718C107.741 33.206 108.664 33.0429 109.523 32.6935C110.386 32.3419 111.164 31.8098 111.804 31.133L111.941 30.9884V30.9807C112.557 30.276 113.032 29.4599 113.34 28.576C113.667 27.6388 113.799 26.6453 113.728 25.6559C113.799 23.6684 113.118 21.7266 111.82 20.2148Z" fill="white" stroke="white"/>
<path d="M126.127 13.5109H132.483V37.8188H126.127V13.5109Z" fill="white" stroke="white"/>
<path d="M7.70543 35.422L7.70567 35.4217C8.79974 36.0644 10.0116 36.4836 11.2705 36.6548C12.5307 36.8262 13.8127 36.7456 15.0413 36.4177C16.27 36.0897 17.4207 35.5211 18.4259 34.7449C19.4304 33.9693 20.2693 33.0021 20.8937 31.8999C21.5784 30.7182 21.7629 29.1716 21.7496 27.5064C21.7382 26.0939 21.5819 24.5295 21.4231 22.941C21.3938 22.6473 21.3643 22.3528 21.3357 22.0583L21.3331 22.0313L21.3276 22.0048C20.6072 18.5524 20.5244 14.9984 21.0831 11.5167L21.2191 10.6687L20.4125 10.972C17.4052 12.1026 13.933 13.9342 10.9297 15.9681C7.94328 17.9905 5.34914 20.2605 4.17218 22.2892L4.17111 22.2911C2.90117 24.5019 2.56033 27.1222 3.22243 29.5814C3.88452 32.0407 5.49587 34.1397 7.70543 35.422ZM22.6546 8.15868L24.9478 7.54718L23.9547 9.55694C23.9544 9.55748 23.9541 9.55802 23.9538 9.55855C23.1041 11.248 22.805 13.2825 22.7767 15.4175C22.7483 17.5562 22.9919 19.8414 23.2604 22.049C23.5279 24.2631 23.7697 26.3612 23.7416 28.2634C23.7136 30.1646 23.4154 31.8188 22.6418 33.1617C21.0791 35.8549 18.5053 37.8203 15.4862 38.6253C12.4668 39.4305 9.24927 39.0091 6.54167 37.4534C3.83408 35.8977 1.85859 33.3354 1.04953 30.3306C0.240496 27.3258 0.664095 24.1246 2.22677 21.431C3.78111 18.7518 7.34567 15.8365 11.3487 13.3693C15.3367 10.9114 19.6641 8.95612 22.6546 8.15868Z" fill="white" stroke="white"/>
<path d="M7.41661 31.2395C7.43558 31.3043 7.45545 31.3687 7.47622 31.4329C7.41939 31.3744 7.36322 31.3153 7.30772 31.2555C7.14786 30.8704 6.9435 30.5051 6.69875 30.1671C6.64879 30.0168 6.57515 29.8586 6.51043 29.7196C6.49671 29.6901 6.48339 29.6615 6.47078 29.634C6.37436 29.4237 6.27776 29.1985 6.20693 28.9359L6.20299 28.9212L6.19816 28.9069C6.02911 28.4041 5.93549 27.8794 5.92029 27.3496L5.91861 27.2911L5.90341 27.2346L5.87565 27.1315L5.88298 27.1189L5.94198 27.0172L5.94937 26.9001C5.96305 26.6831 5.95737 26.489 5.95328 26.3494C5.95219 26.3121 5.95121 26.2786 5.95075 26.2497C5.94931 26.1604 5.95355 26.12 5.95491 26.107L5.99778 26.0331L6.0088 25.9268C6.06564 25.3785 6.21834 24.8444 6.45995 24.3485L7.25681 22.975C7.36562 22.9227 7.46707 22.8556 7.55814 22.7753C7.68756 22.6613 7.79311 22.5232 7.86903 22.3691C7.89098 22.3512 7.92014 22.3315 7.97643 22.2945C7.97864 22.2931 7.9809 22.2916 7.98322 22.2901C8.03091 22.2588 8.10212 22.2121 8.16887 22.1575C8.23914 22.1 8.32607 22.017 8.39457 21.9017C8.59172 21.5836 8.87977 21.3311 9.22208 21.1765L9.27961 21.1505L9.3289 21.1112C9.61557 20.8822 9.92466 20.6848 10.2507 20.5215C10.0652 20.776 9.87323 21.0259 9.675 21.2709L9.65062 21.301L9.63118 21.3345L8.40255 23.4523C8.26316 23.6926 8.18639 23.961 8.12826 24.1642C8.12582 24.1727 8.12341 24.1811 8.12103 24.1894C8.05505 24.4196 8.00631 24.5789 7.93113 24.7085L7.82981 24.8831L7.87846 25.0786C7.88987 25.1245 7.89083 25.1722 7.88138 25.2182C7.87192 25.2643 7.85227 25.3077 7.82387 25.3452L7.80535 25.3696L7.78997 25.3961C7.72092 25.5152 7.69123 25.6345 7.67598 25.7256C7.66178 25.8104 7.65668 25.8951 7.65325 25.9519L7.65277 25.9599C7.64869 26.0271 7.64608 26.0622 7.64139 26.0902C7.64083 26.0935 7.64031 26.0963 7.63986 26.0985L7.60763 26.154L7.59128 26.2337L7.46648 26.8417L7.39571 26.9636L7.2916 27.1431L7.34543 27.343L7.40645 27.5696C7.39607 27.8132 7.40897 28.0148 7.42045 28.194L7.42067 28.1975C7.4335 28.3979 7.44424 28.5696 7.43131 28.7829L7.4265 28.8621L7.44661 28.9389C7.47181 29.0351 7.48298 29.1808 7.49687 29.3977C7.49734 29.4051 7.49782 29.4127 7.49831 29.4204C7.50961 29.598 7.52469 29.8351 7.57611 30.0339C7.63773 30.3148 7.59565 30.6083 7.45769 30.8608L7.3587 31.0419L7.41661 31.2395Z" fill="white" stroke="white"/>
<path d="M129.186 5.47321C130.989 5.47321 132.413 6.6226 132.413 8.2491C132.413 9.87442 130.99 11.0186 129.186 11.0186C127.389 11.0186 126 9.88065 126 8.2491C126 6.61636 127.39 5.47321 129.186 5.47321Z" fill="white" stroke="white"/>
</svg>
