<svg width="74" height="20" viewBox="0 0 74 20" fill="none" xmlns="http://www.w3.org/2000/svg">
<path d="M4.99199 2.92307L2.91699 1.88461L4.30033 3.61538L4.99199 2.92307Z" fill="white"/>
<path d="M4.99199 16.0769L2.91699 17.1154L4.30033 15.3846L4.99199 16.0769Z" fill="white"/>
<path fill-rule="evenodd" clip-rule="evenodd" d="M42.104 18.8825C41.7798 18.6125 41.5204 18.14 41.3907 17.87L42.4282 17.3975C42.4931 17.5325 42.6228 17.735 42.7524 17.9375C43.0118 18.2075 43.4009 18.4775 43.79 18.4775C44.179 18.4775 44.6329 18.275 44.8923 17.9375C45.0868 17.6 45.2165 17.2625 45.2165 16.79V16.385C44.4384 17.3975 42.8173 17.2625 41.9095 16.1825C40.9368 15.1025 40.9368 13.28 41.9095 12.2C42.8821 11.1875 44.3087 11.0525 45.1517 11.9975V11.525H46.254V16.5875C46.254 17.87 45.8001 18.6125 45.2165 19.085C44.8274 19.4225 44.2439 19.5575 43.7251 19.5575C43.1415 19.49 42.5579 19.2875 42.104 18.8825ZM69.2735 19.1525L70.3759 16.4525L68.4306 11.795H69.5329L70.8946 15.1025L72.2564 11.795H73.3587L70.3759 19.1525H69.2735ZM64.0212 16.5875C63.697 16.25 63.5673 15.7775 63.5673 15.305C63.5673 14.9 63.697 14.495 63.9563 14.225C64.4102 13.7525 65.0587 13.55 65.772 13.55C66.2259 13.55 66.6149 13.6175 66.9392 13.82C66.9392 13.01 66.2907 12.6725 65.772 12.6725C65.3181 12.6725 64.8642 12.9425 64.6696 13.415L63.697 13.01C63.8915 12.5375 64.4103 11.66 65.7071 11.66C66.3556 11.66 67.004 11.8625 67.3931 12.335C67.7821 12.8075 67.9118 13.3475 67.9118 14.09V16.925H66.8095V16.4525C66.6798 16.655 66.4204 16.79 66.2259 16.925C65.9665 17.06 65.6423 17.1275 65.3181 17.1275C64.929 17.06 64.3454 16.925 64.0212 16.5875ZM29.4595 14.1575C29.4595 12.8075 30.4321 11.3225 32.1829 11.3225C33.8688 11.3225 34.9063 12.8075 34.9063 14.1575C34.9063 15.5075 33.9337 16.9925 32.1829 16.9925C30.4321 16.9925 29.4595 15.5075 29.4595 14.1575ZM35.2954 14.1575C35.2954 12.8075 36.2681 11.3225 38.0189 11.3225C39.7048 11.3225 40.7423 12.8075 40.7423 14.1575C40.7423 15.5075 39.7696 16.9925 38.0189 16.9925C36.3329 16.9925 35.2954 15.5075 35.2954 14.1575ZM22.1321 15.6425C20.511 13.955 20.5759 11.1875 22.197 9.43248C23.0399 8.55498 24.0774 8.14998 25.1798 8.14998C26.2173 8.14998 27.2548 8.55498 28.0329 9.36498L27.2548 10.2425C26.0876 9.02748 24.2071 9.09498 23.1048 10.31C21.9376 11.5925 21.9376 13.55 23.1048 14.8325C24.272 16.115 26.2173 16.1825 27.3845 14.9C27.7735 14.495 27.9032 13.955 27.9681 13.415H25.2446V12.2H29.0704C29.1353 12.47 29.1353 12.8075 29.1353 13.145C29.1353 14.1575 28.7462 15.17 28.0978 15.845C27.3845 16.5875 26.347 16.9925 25.3095 16.9925C24.1423 16.925 22.9751 16.52 22.1321 15.6425ZM49.561 16.115C48.5884 15.035 48.5884 13.2125 49.561 12.065C50.5337 10.985 52.1548 10.985 53.0626 12.065C53.3868 12.4025 53.5814 12.875 53.7759 13.3475L50.2095 14.9C50.404 15.3725 50.8579 15.7775 51.5064 15.7775C52.0899 15.7775 52.479 15.575 52.8681 14.9675L53.8407 15.6425C53.711 15.7775 53.5814 15.9125 53.5165 16.0475C52.4142 17.195 50.5337 17.195 49.561 16.115ZM56.3048 16.925V9.43248H58.6392C60.0009 9.43248 61.1032 10.445 61.1032 11.66C61.1032 12.875 60.1306 13.8875 58.8985 13.8875H57.472V16.8575H56.3048V16.925ZM61.7517 16.925V9.43248H62.854V16.925H61.7517ZM47.097 16.79V8.41998H48.2642V16.79H47.097ZM66.8743 14.6975C66.6149 14.495 66.2259 14.4275 65.8368 14.4275C65.0587 14.4275 64.6048 14.8325 64.6048 15.305C64.6048 15.7775 65.0587 16.0475 65.5126 16.0475C66.161 16.0475 66.8743 15.5075 66.8743 14.6975ZM33.6743 14.1575C33.6743 13.3475 33.1556 12.47 32.1829 12.47C31.2103 12.47 30.6915 13.3475 30.6915 14.1575C30.6915 14.9675 31.2103 15.845 32.1829 15.845C33.0907 15.845 33.6743 14.9675 33.6743 14.1575ZM39.5103 14.1575C39.5103 13.3475 38.9915 12.47 38.0189 12.47C37.0462 12.47 36.5274 13.3475 36.5274 14.1575C36.5274 14.9675 37.0462 15.845 38.0189 15.845C38.9915 15.845 39.5103 14.9675 39.5103 14.1575ZM45.2813 14.63C45.2813 14.5625 45.2814 14.495 45.3462 14.4275C45.3462 14.36 45.3462 14.225 45.3462 14.1575C45.3462 14.09 45.3462 13.955 45.3462 13.8875V13.82C45.3462 13.7525 45.2813 13.6175 45.2813 13.55C45.0868 12.875 44.5032 12.4025 43.9196 12.4025C43.1415 12.4025 42.4931 13.2125 42.4931 14.09C42.4931 15.035 43.1415 15.7775 43.9845 15.7775C44.5032 15.845 45.022 15.3725 45.2813 14.63ZM50.0149 14.0225L52.4142 12.9425C52.1548 12.47 51.7657 12.335 51.4415 12.335C50.4689 12.4025 49.8852 13.4825 50.0149 14.0225ZM59.936 11.7275C59.936 11.0525 59.4173 10.58 58.704 10.58H57.4071V12.9425H58.7688C59.4173 12.9425 59.936 12.4025 59.936 11.7275Z" fill="white"/>
<path fill-rule="evenodd" clip-rule="evenodd" d="M70.1164 17.8026H70.0518V17.7351H70.1164H70.0518V17.8026H70.1164Z" fill="white"/>
<path fill-rule="evenodd" clip-rule="evenodd" d="M70.2457 17.8026C70.2457 17.7351 70.2457 17.7351 70.2457 17.8026C70.1811 17.7351 70.1811 17.7351 70.2457 17.8026C70.1811 17.8026 70.1811 17.8026 70.2457 17.8026ZM70.2457 17.7351C70.2457 17.8026 70.2457 17.8026 70.2457 17.7351C70.2457 17.8026 70.1811 17.8026 70.2457 17.7351C70.1811 17.7351 70.2457 17.7351 70.2457 17.7351Z" fill="white"/>
<path fill-rule="evenodd" clip-rule="evenodd" d="M70.3107 17.7351H70.2461H70.3107V17.8026V17.7351Z" fill="white"/>
<path d="M21.2246 2.81758C21.2246 1.60258 22.0676 0.860077 23.1051 0.860077C23.8184 0.860077 24.2723 1.19758 24.5965 1.67008L24.0777 2.00758C23.8832 1.73758 23.559 1.53508 23.1051 1.53508C22.3918 1.53508 21.873 2.07508 21.873 2.88508C21.873 3.69508 22.3918 4.23508 23.1051 4.23508C23.4941 4.23508 23.8184 4.03258 23.9481 3.89758V3.29008H22.9105V2.68258H24.6613V4.10008C24.3371 4.50508 23.8184 4.77508 23.1699 4.77508C22.0676 4.77508 21.2246 3.96508 21.2246 2.81758Z" fill="white"/>
<path d="M25.4395 4.70751V0.927505H27.9035V1.53501H26.0231V2.48001H27.8387V3.08751H26.0231V4.16751H27.9035V4.77501L25.4395 4.70751Z" fill="white"/>
<path d="M29.7186 4.70751V1.53501H28.6162V0.927505H31.4693V1.53501H30.367V4.70751H29.7186Z" fill="white"/>
<path d="M33.6738 4.70751V0.927505H34.3223V4.70751H33.6738Z" fill="white"/>
<path d="M36.073 4.70751V1.53501H34.9707V0.927505H37.8238V1.53501H36.7215V4.70751H36.073Z" fill="white"/>
<path d="M39.8994 2.81758C39.8994 1.67008 40.6775 0.860077 41.7799 0.860077C42.8822 0.860077 43.6604 1.67008 43.6604 2.81758C43.6604 3.96508 42.8822 4.77508 41.7799 4.77508C40.6775 4.77508 39.8994 3.89758 39.8994 2.81758ZM42.9471 2.81758C42.9471 2.00758 42.4932 1.46758 41.715 1.46758C41.0018 1.46758 40.483 2.07508 40.483 2.81758C40.483 3.62758 40.9369 4.16758 41.715 4.16758C42.4932 4.16758 42.9471 3.56008 42.9471 2.81758Z" fill="white"/>
<path d="M46.9019 4.70751L45.0215 2.00751V4.70751H44.373V0.927505H45.0215L46.9019 3.56001V0.927505H47.5504V4.70751H46.9019Z" fill="white"/>
<path d="M16.2016 8.8872L12.978 7.02054C12.9607 7.0119 12.9427 7.00557 12.9244 7.00103L9.80764 5.20723L2.90744 1.66059C2.88134 1.65014 2.85525 1.64286 2.82952 1.63856C2.80149 1.63226 2.77239 1.63118 2.74276 1.63598C2.70565 1.64025 2.67062 1.65177 2.639 1.67042C2.55165 1.70764 2.50781 1.80397 2.50781 1.90055V17.1004C2.50781 17.2071 2.56111 17.2871 2.64102 17.3404C2.66767 17.3671 2.72093 17.3671 2.77423 17.3671C2.82753 17.3671 2.85414 17.3671 2.90744 17.3404L9.80764 13.5004L12.8405 11.7402C12.8419 11.7403 12.8433 11.7404 12.8448 11.7404C12.8981 11.7404 12.9247 11.7138 12.978 11.6604C13.0013 11.6527 13.0219 11.64 13.04 11.6246L16.2017 9.79379C16.3615 9.7138 16.4681 9.52712 16.4681 9.34045C16.4681 9.15377 16.3615 8.99386 16.2016 8.8872ZM3.04065 2.5139L10.3634 9.36368L3.04065 16.4489V2.5139ZM12.4185 7.31388L11.4891 8.25919L10.7655 8.99272L7.55641 6.00722L4.37529 3.03543L9.54122 5.66057L12.4185 7.31388ZM9.54122 13.0471L4.42192 15.8733L9.2748 11.1778L10.7655 9.7417L12.4037 11.4024L9.54122 13.0471ZM12.8895 11.1168L11.1639 9.36737L12.8994 7.60795L15.9353 9.36718L12.8895 11.1168Z" stroke="white"/>
</svg>
