<svg width="111" height="34" viewBox="0 0 111 34" fill="none" xmlns="http://www.w3.org/2000/svg">
<path d="M46.8256 25.1313L46.8257 25.1313L46.8334 25.1275C47.3025 24.8982 47.698 24.5457 47.9723 24.1075C48.2461 23.6702 48.3875 23.1663 48.3786 22.653C48.3774 22.2836 48.2912 21.9197 48.127 21.5874C47.9624 21.2544 47.7239 20.9622 47.4301 20.7307C46.8334 20.2583 46.149 19.9006 45.4141 19.6758C44.8831 19.5065 44.1866 19.3354 43.4043 19.1432C43.0417 19.0541 42.6607 18.9605 42.2692 18.8605L42.2595 18.858L42.2497 18.8559C40.586 18.501 38.9466 18.0485 37.341 17.5009C36.1632 17.0505 35.1089 16.3511 34.2565 15.4565C33.3888 14.4133 32.955 13.1038 33.0332 11.7782L33.0342 11.7619L33.0341 11.7455C33.0254 10.4139 33.4328 9.10853 34.2065 7.99735C35.0778 6.78994 36.3175 5.86487 37.7604 5.3509L37.7677 5.3483L37.7749 5.34547C39.6615 4.60672 41.6911 4.25992 43.729 4.32852L43.7398 4.32888L43.7507 4.32878C45.3863 4.31308 47.0171 4.4986 48.6031 4.88073L48.6051 4.88119C49.9029 5.18838 51.1481 5.66844 52.3044 6.30647L50.8329 9.83256C48.6622 8.70301 46.2426 8.08001 43.7705 8.01654C42.3597 7.91406 40.9477 8.21558 39.7135 8.88468L39.7135 8.88465L39.7086 8.88738C39.2499 9.14279 38.8664 9.51049 38.5984 9.95584C38.3304 10.4014 38.1879 10.9082 38.1871 11.4256L38.1871 11.4269C38.1876 11.961 38.361 12.4797 38.6801 12.9116C38.997 13.3404 39.4413 13.6619 39.9503 13.8363C41.3942 14.3886 42.8825 14.8273 44.4004 15.1482C46.064 15.503 47.7033 15.9556 49.3088 16.5031C50.4873 16.9538 51.5421 17.6538 52.3949 18.5492C53.2731 19.5847 53.7079 20.8963 53.6171 22.2211L53.6158 22.2398L53.616 22.2585C53.6243 23.5638 53.2168 24.8425 52.4449 25.9235C51.5735 27.132 50.3332 28.0579 48.8894 28.5723L48.8893 28.5721L48.8766 28.577C46.9866 29.309 44.9575 29.6557 42.9189 29.5946L42.9118 29.5944L42.9047 29.5943C40.8121 29.5911 38.7291 29.3247 36.7091 28.8023C35.2214 28.3983 33.8041 27.7896 32.5015 26.9963L34.1742 23.4689C35.3218 24.1832 36.5624 24.7503 37.8645 25.1555C39.4323 25.6463 41.07 25.8993 42.7187 25.9056C44.1337 25.9946 45.5492 25.7281 46.8256 25.1313Z" fill="#2D8BF9" stroke="#2D8BF9"/>
<path d="M66.4627 23.5875L72.1493 10.5539H76.7888L68.6289 29.11H63.2111L55.0512 10.5539H60.0244L65.544 23.5826L65.9976 24.6534L66.4627 23.5875Z" fill="#2D8BF9" stroke="#2D8BF9"/>
<path d="M83.5929 28.1937L83.5936 28.1918C82.0355 27.4245 80.7348 26.2573 79.8354 24.8239C78.9437 23.3266 78.4756 21.634 78.4756 19.9128C78.4756 18.1903 78.9445 16.4963 79.8375 14.998C80.7109 13.5505 82.014 12.3801 83.5852 11.6373L83.5853 11.6374L83.5958 11.6321C85.3142 10.7695 87.2356 10.3422 89.1769 10.392L89.1898 10.3923L89.2027 10.392C91.1157 10.3421 93.0085 10.7694 94.6956 11.6306L94.6955 11.6306L94.7019 11.6338C96.2595 12.4013 97.5597 13.5685 98.4587 15.0017C99.3504 16.499 99.8184 18.1916 99.8184 19.9127C99.8184 21.6352 99.3496 23.3291 98.4565 24.8274C97.5833 26.2748 96.2803 27.4453 94.7092 28.188L94.7091 28.1879L94.6977 28.1936C93.0059 29.047 91.1139 29.474 89.2003 29.4333L89.1898 29.4331L89.1792 29.4333C87.2374 29.474 85.3168 29.0469 83.5937 28.1921L83.5929 28.1937ZM93.2731 15.5395L93.2633 15.5284L93.2527 15.518C92.7248 14.9922 92.0894 14.5792 91.3879 14.3041C90.6905 14.0307 89.9422 13.8992 89.1903 13.9175C88.427 13.899 87.6673 14.0296 86.9573 14.3018C86.2431 14.5756 85.5935 14.9873 85.0492 15.5124L85.0491 15.5123L85.0415 15.52C84.4714 16.0941 84.029 16.7754 83.7426 17.5225C83.4595 18.2612 83.3354 19.0478 83.378 19.8346C83.3438 20.6188 83.4715 21.4016 83.7536 22.1376C84.0388 22.8819 84.4759 23.5626 85.0379 24.1403L85.0435 24.146L85.0492 24.1515C85.5935 24.6766 86.2431 25.0882 86.9573 25.362C87.6664 25.6339 88.4251 25.7645 89.1874 25.7464C89.9413 25.7729 90.693 25.645 91.3924 25.3708C92.0969 25.0946 92.733 24.676 93.2568 24.1421L93.3999 23.9962V23.9874C93.8888 23.4403 94.2676 22.8086 94.5152 22.1245C94.7825 21.3861 94.891 20.603 94.8339 19.8226C94.8904 18.255 94.3317 16.7268 93.2731 15.5395Z" fill="#2D8BF9" stroke="#2D8BF9"/>
<path d="M104.782 10.5539H109.684V29.11H104.782V10.5539Z" fill="#2D8BF9" stroke="#2D8BF9"/>
<path d="M23.3093 5.99001L21.6845 6.40729C19.2986 7.02006 15.837 8.52564 12.6438 10.4211C9.4345 12.3262 6.59708 14.5664 5.36616 16.6099C4.12907 18.6637 3.79261 21.1061 4.43423 23.4013C5.07597 25.6968 6.64384 27.6567 8.79507 28.8471C10.9463 30.0376 13.5011 30.3591 15.8961 29.744C18.2903 29.1291 20.3288 27.6289 21.5659 25.5755C22.1718 24.5625 22.4097 23.3069 22.4321 21.8465C22.4545 20.3853 22.2616 18.7714 22.0468 17.0592L23.3093 5.99001ZM23.3093 5.99001L22.6159 7.34146C22.6156 7.34201 22.6153 7.34256 22.615 7.3431C21.9215 8.67136 21.6807 10.2634 21.6579 11.9202C21.635 13.581 21.8314 15.3533 22.0468 17.0591L23.3093 5.99001ZM9.61505 27.4654L9.61523 27.4652C10.5036 27.9677 11.4878 28.2957 12.5104 28.4296C13.5344 28.5637 14.5767 28.5008 15.5763 28.2438C16.576 27.9868 17.513 27.541 18.332 26.9319C19.1504 26.3233 19.8342 25.5642 20.3432 24.6989C20.9093 23.7575 21.0566 22.5364 21.0458 21.2459C21.0367 20.1488 20.9106 18.9341 20.7832 17.7068C20.7597 17.4802 20.7362 17.2531 20.7133 17.0262L20.7106 16.9996L20.7049 16.9735C20.1297 14.3183 20.0637 11.5855 20.5096 8.90879L20.6467 8.08586L19.8381 8.37866C17.416 9.25569 14.6223 10.6752 12.2061 12.2512C9.80765 13.8156 7.70662 15.5819 6.74767 17.1738L6.74655 17.1757C5.71122 18.9116 5.43445 20.9674 5.9731 22.8944C6.51163 24.8209 7.82137 26.4629 9.61505 27.4654Z" fill="#2D8BF9" stroke="#2D8BF9"/>
<path d="M9.38268 23.8L9.34246 23.8708C9.23342 23.6554 9.10555 23.4493 8.96019 23.2545C8.91767 23.1353 8.85835 23.0127 8.80896 22.9107C8.7982 22.8884 8.7879 22.8671 8.77835 22.8471C8.70167 22.686 8.62708 22.5181 8.57259 22.3235L8.56858 22.3092L8.56368 22.2951C8.43137 21.9161 8.35823 21.521 8.34636 21.1224L8.34463 21.0645L8.32908 21.0089L8.31918 20.9735L8.36181 20.9027L8.3695 20.7852C8.38086 20.6117 8.37606 20.4545 8.37277 20.3468C8.37192 20.319 8.37117 20.2945 8.37082 20.2739C8.37023 20.2385 8.37066 20.2155 8.37141 20.2007L8.40531 20.1444L8.4168 20.0377C8.46083 19.6286 8.57883 19.2303 8.76527 18.8607L9.38416 17.8332C9.46831 17.7911 9.54733 17.739 9.61928 17.6779C9.72748 17.5861 9.81717 17.476 9.88397 17.3534C9.89618 17.3451 9.91378 17.3338 9.94153 17.3162C9.94349 17.315 9.94553 17.3137 9.94764 17.3123C9.98551 17.2884 10.0473 17.2494 10.1059 17.2033C10.168 17.1543 10.2491 17.0805 10.3139 16.9757C10.4591 16.7506 10.6714 16.571 10.9251 16.4607L10.9845 16.4349L11.0355 16.3956C11.1273 16.325 11.2221 16.2584 11.3195 16.1958C11.2715 16.2549 11.2229 16.3136 11.1739 16.372L11.1484 16.4024L11.128 16.4362L10.1423 18.0726C10.0226 18.2714 9.95731 18.4914 9.91127 18.6466C9.90903 18.6541 9.90683 18.6615 9.90467 18.6688C9.85095 18.8493 9.81547 18.958 9.76406 19.0433L9.65847 19.2186L9.70871 19.4131C9.71397 19.4334 9.71419 19.4537 9.7102 19.4724C9.70621 19.4911 9.69802 19.5084 9.68631 19.5233L9.66692 19.5479L9.65081 19.5747C9.5853 19.6834 9.55813 19.7907 9.54461 19.8685C9.53215 19.9402 9.52773 20.0111 9.52502 20.0545C9.52487 20.0569 9.52473 20.0592 9.52459 20.0614C9.52214 20.1003 9.5205 20.122 9.5188 20.1366L9.49453 20.1769L9.47745 20.257L9.38128 20.7083L9.33449 20.7859L9.22602 20.966L9.28157 21.1647L9.32616 21.3242C9.31889 21.5108 9.3292 21.6659 9.33812 21.8002L9.33839 21.8042C9.3487 21.9593 9.3568 22.0857 9.3469 22.2428L9.34195 22.3215L9.36256 22.3973C9.37953 22.4596 9.38815 22.5605 9.39953 22.7316C9.39996 22.7382 9.40041 22.745 9.40086 22.7519C9.40971 22.8863 9.4223 23.0777 9.46584 23.241C9.50904 23.4328 9.47869 23.6308 9.38268 23.8ZM9.51615 20.1538C9.51614 20.1538 9.51623 20.1533 9.51646 20.1524L9.51615 20.1538Z" fill="#2D8BF9" stroke="#2D8BF9"/>
<path d="M107.137 4.34296C108.566 4.34296 109.628 5.21399 109.628 6.37433C109.628 7.53352 108.567 8.40074 107.137 8.40074C105.715 8.40074 104.681 7.53964 104.681 6.37433C104.681 5.20785 105.717 4.34296 107.137 4.34296Z" fill="#2D8BF9" stroke="#2D8BF9"/>
</svg>
