<svg width="22" height="22" viewBox="0 0 22 22" fill="none" xmlns="http://www.w3.org/2000/svg">
<g clip-path="url(#clip0)">
<rect x="0.5" y="0.5" width="21.0001" height="21" stroke="#2D8BF9"/>
<path d="M9.04852 6.48712C9.04852 6.85837 9.04852 8.51544 9.04852 8.51544H7.5625V10.9957H9.04852V18.3661H12.1011V10.9959H14.1495C14.1495 10.9959 14.3414 9.80663 14.4344 8.5063C14.1678 8.5063 12.1127 8.5063 12.1127 8.5063C12.1127 8.5063 12.1127 7.06337 12.1127 6.81045C12.1127 6.55699 12.4455 6.21605 12.7744 6.21605C13.1028 6.21605 13.7958 6.21605 14.4376 6.21605C14.4376 5.87836 14.4376 4.71157 14.4376 3.63397C13.5808 3.63397 12.6059 3.63397 12.1763 3.63397C8.97306 3.6338 9.04852 6.11651 9.04852 6.48712Z" fill="#2D8BF9"/>
</g>
<defs>
<clipPath id="clip0">
<rect width="22" height="22" fill="white"/>
</clipPath>
</defs>
</svg>
