<svg width="22" height="22" viewBox="0 0 22 22" fill="none" xmlns="http://www.w3.org/2000/svg">
<path d="M11.0002 16.3103C7.86299 16.3103 5.31055 13.6728 5.31055 10.431C5.31055 7.18922 7.86299 4.5517 11.0002 4.5517C14.1374 4.5517 16.6899 7.18922 16.6899 10.431C16.6899 13.6728 14.1374 16.3103 11.0002 16.3103ZM11.0002 5.69418C8.47252 5.69418 6.41617 7.81907 6.41617 10.431C6.41617 13.0429 8.47252 15.1678 11.0002 15.1678C13.5279 15.1678 15.5842 13.0429 15.5842 10.431C15.5842 7.81907 13.5279 5.69418 11.0002 5.69418Z" fill="#2D8BF9" stroke="white" stroke-width="0.1"/>
<path d="M18.0149 5.51255C17.8221 5.51255 17.6268 5.46198 17.4481 5.3553C17.1849 5.19828 16.9968 4.94473 16.9182 4.64153C16.8396 4.33811 16.8798 4.02106 17.0317 3.74904C17.1836 3.47725 17.4289 3.28282 17.7224 3.20154C18.0157 3.12002 18.3222 3.16182 18.5854 3.31884C18.8486 3.47587 19.0369 3.72941 19.1155 4.03284C19.1942 4.33603 19.1537 4.65285 19.0018 4.92487C18.7914 5.30173 18.4083 5.51255 18.0149 5.51255Z" fill="#2D8BF9"/>
<rect x="0.5" y="0.5" width="21" height="21" stroke="#2D8BF9"/>
</svg>
