<svg width="69" height="20" viewBox="0 0 69 20" fill="none" xmlns="http://www.w3.org/2000/svg">
<path d="M11.2967 9.36624C11.2967 7.29288 12.9624 6.28964 13.0264 6.22275C12.0655 4.81822 10.6561 4.61757 10.1436 4.55069C8.92642 4.41692 7.70923 5.2864 7.13266 5.2864C6.49204 5.2864 5.5311 4.55069 4.5061 4.55069C3.16079 4.55069 1.9436 5.35328 1.23891 6.62405C-0.170462 9.16559 0.854539 12.911 2.19985 14.9844C2.90454 15.9876 3.67329 17.1246 4.69829 17.0577C5.72329 16.9909 6.10767 16.3889 7.32485 16.3889C8.54204 16.3889 8.86235 17.0577 9.95142 17.0577C11.0405 17.0577 11.7452 16.0545 12.3858 15.0513C13.1545 13.9143 13.4749 12.7773 13.4749 12.7104C13.4108 12.6435 11.2967 11.8409 11.2967 9.36624Z" fill="white"/>
<path d="M9.31079 3.21309C9.82329 2.47738 10.2077 1.54102 10.1436 0.537781C9.37485 0.604663 8.34985 1.07284 7.83735 1.80855C7.32485 2.41049 6.87641 3.41373 7.00454 4.35009C7.83735 4.41697 8.73423 3.88191 9.31079 3.21309Z" fill="white"/>
<path d="M25.9031 16.9241H24.4937L23.725 14.3825H21.0344L20.3297 16.9241H18.9844L21.675 8.2962H23.3406L25.9031 16.9241ZM23.4687 13.3124L22.7641 11.0384C22.7 10.8377 22.5719 10.2358 22.3156 9.43321C22.2516 9.76762 22.1234 10.3696 21.9313 11.0384L21.2266 13.3124H23.4687Z" fill="white"/>
<path d="M32.7578 13.7806C32.7578 14.8507 32.5016 15.6533 31.925 16.3221C31.4125 16.8571 30.8359 17.1247 30.0672 17.1247C29.2984 17.1247 28.7219 16.8571 28.4016 16.2552V19.5325H27.0563V12.8442C27.0563 12.1754 27.0562 11.5065 26.9922 10.7708H28.1453L28.2094 11.7741C28.6578 11.0384 29.2984 10.6371 30.1953 10.6371C30.9 10.6371 31.4766 10.9046 31.925 11.5065C32.5016 12.0416 32.7578 12.7773 32.7578 13.7806ZM31.4125 13.7806C31.4125 13.1786 31.2844 12.6435 31.0281 12.3091C30.7719 11.9078 30.3875 11.7072 29.875 11.7072C29.5547 11.7072 29.2344 11.841 28.9781 12.0416C28.7219 12.2423 28.5297 12.5767 28.4656 12.9111C28.4016 13.1117 28.4016 13.2455 28.4016 13.3124V14.3825C28.4016 14.8507 28.5297 15.1851 28.7859 15.5195C29.0422 15.8539 29.4266 15.9877 29.8109 15.9877C30.3234 15.9877 30.7078 15.787 30.9641 15.3857C31.2844 14.9844 31.4125 14.4494 31.4125 13.7806Z" fill="white"/>
<path d="M39.6123 13.7806C39.6123 14.8507 39.356 15.6533 38.7795 16.3221C38.267 16.8571 37.6904 17.1247 36.9217 17.1247C36.1529 17.1247 35.5764 16.8571 35.256 16.2552V19.5325H33.9107V12.8442C33.9107 12.1754 33.9107 11.5065 33.8467 10.7708H34.9998L35.0639 11.7741C35.5123 11.0384 36.1529 10.6371 37.0498 10.6371C37.7545 10.6371 38.331 10.9046 38.7795 11.5065C39.356 12.0416 39.6123 12.7773 39.6123 13.7806ZM38.267 13.7806C38.267 13.1786 38.1388 12.6435 37.8826 12.3091C37.6263 11.9078 37.242 11.7072 36.7295 11.7072C36.4092 11.7072 36.0889 11.841 35.8326 12.0416C35.5764 12.2423 35.3842 12.5767 35.3201 12.9111C35.256 13.1117 35.256 13.2455 35.256 13.3124V14.3825C35.256 14.8507 35.3842 15.1851 35.6404 15.5195C35.8967 15.8539 36.281 15.9877 36.6654 15.9877C37.1779 15.9877 37.5623 15.787 37.8185 15.3857C38.1388 14.9844 38.267 14.4494 38.267 13.7806Z" fill="white"/>
<path d="M47.3002 14.5162C47.3002 15.2519 47.0439 15.8539 46.5955 16.322C46.083 16.8571 45.3143 17.0577 44.3533 17.0577C43.4564 17.0577 42.7518 16.8571 42.2393 16.5227L42.5596 15.3857C43.1361 15.7201 43.7768 15.9207 44.4814 15.9207C44.9939 15.9207 45.3783 15.787 45.6346 15.5863C45.8908 15.3188 46.0189 15.0513 46.0189 14.65C46.0189 14.3156 45.8908 13.9811 45.6986 13.7805C45.4424 13.513 45.058 13.3123 44.5455 13.1117C43.0721 12.5766 42.3674 11.7071 42.3674 10.637C42.3674 9.9013 42.6236 9.36624 43.1361 8.89806C43.6486 8.42988 44.2893 8.22923 45.1861 8.22923C45.9549 8.22923 46.5314 8.363 47.0439 8.63053L46.7236 9.76754C46.2752 9.50001 45.7627 9.36624 45.1221 9.36624C44.6736 9.36624 44.2893 9.5 44.033 9.70065C43.8408 9.9013 43.7127 10.1688 43.7127 10.5032C43.7127 10.8377 43.8408 11.1052 44.0971 11.3727C44.2893 11.5734 44.7377 11.774 45.3143 12.0415C46.0189 12.3091 46.5314 12.7104 46.9158 13.1117C47.108 13.4461 47.3002 13.9143 47.3002 14.5162Z" fill="white"/>
<path d="M51.6564 11.7739H50.183V14.7836C50.183 15.5193 50.4392 15.9206 50.9517 15.9206C51.208 15.9206 51.4002 15.9206 51.5283 15.8537L51.5924 16.9239C51.3361 17.0576 51.0158 17.0576 50.5674 17.0576C50.0549 17.0576 49.6064 16.9239 49.3502 16.5894C49.0299 16.255 48.9017 15.72 48.9017 14.9174V11.7739H48.0049V10.7038H48.9017V9.56678L50.183 9.16548V10.7038H51.6564V11.7739Z" fill="white"/>
<path d="M58.2545 13.7805C58.2545 14.7169 57.9983 15.5195 57.4858 16.1214C56.9092 16.7234 56.2045 17.0578 55.3076 17.0578C54.4107 17.0578 53.7061 16.7234 53.1936 16.1214C52.6811 15.5195 52.4248 14.7838 52.4248 13.8474C52.4248 12.911 52.6811 12.1084 53.2576 11.5065C53.7701 10.9046 54.5389 10.5701 55.4358 10.5701C56.3326 10.5701 57.0373 10.9046 57.5498 11.5065C57.9983 12.1084 58.2545 12.8442 58.2545 13.7805ZM56.8451 13.8474C56.8451 13.2455 56.717 12.7773 56.4608 12.376C56.2045 11.9078 55.7561 11.6403 55.2436 11.6403C54.7311 11.6403 54.2826 11.9078 54.0264 12.376C53.7701 12.7773 53.642 13.3123 53.642 13.8474C53.642 14.4493 53.7701 14.9175 54.0264 15.3188C54.2826 15.787 54.7311 16.0545 55.2436 16.0545C55.7561 16.0545 56.1404 15.787 56.4608 15.3188C56.717 14.9175 56.8451 14.3825 56.8451 13.8474Z" fill="white"/>
<path d="M62.5464 11.9078C62.4183 11.9078 62.2902 11.8409 62.098 11.8409C61.6496 11.8409 61.2652 12.0416 61.009 12.376C60.8168 12.7104 60.6886 13.1117 60.6886 13.5799V16.8571H59.3434V12.5767C59.3434 11.8409 59.3434 11.239 59.2793 10.6371H60.4324L60.4965 11.8409H60.5605C60.6886 11.4397 60.9449 11.1052 61.2011 10.8377C61.5214 10.6371 61.8418 10.5033 62.1621 10.5033C62.2902 10.5033 62.4183 10.5033 62.4824 10.5033V11.9078H62.5464Z" fill="white"/>
<path d="M68.4402 13.513C68.4402 13.7805 68.4403 13.9812 68.3762 14.1149H64.4043C64.4043 14.7169 64.5965 15.1851 64.9809 15.5195C65.3012 15.787 65.7496 15.9876 66.2621 15.9876C66.8387 15.9876 67.4152 15.9208 67.8637 15.7201L68.0559 16.6565C67.4793 16.924 66.8387 17.0578 66.0699 17.0578C65.173 17.0578 64.4043 16.7902 63.8918 16.1883C63.3793 15.6532 63.123 14.8506 63.123 13.9143C63.123 12.9779 63.3793 12.1753 63.8277 11.5734C64.3402 10.9046 65.0449 10.5701 65.9418 10.5701C66.7746 10.5701 67.4793 10.9046 67.8637 11.5734C68.3121 12.1084 68.4402 12.7773 68.4402 13.513ZM67.2231 13.1786C67.2231 12.7773 67.159 12.4429 66.9668 12.1084C66.7106 11.7072 66.3902 11.5065 65.9418 11.5065C65.4934 11.5065 65.173 11.7072 64.9168 12.0416C64.7246 12.3091 64.5965 12.7104 64.5324 13.1117H67.2231V13.1786Z" fill="white"/>
<path d="M23.0842 3.01229C23.0842 3.748 22.892 4.34994 22.4435 4.75124C22.0592 5.08565 21.4826 5.2863 20.7139 5.2863C20.3295 5.2863 20.0092 5.2863 19.7529 5.21942V1.0727C20.0732 1.00581 20.4576 1.00581 20.906 1.00581C21.6107 1.00581 22.1232 1.13958 22.5076 1.47399C22.8279 1.80841 23.0842 2.34347 23.0842 3.01229ZM22.3795 3.01229C22.3795 2.54411 22.2514 2.14282 21.9951 1.87529C21.7389 1.60776 21.3545 1.47399 20.906 1.47399C20.7139 1.47399 20.5217 1.47399 20.3936 1.54088V4.68436C20.4576 4.68436 20.6498 4.68436 20.842 4.68436C21.3545 4.68436 21.7389 4.55059 21.9951 4.28306C22.2514 4.01553 22.3795 3.54735 22.3795 3.01229Z" fill="white"/>
<path d="M26.6719 3.68109C26.6719 4.14927 26.5438 4.55057 26.2875 4.8181C26.0313 5.15251 25.6469 5.28628 25.1984 5.28628C24.75 5.28628 24.4297 5.15251 24.1734 4.8181C23.9172 4.55057 23.7891 4.14927 23.7891 3.68109C23.7891 3.21292 23.9172 2.81162 24.1734 2.54409C24.4297 2.20968 24.8141 2.07591 25.2625 2.07591C25.7109 2.07591 26.0313 2.20968 26.2875 2.54409C26.5438 2.81162 26.6719 3.21292 26.6719 3.68109ZM26.0312 3.68109C26.0312 3.41356 25.9672 3.14603 25.8391 2.94539C25.7109 2.67786 25.5188 2.61097 25.2625 2.61097C25.0063 2.61097 24.8141 2.74474 24.6859 2.94539C24.5578 3.14603 24.4938 3.41356 24.4938 3.68109C24.4938 3.94862 24.5578 4.21615 24.6859 4.4168C24.8141 4.68433 25.0063 4.75121 25.2625 4.75121C25.5188 4.75121 25.7109 4.61745 25.8391 4.34992C25.9672 4.21615 26.0312 3.94862 26.0312 3.68109Z" fill="white"/>
<path d="M31.6047 2.14294L30.7078 5.21954H30.1313L29.7469 3.88189C29.6188 3.54748 29.5547 3.21307 29.4906 2.87865C29.4266 3.21307 29.3625 3.54748 29.2344 3.88189L28.85 5.21954H28.2734L27.3125 2.14294H27.9531L28.2734 3.61436C28.3375 3.94878 28.4016 4.28319 28.4656 4.6176C28.5297 4.35007 28.5938 4.01566 28.7219 3.61436L29.1063 2.14294H29.6188L30.0031 3.54748C30.1313 3.88189 30.1953 4.21631 30.2594 4.55072C30.3234 4.21631 30.3875 3.88189 30.4516 3.54748L30.8359 2.14294H31.6047Z" fill="white"/>
<path d="M34.9359 5.2194H34.2953V3.48045C34.2953 2.94539 34.1031 2.67786 33.7188 2.67786C33.5266 2.67786 33.3984 2.74474 33.2703 2.87851C33.1422 3.01227 33.0781 3.21292 33.0781 3.41357V5.2194H32.4375V3.01227C32.4375 2.74474 32.4375 2.47721 32.4375 2.1428H33.0141V2.61098C33.0781 2.47721 33.2063 2.34345 33.3344 2.20968C33.5266 2.07592 33.7188 2.00903 33.9109 2.00903C34.1672 2.00903 34.4234 2.07592 34.6156 2.27656C34.8719 2.47721 34.9359 2.81163 34.9359 3.2798V5.2194Z" fill="white"/>
<path d="M36.7295 5.21943H36.0889V0.738297H36.7295V5.21943Z" fill="white"/>
<path d="M40.5732 3.68109C40.5732 4.14927 40.4451 4.55057 40.1889 4.8181C39.9326 5.15251 39.5482 5.28628 39.0998 5.28628C38.6514 5.28628 38.3311 5.15251 38.0748 4.8181C37.8186 4.55057 37.6904 4.14927 37.6904 3.68109C37.6904 3.21292 37.8186 2.81162 38.0748 2.54409C38.3311 2.27656 38.7154 2.07591 39.1639 2.07591C39.6123 2.07591 39.9326 2.20968 40.1889 2.54409C40.4451 2.81162 40.5732 3.21292 40.5732 3.68109ZM39.9326 3.68109C39.9326 3.41356 39.8686 3.14603 39.7404 2.94539C39.6123 2.67786 39.4201 2.61097 39.1639 2.61097C38.9076 2.61097 38.7154 2.74474 38.5873 2.94539C38.4592 3.14603 38.3951 3.41356 38.3951 3.68109C38.3951 3.94862 38.4592 4.21615 38.5873 4.4168C38.7154 4.68433 38.9076 4.75121 39.1639 4.75121C39.4201 4.75121 39.6123 4.61745 39.7404 4.34992C39.8686 4.21615 39.9326 3.94862 39.9326 3.68109Z" fill="white"/>
<path d="M43.7121 5.21939H43.1355L43.0715 4.88498C42.8793 5.15251 42.559 5.28628 42.2387 5.28628C41.9824 5.28628 41.7262 5.21939 41.598 5.01874C41.4699 4.8181 41.3418 4.61745 41.3418 4.4168C41.3418 4.01551 41.4699 3.74798 41.7902 3.54733C42.1105 3.34668 42.4949 3.2798 43.0715 3.2798V3.21292C43.0715 2.81162 42.8793 2.61097 42.4949 2.61097C42.1746 2.61097 41.9824 2.67786 41.7262 2.81162L41.598 2.34344C41.8543 2.14279 42.1746 2.07591 42.623 2.07591C43.3918 2.07591 43.7761 2.47721 43.7761 3.34668V4.48368C43.7121 4.8181 43.7121 5.01874 43.7121 5.21939ZM43.0715 4.14927V3.68109C42.3668 3.68109 41.9824 3.88174 41.9824 4.28304C41.9824 4.4168 42.0465 4.55057 42.1105 4.61745C42.1746 4.68433 42.3027 4.75121 42.4308 4.75121C42.559 4.75121 42.6871 4.68433 42.8152 4.61745C42.9433 4.55057 43.0074 4.4168 43.0715 4.28304C43.0715 4.28304 43.0715 4.21615 43.0715 4.14927Z" fill="white"/>
<path d="M47.4285 5.21957H46.852V4.75139C46.6598 5.15268 46.3395 5.28645 45.891 5.28645C45.5066 5.28645 45.2504 5.15268 44.9941 4.88515C44.7379 4.61762 44.6738 4.21633 44.6738 3.74815C44.6738 3.27997 44.802 2.87868 45.0582 2.54426C45.3145 2.27673 45.6348 2.14297 45.9551 2.14297C46.3395 2.14297 46.5957 2.27673 46.7879 2.54426V0.805313H47.4285V4.41698C47.4285 4.68451 47.4285 4.95204 47.4285 5.21957ZM46.7879 3.9488V3.41374C46.7879 3.34685 46.7879 3.27997 46.7879 3.21309C46.7238 3.07932 46.6598 2.94556 46.5316 2.81179C46.4035 2.67803 46.2754 2.67803 46.0832 2.67803C45.827 2.67803 45.6348 2.81179 45.5066 3.01244C45.3785 3.21309 45.3145 3.48062 45.3145 3.81503C45.3145 4.14945 45.3785 4.35009 45.5066 4.55074C45.6348 4.75139 45.827 4.88515 46.0832 4.88515C46.2754 4.88515 46.4676 4.81827 46.5957 4.61762C46.7238 4.35009 46.7879 4.14945 46.7879 3.9488Z" fill="white"/>
<path d="M53.002 3.68109C53.002 4.14927 52.8738 4.55057 52.6176 4.8181C52.3613 5.15251 51.977 5.28628 51.5285 5.28628C51.0801 5.28628 50.7598 5.15251 50.5035 4.8181C50.2473 4.55057 50.1191 4.14927 50.1191 3.68109C50.1191 3.21292 50.2473 2.81162 50.5035 2.54409C50.7598 2.20968 51.1441 2.07591 51.5926 2.07591C52.041 2.07591 52.3613 2.20968 52.6176 2.54409C52.8738 2.81162 53.002 3.21292 53.002 3.68109ZM52.2973 3.68109C52.2973 3.41356 52.2332 3.14603 52.1051 2.94539C51.9769 2.67786 51.7848 2.61097 51.5285 2.61097C51.2723 2.61097 51.0801 2.74474 50.952 2.94539C50.8238 3.14603 50.7598 3.41356 50.7598 3.68109C50.7598 3.94862 50.8238 4.21615 50.952 4.4168C51.0801 4.68433 51.2723 4.75121 51.5285 4.75121C51.7848 4.75121 51.9769 4.61745 52.1051 4.34992C52.2332 4.21615 52.2973 3.94862 52.2973 3.68109Z" fill="white"/>
<path d="M56.5248 5.2194H55.8842V3.48045C55.8842 2.94539 55.692 2.67786 55.3076 2.67786C55.1154 2.67786 54.9873 2.74474 54.8592 2.87851C54.7311 3.01227 54.667 3.21292 54.667 3.41357V5.2194H54.0264V3.01227C54.0264 2.74474 54.0264 2.47721 54.0264 2.1428H54.6029V2.61098C54.667 2.47721 54.7951 2.34345 54.9233 2.20968C55.1154 2.07592 55.3076 2.00903 55.4998 2.00903C55.7561 2.00903 56.0123 2.07592 56.2045 2.27656C56.4608 2.47721 56.5248 2.81163 56.5248 3.2798V5.2194Z" fill="white"/>
<path d="M60.8811 2.67803H60.1764V4.14945C60.1764 4.55074 60.3045 4.68451 60.5608 4.68451C60.6889 4.68451 60.7529 4.68451 60.8811 4.68451V5.21957C60.7529 5.28645 60.5608 5.28645 60.3686 5.28645C60.1123 5.28645 59.9201 5.21957 59.792 5.01892C59.6639 4.88515 59.5998 4.55074 59.5998 4.21633V2.67803H59.1514V2.14297H59.5998V1.60791L60.2404 1.40726V2.14297H60.9451V2.67803H60.8811Z" fill="white"/>
<path d="M64.3403 5.21943H63.6996V3.48049C63.6996 2.94542 63.5074 2.67789 63.1231 2.67789C62.8027 2.67789 62.6106 2.81166 62.4824 3.14607C62.4824 3.21295 62.4824 3.27984 62.4824 3.4136V5.21943H61.8418V0.738297H62.4824V2.61101C62.6746 2.2766 62.9949 2.07595 63.3793 2.07595C63.6356 2.07595 63.8918 2.14283 64.0199 2.34348C64.2121 2.54413 64.3403 2.94542 64.3403 3.34672V5.21943Z" fill="white"/>
<path d="M67.8643 3.54748C67.8643 3.68124 67.8643 3.74813 67.8643 3.88189H65.9424C65.9424 4.2163 66.0705 4.41695 66.1986 4.55072C66.3908 4.68448 66.583 4.75136 66.8393 4.75136C67.1596 4.75136 67.4158 4.68448 67.608 4.6176L67.7361 5.08578C67.4799 5.21954 67.1596 5.28643 66.7752 5.28643C66.3268 5.28643 65.9424 5.15266 65.6861 4.88513C65.4299 4.6176 65.3018 4.2163 65.3018 3.74813C65.3018 3.27995 65.4299 2.87865 65.6861 2.61112C65.9424 2.27671 66.2627 2.14294 66.7111 2.14294C67.1596 2.14294 67.4799 2.27671 67.6721 2.61112C67.8002 2.81177 67.8643 3.14618 67.8643 3.54748ZM67.2877 3.34683C67.2877 3.14618 67.2236 2.94554 67.1596 2.81177C67.0314 2.61112 66.9033 2.54424 66.6471 2.54424C66.4549 2.54424 66.2627 2.61112 66.1346 2.81177C66.0064 2.94554 65.9424 3.14618 65.9424 3.34683H67.2877Z" fill="white"/>
</svg>
