<svg width="22" height="21" viewBox="0 0 22 21" fill="none" xmlns="http://www.w3.org/2000/svg">
<path d="M16.1163 11.1179C15.9648 10.9559 15.9976 10.8497 16.1136 10.6873C16.2584 10.4849 16.5466 10.1758 16.8517 9.84877C17.8303 8.79956 18.4618 8.0731 18.3311 7.55496C18.2903 7.39378 18.1126 7.27811 17.9066 7.27811C17.9066 7.27811 15.7759 7.27851 14.9899 7.28161C14.7991 7.28228 14.6314 7.37923 14.5771 7.52493C14.4825 7.77888 14.1133 8.46562 13.6658 9.09431C13.0855 9.9095 12.7053 10.1649 12.5713 10.2098L12.5502 10.2045C12.5064 10.1614 12.4303 10.0451 12.399 9.74388C12.3664 9.42879 12.3953 9.04772 12.4234 8.67918C12.4562 8.24829 12.4846 7.8761 12.4168 7.6107C12.3701 7.51362 12.4056 7.19462 12.0325 7.1277C11.5187 7.03546 10.8213 7.00463 10.3241 7.00045C9.14644 6.99116 8.79989 7.12649 8.63008 7.24593C8.51423 7.32739 8.46163 7.45195 8.49241 7.5726C8.52302 7.69324 8.63211 7.79181 8.77875 7.83099C9.04276 7.90169 9.13697 7.99137 9.2124 8.41485C9.26026 8.6851 9.28529 9.13888 9.23337 9.54378C9.16031 10.115 8.98627 10.2293 8.96919 10.2386C8.93215 10.2289 8.64293 10.129 8.12066 9.28525C7.67128 8.55947 7.29411 7.68745 7.11788 7.32578C7.05327 7.19314 6.89293 7.10575 6.71416 7.10575H4.12544C3.9827 7.10575 3.84908 7.16177 3.76824 7.25549C3.68756 7.34921 3.66997 7.46864 3.72156 7.57475C4.53254 9.24661 5.4631 10.959 6.76829 12.1573C8.1188 13.3973 9.78575 14 11.8644 14C12.1035 14 12.2973 13.8457 12.2973 13.6553C12.2973 13.0607 12.4024 12.8841 12.5663 12.6364C12.6571 12.4996 12.7459 12.4409 12.7943 12.4322C12.8381 12.4242 12.9154 12.4499 13.0013 12.5009C13.2475 12.6469 13.443 12.839 13.6499 13.0423C13.9481 13.3354 14.2564 13.6385 14.746 13.8372C15.0129 13.9451 15.4902 13.9997 15.7642 13.9965H17.926C18.1721 13.9965 18.3688 13.8368 18.3587 13.641C18.3057 12.6221 16.5121 11.5139 16.1163 11.1179ZM15.7612 13.3106C15.7588 13.3106 15.7566 13.3106 15.7542 13.3106C15.5736 13.3141 15.2455 13.266 15.1386 13.2226C14.8135 13.0907 14.586 12.8672 14.3227 12.6085C14.0913 12.3809 13.852 12.1457 13.5186 11.948C12.9045 11.5835 12.2092 11.6985 11.8004 12.3147C11.5714 12.6605 11.4826 12.8883 11.4458 13.3014C9.80977 13.2282 8.52285 12.7159 7.42248 11.7055C6.32246 10.6955 5.48779 9.25374 4.75985 7.79518H6.41463C7.06173 9.18278 7.90112 10.9287 8.96783 10.9287C9.22999 10.9287 9.46508 10.8402 9.64791 10.6727C10.35 10.0295 10.0728 8.33554 10.0697 8.31831C10.0327 8.10973 9.97958 7.89051 9.85087 7.69513C10.4007 7.67789 11.138 7.70631 11.5704 7.75747C11.6122 7.93697 11.5851 8.29299 11.5589 8.63743C11.4952 9.47605 11.4292 10.3417 11.9943 10.7367C12.0112 10.7485 12.3249 10.9001 12.5186 10.9057C12.8707 10.9168 13.4464 10.7802 14.3777 9.49208C14.7574 8.9668 15.1102 8.36193 15.3001 7.96673C15.9257 7.96578 16.8023 7.96417 17.3779 7.96457C17.124 8.41081 16.5627 9.00234 16.1564 9.43781L16.1555 9.4388C15.8208 9.79764 15.5318 10.1075 15.3612 10.3462C15.0434 10.7905 15.0968 11.1863 15.4276 11.5356C15.4293 11.5376 15.4312 11.5395 15.433 11.5414C15.8439 11.9569 16.9102 12.6012 17.3545 13.3106H15.7612Z" fill="#2D8BF9"/>
<path d="M15.7612 13.3106H15.7542C15.5736 13.3141 15.2455 13.266 15.1386 13.2226C14.8135 13.0907 14.586 12.8672 14.3227 12.6085C14.0913 12.3809 13.852 12.1457 13.5186 11.948C12.9045 11.5835 12.2092 11.6985 11.8004 12.3147C11.5714 12.6605 11.4826 12.8883 11.4458 13.3014C9.80977 13.2282 8.52285 12.7159 7.42248 11.7055C6.32246 10.6955 5.48779 9.25374 4.75985 7.79518H6.41463C7.06173 9.18278 7.90112 10.9287 8.96783 10.9287C9.22999 10.9287 9.46508 10.8402 9.64791 10.6727C10.35 10.0295 10.0728 8.33554 10.0697 8.31831C10.0327 8.10973 9.97958 7.89051 9.85087 7.69513C10.4007 7.67789 11.138 7.70631 11.5704 7.75747C11.6122 7.93697 11.5851 8.29299 11.5589 8.63743C11.4952 9.47605 11.4292 10.3417 11.9943 10.7367C12.0112 10.7485 12.3249 10.9001 12.5186 10.9057C12.8707 10.9168 13.4464 10.7802 14.3777 9.49208C14.7574 8.9668 15.1102 8.36193 15.3001 7.96673C15.9257 7.96578 16.8023 7.96417 17.3779 7.96457C17.124 8.41081 16.5627 9.00234 16.1564 9.43781L16.1555 9.4388C15.8208 9.79764 15.5318 10.1075 15.3612 10.3462C15.0434 10.7905 15.0968 11.1863 15.4276 11.5356C15.4293 11.5376 15.4312 11.5395 15.433 11.5414C15.8439 11.9569 16.9102 12.6012 17.3545 13.3106H15.7612Z" fill="#2D8BF9"/>
<rect x="0.5" y="0.5" width="21" height="20" stroke="#2D8BF9"/>
</svg>
