<svg width="160" height="160" viewBox="0 0 160 160" fill="none" xmlns="http://www.w3.org/2000/svg">
<g clip-path="url(#clip0)">
<path d="M39.024 0H35.1216V3.90244H39.024V0Z" fill="white"/>
<path d="M42.9269 0H39.0244V3.90244H42.9269V0Z" fill="white"/>
<path d="M46.8287 0H42.9263V3.90244H46.8287V0Z" fill="white"/>
<path d="M50.7315 0H46.8291V3.90244H50.7315V0Z" fill="white"/>
<path d="M54.6344 0H50.7319V3.90244H54.6344V0Z" fill="white"/>
<path d="M62.4391 0H58.5366V3.90244H62.4391V0Z" fill="white"/>
<path d="M70.2442 0H66.3418V3.90244H70.2442V0Z" fill="white"/>
<path d="M74.1466 0H70.2441V3.90244H74.1466V0Z" fill="white"/>
<path d="M78.0484 0H74.146V3.90244H78.0484V0Z" fill="white"/>
<path d="M81.9513 0H78.0488V3.90244H81.9513V0Z" fill="white"/>
<path d="M93.6583 0H89.7559V3.90244H93.6583V0Z" fill="white"/>
<path d="M120.976 0H117.073V3.90244H120.976V0Z" fill="white"/>
<path d="M124.878 0H120.976V3.90244H124.878V0Z" fill="white"/>
<path d="M128.781 0H124.878V3.90244H128.781V0Z" fill="white"/>
<path d="M46.8287 3.90234H42.9263V7.80479H46.8287V3.90234Z" fill="white"/>
<path d="M54.6344 3.90234H50.7319V7.80479H54.6344V3.90234Z" fill="white"/>
<path d="M58.5362 3.90234H54.6338V7.80479H58.5362V3.90234Z" fill="white"/>
<path d="M70.2442 3.90234H66.3418V7.80479H70.2442V3.90234Z" fill="white"/>
<path d="M74.1466 3.90234H70.2441V7.80479H74.1466V3.90234Z" fill="white"/>
<path d="M78.0484 3.90234H74.146V7.80479H78.0484V3.90234Z" fill="white"/>
<path d="M85.8536 3.90234H81.9512V7.80479H85.8536V3.90234Z" fill="white"/>
<path d="M89.7564 3.90234H85.854V7.80479H89.7564V3.90234Z" fill="white"/>
<path d="M105.366 3.90234H101.463V7.80479H105.366V3.90234Z" fill="white"/>
<path d="M113.171 3.90234H109.268V7.80479H113.171V3.90234Z" fill="white"/>
<path d="M117.073 3.90234H113.171V7.80479H117.073V3.90234Z" fill="white"/>
<path d="M39.024 7.80469H35.1216V11.7071H39.024V7.80469Z" fill="white"/>
<path d="M54.6344 7.80469H50.7319V11.7071H54.6344V7.80469Z" fill="white"/>
<path d="M62.4391 7.80469H58.5366V11.7071H62.4391V7.80469Z" fill="white"/>
<path d="M78.0484 7.80469H74.146V11.7071H78.0484V7.80469Z" fill="white"/>
<path d="M89.7564 7.80469H85.854V11.7071H89.7564V7.80469Z" fill="white"/>
<path d="M97.5606 7.80469H93.6582V11.7071H97.5606V7.80469Z" fill="white"/>
<path d="M101.463 7.80469H97.561V11.7071H101.463V7.80469Z" fill="white"/>
<path d="M105.366 7.80469H101.463V11.7071H105.366V7.80469Z" fill="white"/>
<path d="M109.268 7.80469H105.366V11.7071H109.268V7.80469Z" fill="white"/>
<path d="M120.976 7.80469H117.073V11.7071H120.976V7.80469Z" fill="white"/>
<path d="M124.878 7.80469H120.976V11.7071H124.878V7.80469Z" fill="white"/>
<path d="M128.781 7.80469H124.878V11.7071H128.781V7.80469Z" fill="white"/>
<path d="M54.6344 11.707H50.7319V15.6095H54.6344V11.707Z" fill="white"/>
<path d="M66.3419 11.707H62.4395V15.6095H66.3419V11.707Z" fill="white"/>
<path d="M70.2442 11.707H66.3418V15.6095H70.2442V11.707Z" fill="white"/>
<path d="M74.1466 11.707H70.2441V15.6095H74.1466V11.707Z" fill="white"/>
<path d="M78.0484 11.7075H74.146V15.61H78.0484V11.7075Z" fill="white"/>
<path d="M81.9513 11.7075H78.0488V15.61H81.9513V11.7075Z" fill="white"/>
<path d="M85.8536 11.707H81.9512V15.6095H85.8536V11.707Z" fill="white"/>
<path d="M89.7564 11.707H85.854V15.6095H89.7564V11.707Z" fill="white"/>
<path d="M97.5606 11.7075H93.6582V15.61H97.5606V11.7075Z" fill="white"/>
<path d="M109.268 11.707H105.366V15.6095H109.268V11.707Z" fill="white"/>
<path d="M113.171 11.7075H109.268V15.61H113.171V11.7075Z" fill="white"/>
<path d="M117.073 11.707H113.171V15.6095H117.073V11.707Z" fill="white"/>
<path d="M120.976 11.707H117.073V15.6095H120.976V11.707Z" fill="white"/>
<path d="M128.781 11.707H124.878V15.6095H128.781V11.707Z" fill="white"/>
<path d="M35.1222 15.6099H31.2197V19.5123H35.1222V15.6099Z" fill="white"/>
<path d="M42.9269 15.6099H39.0244V19.5123H42.9269V15.6099Z" fill="white"/>
<path d="M46.8287 15.6099H42.9263V19.5123H46.8287V15.6099Z" fill="white"/>
<path d="M50.7315 15.6099H46.8291V19.5123H50.7315V15.6099Z" fill="white"/>
<path d="M66.3419 15.6099H62.4395V19.5123H66.3419V15.6099Z" fill="white"/>
<path d="M70.2442 15.6099H66.3418V19.5123H70.2442V15.6099Z" fill="white"/>
<path d="M74.1466 15.6099H70.2441V19.5123H74.1466V15.6099Z" fill="white"/>
<path d="M78.0484 15.6099H74.146V19.5123H78.0484V15.6099Z" fill="white"/>
<path d="M81.9513 15.6099H78.0488V19.5123H81.9513V15.6099Z" fill="white"/>
<path d="M89.7564 15.6099H85.854V19.5123H89.7564V15.6099Z" fill="white"/>
<path d="M97.5606 15.6099H93.6582V19.5123H97.5606V15.6099Z" fill="white"/>
<path d="M101.463 15.6099H97.561V19.5123H101.463V15.6099Z" fill="white"/>
<path d="M109.268 15.6099H105.366V19.5123H109.268V15.6099Z" fill="white"/>
<path d="M113.171 15.6099H109.268V19.5123H113.171V15.6099Z" fill="white"/>
<path d="M117.073 15.6099H113.171V19.5123H117.073V15.6099Z" fill="white"/>
<path d="M120.976 15.6099H117.073V19.5123H120.976V15.6099Z" fill="white"/>
<path d="M124.878 15.6099H120.976V19.5123H124.878V15.6099Z" fill="white"/>
<path d="M39.024 19.5122H35.1216V23.4146H39.024V19.5122Z" fill="white"/>
<path d="M50.7315 19.5122H46.8291V23.4146H50.7315V19.5122Z" fill="white"/>
<path d="M58.5362 19.5122H54.6338V23.4146H58.5362V19.5122Z" fill="white"/>
<path d="M62.4391 19.5122H58.5366V23.4146H62.4391V19.5122Z" fill="white"/>
<path d="M66.3419 19.5122H62.4395V23.4146H66.3419V19.5122Z" fill="white"/>
<path d="M78.0484 19.5122H74.146V23.4146H78.0484V19.5122Z" fill="white"/>
<path d="M81.9513 19.5122H78.0488V23.4146H81.9513V19.5122Z" fill="white"/>
<path d="M85.8536 19.5122H81.9512V23.4146H85.8536V19.5122Z" fill="white"/>
<path d="M89.7564 19.5122H85.854V23.4146H89.7564V19.5122Z" fill="white"/>
<path d="M101.463 19.5122H97.561V23.4146H101.463V19.5122Z" fill="white"/>
<path d="M113.171 19.5122H109.268V23.4146H113.171V19.5122Z" fill="white"/>
<path d="M124.878 19.5122H120.976V23.4146H124.878V19.5122Z" fill="white"/>
<path d="M128.781 19.5122H124.878V23.4146H128.781V19.5122Z" fill="white"/>
<path d="M35.1222 23.4146H31.2197V27.317H35.1222V23.4146Z" fill="white"/>
<path d="M42.9269 23.4146H39.0244V27.317H42.9269V23.4146Z" fill="white"/>
<path d="M50.7315 23.415H46.8291V27.3175H50.7315V23.415Z" fill="white"/>
<path d="M58.5362 23.4146H54.6338V27.317H58.5362V23.4146Z" fill="white"/>
<path d="M66.3419 23.415H62.4395V27.3175H66.3419V23.415Z" fill="white"/>
<path d="M74.1466 23.415H70.2441V27.3175H74.1466V23.415Z" fill="white"/>
<path d="M81.9513 23.4146H78.0488V27.317H81.9513V23.4146Z" fill="white"/>
<path d="M89.7564 23.4146H85.854V27.317H89.7564V23.4146Z" fill="white"/>
<path d="M97.5606 23.4146H93.6582V27.317H97.5606V23.4146Z" fill="white"/>
<path d="M105.366 23.415H101.463V27.3175H105.366V23.415Z" fill="white"/>
<path d="M113.171 23.4146H109.268V27.317H113.171V23.4146Z" fill="white"/>
<path d="M120.976 23.415H117.073V27.3175H120.976V23.415Z" fill="white"/>
<path d="M128.781 23.415H124.878V27.3175H128.781V23.415Z" fill="white"/>
<path d="M35.1222 27.3169H31.2197V31.2193H35.1222V27.3169Z" fill="white"/>
<path d="M46.8287 27.3169H42.9263V31.2193H46.8287V27.3169Z" fill="white"/>
<path d="M66.3419 27.3169H62.4395V31.2193H66.3419V27.3169Z" fill="white"/>
<path d="M70.2442 27.3169H66.3418V31.2193H70.2442V27.3169Z" fill="white"/>
<path d="M78.0484 27.3169H74.146V31.2193H78.0484V27.3169Z" fill="white"/>
<path d="M89.7564 27.3169H85.854V31.2193H89.7564V27.3169Z" fill="white"/>
<path d="M93.6583 27.3169H89.7559V31.2193H93.6583V27.3169Z" fill="white"/>
<path d="M97.5606 27.3169H93.6582V31.2193H97.5606V27.3169Z" fill="white"/>
<path d="M105.366 27.3169H101.463V31.2193H105.366V27.3169Z" fill="white"/>
<path d="M117.073 27.3169H113.171V31.2193H117.073V27.3169Z" fill="white"/>
<path d="M120.976 27.3169H117.073V31.2193H120.976V27.3169Z" fill="white"/>
<path d="M124.878 27.3169H120.976V31.2193H124.878V27.3169Z" fill="white"/>
<path d="M11.7071 31.2192H7.80469V35.1217H11.7071V31.2192Z" fill="white"/>
<path d="M15.61 31.2197H11.7075V35.1222H15.61V31.2197Z" fill="white"/>
<path d="M27.317 31.2192H23.4146V35.1217H27.317V31.2192Z" fill="white"/>
<path d="M31.2188 31.2192H27.3164V35.1217H31.2188V31.2192Z" fill="white"/>
<path d="M35.1222 31.2197H31.2197V35.1222H35.1222V31.2197Z" fill="white"/>
<path d="M42.9269 31.2192H39.0244V35.1217H42.9269V31.2192Z" fill="white"/>
<path d="M50.7315 31.2197H46.8291V35.1222H50.7315V31.2197Z" fill="white"/>
<path d="M62.4391 31.2192H58.5366V35.1217H62.4391V31.2192Z" fill="white"/>
<path d="M66.3419 31.2197H62.4395V35.1222H66.3419V31.2197Z" fill="white"/>
<path d="M70.2442 31.2197H66.3418V35.1222H70.2442V31.2197Z" fill="white"/>
<path d="M78.0484 31.2192H74.146V35.1217H78.0484V31.2192Z" fill="white"/>
<path d="M81.9513 31.2192H78.0488V35.1217H81.9513V31.2192Z" fill="white"/>
<path d="M105.366 31.2197H101.463V35.1222H105.366V31.2197Z" fill="white"/>
<path d="M113.171 31.2192H109.268V35.1217H113.171V31.2192Z" fill="white"/>
<path d="M117.073 31.2192H113.171V35.1217H117.073V31.2192Z" fill="white"/>
<path d="M120.976 31.2197H117.073V35.1222H120.976V31.2197Z" fill="white"/>
<path d="M132.683 31.2192H128.78V35.1217H132.683V31.2192Z" fill="white"/>
<path d="M136.586 31.2197H132.684V35.1222H136.586V31.2197Z" fill="white"/>
<path d="M144.391 31.2197H140.488V35.1222H144.391V31.2197Z" fill="white"/>
<path d="M7.80479 35.1216H3.90234V39.024H7.80479V35.1216Z" fill="white"/>
<path d="M11.7071 35.1221H7.80469V39.0245H11.7071V35.1221Z" fill="white"/>
<path d="M15.61 35.1216H11.7075V39.024H15.61V35.1216Z" fill="white"/>
<path d="M19.5123 35.1221H15.6099V39.0245H19.5123V35.1221Z" fill="white"/>
<path d="M42.9269 35.1216H39.0244V39.024H42.9269V35.1216Z" fill="white"/>
<path d="M54.6344 35.1221H50.7319V39.0245H54.6344V35.1221Z" fill="white"/>
<path d="M62.4391 35.1216H58.5366V39.024H62.4391V35.1216Z" fill="white"/>
<path d="M70.2442 35.1216H66.3418V39.024H70.2442V35.1216Z" fill="white"/>
<path d="M78.0484 35.1221H74.146V39.0245H78.0484V35.1221Z" fill="white"/>
<path d="M85.8536 35.1221H81.9512V39.0245H85.8536V35.1221Z" fill="white"/>
<path d="M93.6583 35.1221H89.7559V39.0245H93.6583V35.1221Z" fill="white"/>
<path d="M101.463 35.1221H97.561V39.0245H101.463V35.1221Z" fill="white"/>
<path d="M113.171 35.1221H109.268V39.0245H113.171V35.1221Z" fill="white"/>
<path d="M124.878 35.1221H120.976V39.0245H124.878V35.1221Z" fill="white"/>
<path d="M128.781 35.1221H124.878V39.0245H128.781V35.1221Z" fill="white"/>
<path d="M132.683 35.1221H128.78V39.0245H132.683V35.1221Z" fill="white"/>
<path d="M136.586 35.1221H132.684V39.0245H136.586V35.1221Z" fill="white"/>
<path d="M144.391 35.1216H140.488V39.024H144.391V35.1216Z" fill="white"/>
<path d="M152.196 35.1216H148.293V39.024H152.196V35.1216Z" fill="white"/>
<path d="M156.098 35.1221H152.195V39.0245H156.098V35.1221Z" fill="white"/>
<path d="M160 35.1221H156.098V39.0245H160V35.1221Z" fill="white"/>
<path d="M3.90244 39.0244H0V42.9269H3.90244V39.0244Z" fill="white"/>
<path d="M7.80479 39.0244H3.90234V42.9269H7.80479V39.0244Z" fill="white"/>
<path d="M11.7071 39.0244H7.80469V42.9269H11.7071V39.0244Z" fill="white"/>
<path d="M15.61 39.0244H11.7075V42.9269H15.61V39.0244Z" fill="white"/>
<path d="M27.317 39.0244H23.4146V42.9269H27.317V39.0244Z" fill="white"/>
<path d="M31.2188 39.0244H27.3164V42.9269H31.2188V39.0244Z" fill="white"/>
<path d="M35.1222 39.0244H31.2197V42.9269H35.1222V39.0244Z" fill="white"/>
<path d="M46.8287 39.0244H42.9263V42.9269H46.8287V39.0244Z" fill="white"/>
<path d="M62.4391 39.0244H58.5366V42.9269H62.4391V39.0244Z" fill="white"/>
<path d="M70.2442 39.0244H66.3418V42.9269H70.2442V39.0244Z" fill="white"/>
<path d="M74.1466 39.0244H70.2441V42.9269H74.1466V39.0244Z" fill="white"/>
<path d="M78.0484 39.0244H74.146V42.9269H78.0484V39.0244Z" fill="white"/>
<path d="M81.9513 39.0244H78.0488V42.9269H81.9513V39.0244Z" fill="white"/>
<path d="M85.8536 39.0244H81.9512V42.9269H85.8536V39.0244Z" fill="white"/>
<path d="M89.7564 39.0244H85.854V42.9269H89.7564V39.0244Z" fill="white"/>
<path d="M101.463 39.0244H97.561V42.9269H101.463V39.0244Z" fill="white"/>
<path d="M132.683 39.0244H128.78V42.9269H132.683V39.0244Z" fill="white"/>
<path d="M152.196 39.0244H148.293V42.9269H152.196V39.0244Z" fill="white"/>
<path d="M156.098 39.0244H152.195V42.9269H156.098V39.0244Z" fill="white"/>
<path d="M7.80479 42.9268H3.90234V46.8292H7.80479V42.9268Z" fill="white"/>
<path d="M15.61 42.9272H11.7075V46.8297H15.61V42.9272Z" fill="white"/>
<path d="M19.5123 42.9272H15.6099V46.8297H19.5123V42.9272Z" fill="white"/>
<path d="M23.4142 42.9268H19.5117V46.8292H23.4142V42.9268Z" fill="white"/>
<path d="M31.2188 42.9268H27.3164V46.8292H31.2188V42.9268Z" fill="white"/>
<path d="M35.1222 42.9272H31.2197V46.8297H35.1222V42.9272Z" fill="white"/>
<path d="M46.8287 42.9268H42.9263V46.8292H46.8287V42.9268Z" fill="white"/>
<path d="M58.5362 42.9268H54.6338V46.8292H58.5362V42.9268Z" fill="white"/>
<path d="M62.4391 42.9268H58.5366V46.8292H62.4391V42.9268Z" fill="white"/>
<path d="M66.3419 42.9272H62.4395V46.8297H66.3419V42.9272Z" fill="white"/>
<path d="M74.1466 42.9272H70.2441V46.8297H74.1466V42.9272Z" fill="white"/>
<path d="M85.8536 42.9272H81.9512V46.8297H85.8536V42.9272Z" fill="white"/>
<path d="M97.5606 42.9268H93.6582V46.8292H97.5606V42.9268Z" fill="white"/>
<path d="M101.463 42.9272H97.561V46.8297H101.463V42.9272Z" fill="white"/>
<path d="M105.366 42.9272H101.463V46.8297H105.366V42.9272Z" fill="white"/>
<path d="M109.268 42.9268H105.366V46.8292H109.268V42.9268Z" fill="white"/>
<path d="M128.781 42.9272H124.878V46.8297H128.781V42.9272Z" fill="white"/>
<path d="M132.683 42.9268H128.78V46.8292H132.683V42.9268Z" fill="white"/>
<path d="M136.586 42.9272H132.684V46.8297H136.586V42.9272Z" fill="white"/>
<path d="M144.391 42.9272H140.488V46.8297H144.391V42.9272Z" fill="white"/>
<path d="M156.098 42.9272H152.195V46.8297H156.098V42.9272Z" fill="white"/>
<path d="M160 42.9272H156.098V46.8297H160V42.9272Z" fill="white"/>
<path d="M15.61 46.8296H11.7075V50.732H15.61V46.8296Z" fill="white"/>
<path d="M23.4142 46.8296H19.5117V50.732H23.4142V46.8296Z" fill="white"/>
<path d="M27.317 46.8296H23.4146V50.732H27.317V46.8296Z" fill="white"/>
<path d="M42.9269 46.8296H39.0244V50.732H42.9269V46.8296Z" fill="white"/>
<path d="M46.8287 46.8296H42.9263V50.732H46.8287V46.8296Z" fill="white"/>
<path d="M54.6344 46.8296H50.7319V50.732H54.6344V46.8296Z" fill="white"/>
<path d="M62.4391 46.8296H58.5366V50.732H62.4391V46.8296Z" fill="white"/>
<path d="M105.366 46.8296H101.463V50.732H105.366V46.8296Z" fill="white"/>
<path d="M117.073 46.8296H113.171V50.732H117.073V46.8296Z" fill="white"/>
<path d="M124.878 46.8296H120.976V50.732H124.878V46.8296Z" fill="white"/>
<path d="M128.781 46.8296H124.878V50.732H128.781V46.8296Z" fill="white"/>
<path d="M132.683 46.8296H128.78V50.732H132.683V46.8296Z" fill="white"/>
<path d="M148.293 46.8296H144.39V50.732H148.293V46.8296Z" fill="white"/>
<path d="M152.196 46.8296H148.293V50.732H152.196V46.8296Z" fill="white"/>
<path d="M156.098 46.8296H152.195V50.732H156.098V46.8296Z" fill="white"/>
<path d="M160 46.8296H156.098V50.732H160V46.8296Z" fill="white"/>
<path d="M7.80479 50.7319H3.90234V54.6344H7.80479V50.7319Z" fill="white"/>
<path d="M15.61 50.7319H11.7075V54.6344H15.61V50.7319Z" fill="white"/>
<path d="M23.4142 50.7319H19.5117V54.6344H23.4142V50.7319Z" fill="white"/>
<path d="M35.1222 50.7319H31.2197V54.6344H35.1222V50.7319Z" fill="white"/>
<path d="M39.024 50.7319H35.1216V54.6344H39.024V50.7319Z" fill="white"/>
<path d="M42.9269 50.7319H39.0244V54.6344H42.9269V50.7319Z" fill="white"/>
<path d="M46.8287 50.7319H42.9263V54.6344H46.8287V50.7319Z" fill="white"/>
<path d="M54.6344 50.7319H50.7319V54.6344H54.6344V50.7319Z" fill="white"/>
<path d="M66.3419 50.7319H62.4395V54.6344H66.3419V50.7319Z" fill="white"/>
<path d="M70.2442 50.7319H66.3418V54.6344H70.2442V50.7319Z" fill="white"/>
<path d="M74.1466 50.7319H70.2441V54.6344H74.1466V50.7319Z" fill="white"/>
<path d="M78.0484 50.7319H74.146V54.6344H78.0484V50.7319Z" fill="white"/>
<path d="M81.9513 50.7319H78.0488V54.6344H81.9513V50.7319Z" fill="white"/>
<path d="M93.6583 50.7319H89.7559V54.6344H93.6583V50.7319Z" fill="white"/>
<path d="M97.5606 50.7319H93.6582V54.6344H97.5606V50.7319Z" fill="white"/>
<path d="M113.171 50.7319H109.268V54.6344H113.171V50.7319Z" fill="white"/>
<path d="M117.073 50.7319H113.171V54.6344H117.073V50.7319Z" fill="white"/>
<path d="M120.976 50.7319H117.073V54.6344H120.976V50.7319Z" fill="white"/>
<path d="M124.878 50.7319H120.976V54.6344H124.878V50.7319Z" fill="white"/>
<path d="M128.781 50.7319H124.878V54.6344H128.781V50.7319Z" fill="white"/>
<path d="M132.683 50.7319H128.78V54.6344H132.683V50.7319Z" fill="white"/>
<path d="M136.586 50.7319H132.684V54.6344H136.586V50.7319Z" fill="white"/>
<path d="M152.196 50.7319H148.293V54.6344H152.196V50.7319Z" fill="white"/>
<path d="M156.098 50.7319H152.195V54.6344H156.098V50.7319Z" fill="white"/>
<path d="M160 50.7319H156.098V54.6344H160V50.7319Z" fill="white"/>
<path d="M15.61 54.6343H11.7075V58.5367H15.61V54.6343Z" fill="white"/>
<path d="M27.317 54.6343H23.4146V58.5367H27.317V54.6343Z" fill="white"/>
<path d="M31.2188 54.6343H27.3164V58.5367H31.2188V54.6343Z" fill="white"/>
<path d="M35.1222 54.6343H31.2197V58.5367H35.1222V54.6343Z" fill="white"/>
<path d="M42.9269 54.6343H39.0244V58.5367H42.9269V54.6343Z" fill="white"/>
<path d="M54.6344 54.6343H50.7319V58.5367H54.6344V54.6343Z" fill="white"/>
<path d="M109.268 54.6343H105.366V58.5367H109.268V54.6343Z" fill="white"/>
<path d="M113.171 54.6343H109.268V58.5367H113.171V54.6343Z" fill="white"/>
<path d="M124.878 54.6343H120.976V58.5367H124.878V54.6343Z" fill="white"/>
<path d="M128.781 54.6343H124.878V58.5367H128.781V54.6343Z" fill="white"/>
<path d="M136.586 54.6343H132.684V58.5367H136.586V54.6343Z" fill="white"/>
<path d="M144.391 54.6343H140.488V58.5367H144.391V54.6343Z" fill="white"/>
<path d="M148.293 54.6343H144.39V58.5367H148.293V54.6343Z" fill="white"/>
<path d="M156.098 54.6343H152.195V58.5367H156.098V54.6343Z" fill="white"/>
<path d="M160 54.6343H156.098V58.5367H160V54.6343Z" fill="white"/>
<path d="M3.90244 58.5366H0V62.4391H3.90244V58.5366Z" fill="white"/>
<path d="M11.7071 58.5366H7.80469V62.4391H11.7071V58.5366Z" fill="white"/>
<path d="M15.61 58.5366H11.7075V62.4391H15.61V58.5366Z" fill="white"/>
<path d="M23.4142 58.5366H19.5117V62.4391H23.4142V58.5366Z" fill="white"/>
<path d="M31.2188 58.5366H27.3164V62.4391H31.2188V58.5366Z" fill="white"/>
<path d="M35.1222 58.5366H31.2197V62.4391H35.1222V58.5366Z" fill="white"/>
<path d="M42.9269 58.5366H39.0244V62.4391H42.9269V58.5366Z" fill="white"/>
<path d="M50.7315 58.5366H46.8291V62.4391H50.7315V58.5366Z" fill="white"/>
<path d="M54.6344 58.5366H50.7319V62.4391H54.6344V58.5366Z" fill="white"/>
<path d="M58.5362 58.5366H54.6338V62.4391H58.5362V58.5366Z" fill="white"/>
<path d="M105.366 58.5366H101.463V62.4391H105.366V58.5366Z" fill="white"/>
<path d="M113.171 58.5366H109.268V62.4391H113.171V58.5366Z" fill="white"/>
<path d="M124.878 58.5366H120.976V62.4391H124.878V58.5366Z" fill="white"/>
<path d="M136.586 58.5366H132.684V62.4391H136.586V58.5366Z" fill="white"/>
<path d="M140.488 58.5366H136.585V62.4391H140.488V58.5366Z" fill="white"/>
<path d="M148.293 58.5366H144.39V62.4391H148.293V58.5366Z" fill="white"/>
<path d="M160 58.5366H156.098V62.4391H160V58.5366Z" fill="white"/>
<path d="M3.90244 62.439H0V66.3414H3.90244V62.439Z" fill="white"/>
<path d="M11.7071 62.439H7.80469V66.3414H11.7071V62.439Z" fill="white"/>
<path d="M19.5123 62.439H15.6099V66.3414H19.5123V62.439Z" fill="white"/>
<path d="M23.4142 62.439H19.5117V66.3414H23.4142V62.439Z" fill="white"/>
<path d="M27.317 62.439H23.4146V66.3414H27.317V62.439Z" fill="white"/>
<path d="M31.2188 62.439H27.3164V66.3414H31.2188V62.439Z" fill="white"/>
<path d="M46.8287 62.439H42.9263V66.3414H46.8287V62.439Z" fill="white"/>
<path d="M50.7315 62.439H46.8291V66.3414H50.7315V62.439Z" fill="white"/>
<path d="M54.6344 62.439H50.7319V66.3414H54.6344V62.439Z" fill="white"/>
<path d="M105.366 62.439H101.463V66.3414H105.366V62.439Z" fill="white"/>
<path d="M109.268 62.439H105.366V66.3414H109.268V62.439Z" fill="white"/>
<path d="M120.976 62.439H117.073V66.3414H120.976V62.439Z" fill="white"/>
<path d="M128.781 62.439H124.878V66.3414H128.781V62.439Z" fill="white"/>
<path d="M144.391 62.439H140.488V66.3414H144.391V62.439Z" fill="white"/>
<path d="M156.098 62.439H152.195V66.3414H156.098V62.439Z" fill="white"/>
<path d="M160 62.439H156.098V66.3414H160V62.439Z" fill="white"/>
<path d="M3.90244 66.3418H0V70.2442H3.90244V66.3418Z" fill="white"/>
<path d="M7.80479 66.3418H3.90234V70.2442H7.80479V66.3418Z" fill="white"/>
<path d="M11.7071 66.3418H7.80469V70.2442H11.7071V66.3418Z" fill="white"/>
<path d="M23.4142 66.3418H19.5117V70.2442H23.4142V66.3418Z" fill="white"/>
<path d="M31.2188 66.3418H27.3164V70.2442H31.2188V66.3418Z" fill="white"/>
<path d="M42.9269 66.3418H39.0244V70.2442H42.9269V66.3418Z" fill="white"/>
<path d="M58.5362 66.3418H54.6338V70.2442H58.5362V66.3418Z" fill="white"/>
<path d="M105.366 66.3418H101.463V70.2442H105.366V66.3418Z" fill="white"/>
<path d="M109.268 66.3418H105.366V70.2442H109.268V66.3418Z" fill="white"/>
<path d="M128.781 66.3418H124.878V70.2442H128.781V66.3418Z" fill="white"/>
<path d="M132.683 66.3418H128.78V70.2442H132.683V66.3418Z" fill="white"/>
<path d="M140.488 66.3418H136.585V70.2442H140.488V66.3418Z" fill="white"/>
<path d="M148.293 66.3418H144.39V70.2442H148.293V66.3418Z" fill="white"/>
<path d="M156.098 66.3418H152.195V70.2442H156.098V66.3418Z" fill="white"/>
<path d="M7.80479 70.2441H3.90234V74.1466H7.80479V70.2441Z" fill="white"/>
<path d="M11.7071 70.2441H7.80469V74.1466H11.7071V70.2441Z" fill="white"/>
<path d="M15.61 70.2441H11.7075V74.1466H15.61V70.2441Z" fill="white"/>
<path d="M19.5123 70.2441H15.6099V74.1466H19.5123V70.2441Z" fill="white"/>
<path d="M27.317 70.2441H23.4146V74.1466H27.317V70.2441Z" fill="white"/>
<path d="M31.2188 70.2441H27.3164V74.1466H31.2188V70.2441Z" fill="white"/>
<path d="M39.024 70.2441H35.1216V74.1466H39.024V70.2441Z" fill="white"/>
<path d="M42.9269 70.2441H39.0244V74.1466H42.9269V70.2441Z" fill="white"/>
<path d="M50.7315 70.2441H46.8291V74.1466H50.7315V70.2441Z" fill="white"/>
<path d="M54.6344 70.2441H50.7319V74.1466H54.6344V70.2441Z" fill="white"/>
<path d="M105.366 70.2441H101.463V74.1466H105.366V70.2441Z" fill="white"/>
<path d="M109.268 70.2441H105.366V74.1466H109.268V70.2441Z" fill="white"/>
<path d="M117.073 70.2441H113.171V74.1466H117.073V70.2441Z" fill="white"/>
<path d="M132.683 70.2441H128.78V74.1466H132.683V70.2441Z" fill="white"/>
<path d="M144.391 70.2441H140.488V74.1466H144.391V70.2441Z" fill="white"/>
<path d="M148.293 70.2441H144.39V74.1466H148.293V70.2441Z" fill="white"/>
<path d="M152.196 70.2441H148.293V74.1466H152.196V70.2441Z" fill="white"/>
<path d="M7.80479 74.1465H3.90234V78.0489H7.80479V74.1465Z" fill="white"/>
<path d="M19.5123 74.147H15.6099V78.0494H19.5123V74.147Z" fill="white"/>
<path d="M31.2188 74.1465H27.3164V78.0489H31.2188V74.1465Z" fill="white"/>
<path d="M39.024 74.1465H35.1216V78.0489H39.024V74.1465Z" fill="white"/>
<path d="M42.9269 74.1465H39.0244V78.0489H42.9269V74.1465Z" fill="white"/>
<path d="M54.6344 74.147H50.7319V78.0494H54.6344V74.147Z" fill="white"/>
<path d="M109.268 74.1465H105.366V78.0489H109.268V74.1465Z" fill="white"/>
<path d="M113.171 74.1465H109.268V78.0489H113.171V74.1465Z" fill="white"/>
<path d="M117.073 74.1465H113.171V78.0489H117.073V74.1465Z" fill="white"/>
<path d="M132.683 74.1465H128.78V78.0489H132.683V74.1465Z" fill="white"/>
<path d="M136.586 74.147H132.684V78.0494H136.586V74.147Z" fill="white"/>
<path d="M140.488 74.147H136.585V78.0494H140.488V74.147Z" fill="white"/>
<path d="M148.293 74.1465H144.39V78.0489H148.293V74.1465Z" fill="white"/>
<path d="M152.196 74.147H148.293V78.0494H152.196V74.147Z" fill="white"/>
<path d="M11.7071 78.0488H7.80469V81.9513H11.7071V78.0488Z" fill="white"/>
<path d="M15.61 78.0488H11.7075V81.9513H15.61V78.0488Z" fill="white"/>
<path d="M23.4142 78.0488H19.5117V81.9513H23.4142V78.0488Z" fill="white"/>
<path d="M27.317 78.0488H23.4146V81.9513H27.317V78.0488Z" fill="white"/>
<path d="M31.2188 78.0488H27.3164V81.9513H31.2188V78.0488Z" fill="white"/>
<path d="M46.8287 78.0488H42.9263V81.9513H46.8287V78.0488Z" fill="white"/>
<path d="M54.6344 78.0488H50.7319V81.9513H54.6344V78.0488Z" fill="white"/>
<path d="M58.5362 78.0488H54.6338V81.9513H58.5362V78.0488Z" fill="white"/>
<path d="M109.268 78.0488H105.366V81.9513H109.268V78.0488Z" fill="white"/>
<path d="M117.073 78.0488H113.171V81.9513H117.073V78.0488Z" fill="white"/>
<path d="M132.683 78.0488H128.78V81.9513H132.683V78.0488Z" fill="white"/>
<path d="M136.586 78.0488H132.684V81.9513H136.586V78.0488Z" fill="white"/>
<path d="M140.488 78.0488H136.585V81.9513H140.488V78.0488Z" fill="white"/>
<path d="M144.391 78.0488H140.488V81.9513H144.391V78.0488Z" fill="white"/>
<path d="M152.196 78.0488H148.293V81.9513H152.196V78.0488Z" fill="white"/>
<path d="M160 78.0488H156.098V81.9513H160V78.0488Z" fill="white"/>
<path d="M7.80479 81.9512H3.90234V85.8536H7.80479V81.9512Z" fill="white"/>
<path d="M23.4142 81.9512H19.5117V85.8536H23.4142V81.9512Z" fill="white"/>
<path d="M42.9269 81.9512H39.0244V85.8536H42.9269V81.9512Z" fill="white"/>
<path d="M46.8287 81.9512H42.9263V85.8536H46.8287V81.9512Z" fill="white"/>
<path d="M50.7315 81.9512H46.8291V85.8536H50.7315V81.9512Z" fill="white"/>
<path d="M58.5362 81.9512H54.6338V85.8536H58.5362V81.9512Z" fill="white"/>
<path d="M113.171 81.9512H109.268V85.8536H113.171V81.9512Z" fill="white"/>
<path d="M124.878 81.9512H120.976V85.8536H124.878V81.9512Z" fill="white"/>
<path d="M132.683 81.9512H128.78V85.8536H132.683V81.9512Z" fill="white"/>
<path d="M136.586 81.9512H132.684V85.8536H136.586V81.9512Z" fill="white"/>
<path d="M144.391 81.9512H140.488V85.8536H144.391V81.9512Z" fill="white"/>
<path d="M148.293 81.9512H144.39V85.8536H148.293V81.9512Z" fill="white"/>
<path d="M156.098 81.9512H152.195V85.8536H156.098V81.9512Z" fill="white"/>
<path d="M160 81.9512H156.098V85.8536H160V81.9512Z" fill="white"/>
<path d="M7.80479 85.853H3.90234V89.7555H7.80479V85.853Z" fill="white"/>
<path d="M11.7071 85.8535H7.80469V89.756H11.7071V85.8535Z" fill="white"/>
<path d="M19.5123 85.8535H15.6099V89.756H19.5123V85.8535Z" fill="white"/>
<path d="M27.317 85.8535H23.4146V89.756H27.317V85.8535Z" fill="white"/>
<path d="M35.1222 85.8535H31.2197V89.756H35.1222V85.8535Z" fill="white"/>
<path d="M54.6344 85.8535H50.7319V89.756H54.6344V85.8535Z" fill="white"/>
<path d="M105.366 85.8535H101.463V89.756H105.366V85.8535Z" fill="white"/>
<path d="M113.171 85.8535H109.268V89.756H113.171V85.8535Z" fill="white"/>
<path d="M117.073 85.853H113.171V89.7555H117.073V85.853Z" fill="white"/>
<path d="M132.683 85.8535H128.78V89.756H132.683V85.8535Z" fill="white"/>
<path d="M136.586 85.8535H132.684V89.756H136.586V85.8535Z" fill="white"/>
<path d="M140.488 85.8535H136.585V89.756H140.488V85.8535Z" fill="white"/>
<path d="M152.196 85.8535H148.293V89.756H152.196V85.8535Z" fill="white"/>
<path d="M156.098 85.8535H152.195V89.756H156.098V85.8535Z" fill="white"/>
<path d="M3.90244 89.7559H0V93.6583H3.90244V89.7559Z" fill="white"/>
<path d="M7.80479 89.7563H3.90234V93.6588H7.80479V89.7563Z" fill="white"/>
<path d="M19.5123 89.7559H15.6099V93.6583H19.5123V89.7559Z" fill="white"/>
<path d="M23.4142 89.7563H19.5117V93.6588H23.4142V89.7563Z" fill="white"/>
<path d="M35.1222 89.7559H31.2197V93.6583H35.1222V89.7559Z" fill="white"/>
<path d="M46.8287 89.7563H42.9263V93.6588H46.8287V89.7563Z" fill="white"/>
<path d="M50.7315 89.7559H46.8291V93.6583H50.7315V89.7559Z" fill="white"/>
<path d="M54.6344 89.7559H50.7319V93.6583H54.6344V89.7559Z" fill="white"/>
<path d="M58.5362 89.7563H54.6338V93.6588H58.5362V89.7563Z" fill="white"/>
<path d="M105.366 89.7559H101.463V93.6583H105.366V89.7559Z" fill="white"/>
<path d="M113.171 89.7563H109.268V93.6588H113.171V89.7563Z" fill="white"/>
<path d="M124.878 89.7559H120.976V93.6583H124.878V89.7559Z" fill="white"/>
<path d="M128.781 89.7559H124.878V93.6583H128.781V89.7559Z" fill="white"/>
<path d="M132.683 89.7563H128.78V93.6588H132.683V89.7563Z" fill="white"/>
<path d="M136.586 89.7559H132.684V93.6583H136.586V89.7559Z" fill="white"/>
<path d="M140.488 89.7559H136.585V93.6583H140.488V89.7559Z" fill="white"/>
<path d="M148.293 89.7563H144.39V93.6588H148.293V89.7563Z" fill="white"/>
<path d="M160 89.7559H156.098V93.6583H160V89.7559Z" fill="white"/>
<path d="M15.61 93.6587H11.7075V97.5611H15.61V93.6587Z" fill="white"/>
<path d="M19.5123 93.6587H15.6099V97.5611H19.5123V93.6587Z" fill="white"/>
<path d="M27.317 93.6582H23.4146V97.5606H27.317V93.6582Z" fill="white"/>
<path d="M35.1222 93.6587H31.2197V97.5611H35.1222V93.6587Z" fill="white"/>
<path d="M42.9269 93.6582H39.0244V97.5606H42.9269V93.6582Z" fill="white"/>
<path d="M50.7315 93.6587H46.8291V97.5611H50.7315V93.6587Z" fill="white"/>
<path d="M109.268 93.6582H105.366V97.5606H109.268V93.6582Z" fill="white"/>
<path d="M117.073 93.6582H113.171V97.5606H117.073V93.6582Z" fill="white"/>
<path d="M124.878 93.6587H120.976V97.5611H124.878V93.6587Z" fill="white"/>
<path d="M148.293 93.6582H144.39V97.5606H148.293V93.6582Z" fill="white"/>
<path d="M152.196 93.6587H148.293V97.5611H152.196V93.6587Z" fill="white"/>
<path d="M156.098 93.6587H152.195V97.5611H156.098V93.6587Z" fill="white"/>
<path d="M160 93.6587H156.098V97.5611H160V93.6587Z" fill="white"/>
<path d="M3.90244 97.561H0V101.463H3.90244V97.561Z" fill="white"/>
<path d="M7.80479 97.561H3.90234V101.463H7.80479V97.561Z" fill="white"/>
<path d="M15.61 97.561H11.7075V101.463H15.61V97.561Z" fill="white"/>
<path d="M31.2188 97.561H27.3164V101.463H31.2188V97.561Z" fill="white"/>
<path d="M50.7315 97.561H46.8291V101.463H50.7315V97.561Z" fill="white"/>
<path d="M58.5362 97.561H54.6338V101.463H58.5362V97.561Z" fill="white"/>
<path d="M105.366 97.561H101.463V101.463H105.366V97.561Z" fill="white"/>
<path d="M109.268 97.561H105.366V101.463H109.268V97.561Z" fill="white"/>
<path d="M117.073 97.561H113.171V101.463H117.073V97.561Z" fill="white"/>
<path d="M120.976 97.561H117.073V101.463H120.976V97.561Z" fill="white"/>
<path d="M124.878 97.561H120.976V101.463H124.878V97.561Z" fill="white"/>
<path d="M128.781 97.561H124.878V101.463H128.781V97.561Z" fill="white"/>
<path d="M136.586 97.561H132.684V101.463H136.586V97.561Z" fill="white"/>
<path d="M148.293 97.561H144.39V101.463H148.293V97.561Z" fill="white"/>
<path d="M152.196 97.561H148.293V101.463H152.196V97.561Z" fill="white"/>
<path d="M160 97.561H156.098V101.463H160V97.561Z" fill="white"/>
<path d="M7.80479 101.463H3.90234V105.366H7.80479V101.463Z" fill="white"/>
<path d="M11.7071 101.463H7.80469V105.366H11.7071V101.463Z" fill="white"/>
<path d="M15.61 101.463H11.7075V105.365H15.61V101.463Z" fill="white"/>
<path d="M27.317 101.463H23.4146V105.366H27.317V101.463Z" fill="white"/>
<path d="M39.024 101.463H35.1216V105.366H39.024V101.463Z" fill="white"/>
<path d="M54.6344 101.463H50.7319V105.365H54.6344V101.463Z" fill="white"/>
<path d="M58.5362 101.463H54.6338V105.366H58.5362V101.463Z" fill="white"/>
<path d="M120.976 101.463H117.073V105.365H120.976V101.463Z" fill="white"/>
<path d="M124.878 101.463H120.976V105.365H124.878V101.463Z" fill="white"/>
<path d="M128.781 101.463H124.878V105.365H128.781V101.463Z" fill="white"/>
<path d="M140.488 101.463H136.585V105.365H140.488V101.463Z" fill="white"/>
<path d="M144.391 101.463H140.488V105.365H144.391V101.463Z" fill="white"/>
<path d="M148.293 101.463H144.39V105.366H148.293V101.463Z" fill="white"/>
<path d="M156.098 101.463H152.195V105.365H156.098V101.463Z" fill="white"/>
<path d="M160 101.463H156.098V105.365H160V101.463Z" fill="white"/>
<path d="M3.90244 105.366H0V109.268H3.90244V105.366Z" fill="white"/>
<path d="M15.61 105.366H11.7075V109.268H15.61V105.366Z" fill="white"/>
<path d="M19.5123 105.366H15.6099V109.268H19.5123V105.366Z" fill="white"/>
<path d="M31.2188 105.366H27.3164V109.268H31.2188V105.366Z" fill="white"/>
<path d="M35.1222 105.366H31.2197V109.268H35.1222V105.366Z" fill="white"/>
<path d="M39.024 105.366H35.1216V109.268H39.024V105.366Z" fill="white"/>
<path d="M42.9269 105.366H39.0244V109.268H42.9269V105.366Z" fill="white"/>
<path d="M58.5362 105.366H54.6338V109.268H58.5362V105.366Z" fill="white"/>
<path d="M74.1466 105.366H70.2441V109.268H74.1466V105.366Z" fill="white"/>
<path d="M89.7564 105.366H85.854V109.268H89.7564V105.366Z" fill="white"/>
<path d="M93.6583 105.366H89.7559V109.268H93.6583V105.366Z" fill="white"/>
<path d="M105.366 105.366H101.463V109.268H105.366V105.366Z" fill="white"/>
<path d="M124.878 105.366H120.976V109.268H124.878V105.366Z" fill="white"/>
<path d="M128.781 105.366H124.878V109.268H128.781V105.366Z" fill="white"/>
<path d="M132.683 105.366H128.78V109.268H132.683V105.366Z" fill="white"/>
<path d="M140.488 105.366H136.585V109.268H140.488V105.366Z" fill="white"/>
<path d="M148.293 105.366H144.39V109.268H148.293V105.366Z" fill="white"/>
<path d="M160 105.366H156.098V109.268H160V105.366Z" fill="white"/>
<path d="M3.90244 109.268H0V113.171H3.90244V109.268Z" fill="white"/>
<path d="M11.7071 109.268H7.80469V113.171H11.7071V109.268Z" fill="white"/>
<path d="M15.61 109.268H11.7075V113.171H15.61V109.268Z" fill="white"/>
<path d="M27.317 109.268H23.4146V113.171H27.317V109.268Z" fill="white"/>
<path d="M31.2188 109.268H27.3164V113.171H31.2188V109.268Z" fill="white"/>
<path d="M35.1222 109.268H31.2197V113.171H35.1222V109.268Z" fill="white"/>
<path d="M39.024 109.268H35.1216V113.171H39.024V109.268Z" fill="white"/>
<path d="M46.8287 109.268H42.9263V113.171H46.8287V109.268Z" fill="white"/>
<path d="M50.7315 109.268H46.8291V113.171H50.7315V109.268Z" fill="white"/>
<path d="M54.6344 109.268H50.7319V113.171H54.6344V109.268Z" fill="white"/>
<path d="M58.5362 109.268H54.6338V113.171H58.5362V109.268Z" fill="white"/>
<path d="M66.3419 109.268H62.4395V113.171H66.3419V109.268Z" fill="white"/>
<path d="M70.2442 109.268H66.3418V113.171H70.2442V109.268Z" fill="white"/>
<path d="M74.1466 109.268H70.2441V113.171H74.1466V109.268Z" fill="white"/>
<path d="M78.0484 109.268H74.146V113.171H78.0484V109.268Z" fill="white"/>
<path d="M89.7564 109.268H85.854V113.171H89.7564V109.268Z" fill="white"/>
<path d="M124.878 109.268H120.976V113.171H124.878V109.268Z" fill="white"/>
<path d="M140.488 109.268H136.585V113.171H140.488V109.268Z" fill="white"/>
<path d="M144.391 109.268H140.488V113.171H144.391V109.268Z" fill="white"/>
<path d="M148.293 109.268H144.39V113.171H148.293V109.268Z" fill="white"/>
<path d="M156.098 109.268H152.195V113.171H156.098V109.268Z" fill="white"/>
<path d="M160 109.268H156.098V113.171H160V109.268Z" fill="white"/>
<path d="M7.80479 113.17H3.90234V117.073H7.80479V113.17Z" fill="white"/>
<path d="M15.61 113.17H11.7075V117.073H15.61V113.17Z" fill="white"/>
<path d="M23.4142 113.171H19.5117V117.073H23.4142V113.171Z" fill="white"/>
<path d="M31.2188 113.171H27.3164V117.073H31.2188V113.171Z" fill="white"/>
<path d="M39.024 113.171H35.1216V117.073H39.024V113.171Z" fill="white"/>
<path d="M50.7315 113.171H46.8291V117.073H50.7315V113.171Z" fill="white"/>
<path d="M62.4391 113.17H58.5366V117.073H62.4391V113.17Z" fill="white"/>
<path d="M70.2442 113.17H66.3418V117.073H70.2442V113.17Z" fill="white"/>
<path d="M85.8536 113.171H81.9512V117.073H85.8536V113.171Z" fill="white"/>
<path d="M89.7564 113.17H85.854V117.073H89.7564V113.17Z" fill="white"/>
<path d="M101.463 113.171H97.561V117.073H101.463V113.171Z" fill="white"/>
<path d="M105.366 113.171H101.463V117.073H105.366V113.171Z" fill="white"/>
<path d="M113.171 113.171H109.268V117.073H113.171V113.171Z" fill="white"/>
<path d="M117.073 113.17H113.171V117.073H117.073V113.17Z" fill="white"/>
<path d="M132.683 113.171H128.78V117.073H132.683V113.171Z" fill="white"/>
<path d="M152.196 113.17H148.293V117.073H152.196V113.17Z" fill="white"/>
<path d="M3.90244 117.073H0V120.976H3.90244V117.073Z" fill="white"/>
<path d="M15.61 117.073H11.7075V120.976H15.61V117.073Z" fill="white"/>
<path d="M27.317 117.073H23.4146V120.976H27.317V117.073Z" fill="white"/>
<path d="M35.1222 117.073H31.2197V120.976H35.1222V117.073Z" fill="white"/>
<path d="M39.024 117.073H35.1216V120.976H39.024V117.073Z" fill="white"/>
<path d="M42.9269 117.073H39.0244V120.976H42.9269V117.073Z" fill="white"/>
<path d="M46.8287 117.073H42.9263V120.976H46.8287V117.073Z" fill="white"/>
<path d="M50.7315 117.073H46.8291V120.976H50.7315V117.073Z" fill="white"/>
<path d="M66.3419 117.073H62.4395V120.976H66.3419V117.073Z" fill="white"/>
<path d="M70.2442 117.073H66.3418V120.976H70.2442V117.073Z" fill="white"/>
<path d="M74.1466 117.073H70.2441V120.976H74.1466V117.073Z" fill="white"/>
<path d="M78.0484 117.073H74.146V120.976H78.0484V117.073Z" fill="white"/>
<path d="M85.8536 117.073H81.9512V120.976H85.8536V117.073Z" fill="white"/>
<path d="M89.7564 117.073H85.854V120.976H89.7564V117.073Z" fill="white"/>
<path d="M93.6583 117.073H89.7559V120.976H93.6583V117.073Z" fill="white"/>
<path d="M101.463 117.073H97.561V120.976H101.463V117.073Z" fill="white"/>
<path d="M105.366 117.073H101.463V120.976H105.366V117.073Z" fill="white"/>
<path d="M109.268 117.073H105.366V120.976H109.268V117.073Z" fill="white"/>
<path d="M113.171 117.073H109.268V120.976H113.171V117.073Z" fill="white"/>
<path d="M117.073 117.073H113.171V120.976H117.073V117.073Z" fill="white"/>
<path d="M128.781 117.073H124.878V120.976H128.781V117.073Z" fill="white"/>
<path d="M132.683 117.073H128.78V120.976H132.683V117.073Z" fill="white"/>
<path d="M136.586 117.073H132.684V120.976H136.586V117.073Z" fill="white"/>
<path d="M140.488 117.073H136.585V120.976H140.488V117.073Z" fill="white"/>
<path d="M144.391 117.073H140.488V120.976H144.391V117.073Z" fill="white"/>
<path d="M156.098 117.073H152.195V120.976H156.098V117.073Z" fill="white"/>
<path d="M15.61 120.976H11.7075V124.878H15.61V120.976Z" fill="white"/>
<path d="M31.2188 120.976H27.3164V124.878H31.2188V120.976Z" fill="white"/>
<path d="M46.8287 120.976H42.9263V124.878H46.8287V120.976Z" fill="white"/>
<path d="M54.6344 120.976H50.7319V124.878H54.6344V120.976Z" fill="white"/>
<path d="M62.4391 120.976H58.5366V124.878H62.4391V120.976Z" fill="white"/>
<path d="M66.3419 120.976H62.4395V124.878H66.3419V120.976Z" fill="white"/>
<path d="M74.1466 120.976H70.2441V124.878H74.1466V120.976Z" fill="white"/>
<path d="M93.6583 120.976H89.7559V124.878H93.6583V120.976Z" fill="white"/>
<path d="M97.5606 120.976H93.6582V124.878H97.5606V120.976Z" fill="white"/>
<path d="M101.463 120.976H97.561V124.878H101.463V120.976Z" fill="white"/>
<path d="M117.073 120.976H113.171V124.878H117.073V120.976Z" fill="white"/>
<path d="M124.878 120.976H120.976V124.878H124.878V120.976Z" fill="white"/>
<path d="M128.781 120.976H124.878V124.878H128.781V120.976Z" fill="white"/>
<path d="M136.586 120.976H132.684V124.878H136.586V120.976Z" fill="white"/>
<path d="M148.293 120.976H144.39V124.878H148.293V120.976Z" fill="white"/>
<path d="M152.196 120.976H148.293V124.878H152.196V120.976Z" fill="white"/>
<path d="M7.80479 124.878H3.90234V128.78H7.80479V124.878Z" fill="white"/>
<path d="M27.317 124.878H23.4146V128.781H27.317V124.878Z" fill="white"/>
<path d="M31.2188 124.878H27.3164V128.781H31.2188V124.878Z" fill="white"/>
<path d="M35.1222 124.878H31.2197V128.78H35.1222V124.878Z" fill="white"/>
<path d="M46.8287 124.878H42.9263V128.781H46.8287V124.878Z" fill="white"/>
<path d="M54.6344 124.878H50.7319V128.781H54.6344V124.878Z" fill="white"/>
<path d="M62.4391 124.878H58.5366V128.78H62.4391V124.878Z" fill="white"/>
<path d="M66.3419 124.878H62.4395V128.781H66.3419V124.878Z" fill="white"/>
<path d="M78.0484 124.878H74.146V128.781H78.0484V124.878Z" fill="white"/>
<path d="M85.8536 124.878H81.9512V128.781H85.8536V124.878Z" fill="white"/>
<path d="M93.6583 124.878H89.7559V128.781H93.6583V124.878Z" fill="white"/>
<path d="M101.463 124.878H97.561V128.781H101.463V124.878Z" fill="white"/>
<path d="M105.366 124.878H101.463V128.781H105.366V124.878Z" fill="white"/>
<path d="M113.171 124.878H109.268V128.781H113.171V124.878Z" fill="white"/>
<path d="M117.073 124.878H113.171V128.78H117.073V124.878Z" fill="white"/>
<path d="M120.976 124.878H117.073V128.781H120.976V124.878Z" fill="white"/>
<path d="M124.878 124.878H120.976V128.781H124.878V124.878Z" fill="white"/>
<path d="M128.781 124.878H124.878V128.781H128.781V124.878Z" fill="white"/>
<path d="M132.683 124.878H128.78V128.781H132.683V124.878Z" fill="white"/>
<path d="M136.586 124.878H132.684V128.781H136.586V124.878Z" fill="white"/>
<path d="M140.488 124.878H136.585V128.781H140.488V124.878Z" fill="white"/>
<path d="M144.391 124.878H140.488V128.78H144.391V124.878Z" fill="white"/>
<path d="M148.293 124.878H144.39V128.781H148.293V124.878Z" fill="white"/>
<path d="M152.196 124.878H148.293V128.78H152.196V124.878Z" fill="white"/>
<path d="M160 124.878H156.098V128.781H160V124.878Z" fill="white"/>
<path d="M35.1222 128.781H31.2197V132.683H35.1222V128.781Z" fill="white"/>
<path d="M39.024 128.78H35.1216V132.683H39.024V128.78Z" fill="white"/>
<path d="M42.9269 128.78H39.0244V132.683H42.9269V128.78Z" fill="white"/>
<path d="M58.5362 128.78H54.6338V132.683H58.5362V128.78Z" fill="white"/>
<path d="M62.4391 128.78H58.5366V132.683H62.4391V128.78Z" fill="white"/>
<path d="M74.1466 128.781H70.2441V132.683H74.1466V128.781Z" fill="white"/>
<path d="M85.8536 128.781H81.9512V132.683H85.8536V128.781Z" fill="white"/>
<path d="M97.5606 128.78H93.6582V132.683H97.5606V128.78Z" fill="white"/>
<path d="M101.463 128.781H97.561V132.683H101.463V128.781Z" fill="white"/>
<path d="M105.366 128.781H101.463V132.683H105.366V128.781Z" fill="white"/>
<path d="M113.171 128.78H109.268V132.683H113.171V128.78Z" fill="white"/>
<path d="M117.073 128.78H113.171V132.683H117.073V128.78Z" fill="white"/>
<path d="M120.976 128.781H117.073V132.683H120.976V128.781Z" fill="white"/>
<path d="M128.781 128.781H124.878V132.683H128.781V128.781Z" fill="white"/>
<path d="M144.391 128.781H140.488V132.683H144.391V128.781Z" fill="white"/>
<path d="M148.293 128.78H144.39V132.683H148.293V128.78Z" fill="white"/>
<path d="M160 128.781H156.098V132.683H160V128.781Z" fill="white"/>
<path d="M35.1222 132.683H31.2197V136.586H35.1222V132.683Z" fill="white"/>
<path d="M42.9269 132.683H39.0244V136.586H42.9269V132.683Z" fill="white"/>
<path d="M46.8287 132.683H42.9263V136.586H46.8287V132.683Z" fill="white"/>
<path d="M54.6344 132.683H50.7319V136.586H54.6344V132.683Z" fill="white"/>
<path d="M62.4391 132.683H58.5366V136.586H62.4391V132.683Z" fill="white"/>
<path d="M78.0484 132.683H74.146V136.586H78.0484V132.683Z" fill="white"/>
<path d="M81.9513 132.683H78.0488V136.586H81.9513V132.683Z" fill="white"/>
<path d="M89.7564 132.683H85.854V136.586H89.7564V132.683Z" fill="white"/>
<path d="M93.6583 132.683H89.7559V136.586H93.6583V132.683Z" fill="white"/>
<path d="M97.5606 132.683H93.6582V136.586H97.5606V132.683Z" fill="white"/>
<path d="M101.463 132.683H97.561V136.586H101.463V132.683Z" fill="white"/>
<path d="M113.171 132.683H109.268V136.586H113.171V132.683Z" fill="white"/>
<path d="M117.073 132.683H113.171V136.586H117.073V132.683Z" fill="white"/>
<path d="M124.878 132.683H120.976V136.586H124.878V132.683Z" fill="white"/>
<path d="M128.781 132.683H124.878V136.586H128.781V132.683Z" fill="white"/>
<path d="M136.586 132.683H132.684V136.586H136.586V132.683Z" fill="white"/>
<path d="M144.391 132.683H140.488V136.586H144.391V132.683Z" fill="white"/>
<path d="M156.098 132.683H152.195V136.586H156.098V132.683Z" fill="white"/>
<path d="M66.3419 136.585H62.4395V140.488H66.3419V136.585Z" fill="white"/>
<path d="M70.2442 136.585H66.3418V140.488H70.2442V136.585Z" fill="white"/>
<path d="M74.1466 136.585H70.2441V140.488H74.1466V136.585Z" fill="white"/>
<path d="M81.9513 136.585H78.0488V140.488H81.9513V136.585Z" fill="white"/>
<path d="M85.8536 136.585H81.9512V140.488H85.8536V136.585Z" fill="white"/>
<path d="M97.5606 136.585H93.6582V140.488H97.5606V136.585Z" fill="white"/>
<path d="M113.171 136.585H109.268V140.488H113.171V136.585Z" fill="white"/>
<path d="M120.976 136.585H117.073V140.488H120.976V136.585Z" fill="white"/>
<path d="M128.781 136.585H124.878V140.488H128.781V136.585Z" fill="white"/>
<path d="M144.391 136.585H140.488V140.488H144.391V136.585Z" fill="white"/>
<path d="M156.098 136.585H152.195V140.488H156.098V136.585Z" fill="white"/>
<path d="M160 136.585H156.098V140.488H160V136.585Z" fill="white"/>
<path d="M39.024 140.488H35.1216V144.39H39.024V140.488Z" fill="white"/>
<path d="M42.9269 140.488H39.0244V144.39H42.9269V140.488Z" fill="white"/>
<path d="M46.8287 140.488H42.9263V144.39H46.8287V140.488Z" fill="white"/>
<path d="M50.7315 140.488H46.8291V144.39H50.7315V140.488Z" fill="white"/>
<path d="M58.5362 140.488H54.6338V144.39H58.5362V140.488Z" fill="white"/>
<path d="M62.4391 140.488H58.5366V144.39H62.4391V140.488Z" fill="white"/>
<path d="M66.3419 140.488H62.4395V144.39H66.3419V140.488Z" fill="white"/>
<path d="M74.1466 140.488H70.2441V144.39H74.1466V140.488Z" fill="white"/>
<path d="M81.9513 140.488H78.0488V144.39H81.9513V140.488Z" fill="white"/>
<path d="M85.8536 140.488H81.9512V144.39H85.8536V140.488Z" fill="white"/>
<path d="M97.5606 140.488H93.6582V144.39H97.5606V140.488Z" fill="white"/>
<path d="M101.463 140.488H97.561V144.39H101.463V140.488Z" fill="white"/>
<path d="M117.073 140.488H113.171V144.39H117.073V140.488Z" fill="white"/>
<path d="M120.976 140.488H117.073V144.39H120.976V140.488Z" fill="white"/>
<path d="M128.781 140.488H124.878V144.39H128.781V140.488Z" fill="white"/>
<path d="M132.683 140.488H128.78V144.39H132.683V140.488Z" fill="white"/>
<path d="M136.586 140.488H132.684V144.39H136.586V140.488Z" fill="white"/>
<path d="M140.488 140.488H136.585V144.39H140.488V140.488Z" fill="white"/>
<path d="M144.391 140.488H140.488V144.39H144.391V140.488Z" fill="white"/>
<path d="M152.196 140.488H148.293V144.39H152.196V140.488Z" fill="white"/>
<path d="M156.098 140.488H152.195V144.39H156.098V140.488Z" fill="white"/>
<path d="M35.1222 144.391H31.2197V148.293H35.1222V144.391Z" fill="white"/>
<path d="M46.8287 144.39H42.9263V148.293H46.8287V144.39Z" fill="white"/>
<path d="M50.7315 144.391H46.8291V148.293H50.7315V144.391Z" fill="white"/>
<path d="M58.5362 144.39H54.6338V148.293H58.5362V144.39Z" fill="white"/>
<path d="M66.3419 144.391H62.4395V148.293H66.3419V144.391Z" fill="white"/>
<path d="M74.1466 144.391H70.2441V148.293H74.1466V144.391Z" fill="white"/>
<path d="M78.0484 144.39H74.146V148.293H78.0484V144.39Z" fill="white"/>
<path d="M89.7564 144.391H85.854V148.293H89.7564V144.391Z" fill="white"/>
<path d="M93.6583 144.39H89.7559V148.293H93.6583V144.39Z" fill="white"/>
<path d="M101.463 144.391H97.561V148.293H101.463V144.391Z" fill="white"/>
<path d="M105.366 144.391H101.463V148.293H105.366V144.391Z" fill="white"/>
<path d="M109.268 144.39H105.366V148.293H109.268V144.39Z" fill="white"/>
<path d="M113.171 144.39H109.268V148.293H113.171V144.39Z" fill="white"/>
<path d="M117.073 144.39H113.171V148.293H117.073V144.39Z" fill="white"/>
<path d="M120.976 144.391H117.073V148.293H120.976V144.391Z" fill="white"/>
<path d="M124.878 144.391H120.976V148.293H124.878V144.391Z" fill="white"/>
<path d="M144.391 144.391H140.488V148.293H144.391V144.391Z" fill="white"/>
<path d="M152.196 144.391H148.293V148.293H152.196V144.391Z" fill="white"/>
<path d="M156.098 144.391H152.195V148.293H156.098V144.391Z" fill="white"/>
<path d="M160 144.391H156.098V148.293H160V144.391Z" fill="white"/>
<path d="M35.1222 148.292H31.2197V152.195H35.1222V148.292Z" fill="white"/>
<path d="M42.9269 148.292H39.0244V152.195H42.9269V148.292Z" fill="white"/>
<path d="M54.6344 148.293H50.7319V152.195H54.6344V148.293Z" fill="white"/>
<path d="M66.3419 148.293H62.4395V152.195H66.3419V148.293Z" fill="white"/>
<path d="M81.9513 148.293H78.0488V152.195H81.9513V148.293Z" fill="white"/>
<path d="M85.8536 148.293H81.9512V152.195H85.8536V148.293Z" fill="white"/>
<path d="M97.5606 148.293H93.6582V152.195H97.5606V148.293Z" fill="white"/>
<path d="M124.878 148.293H120.976V152.195H124.878V148.293Z" fill="white"/>
<path d="M140.488 148.293H136.585V152.195H140.488V148.293Z" fill="white"/>
<path d="M160 148.293H156.098V152.195H160V148.293Z" fill="white"/>
<path d="M50.7315 152.195H46.8291V156.097H50.7315V152.195Z" fill="white"/>
<path d="M66.3419 152.195H62.4395V156.097H66.3419V152.195Z" fill="white"/>
<path d="M78.0484 152.195H74.146V156.098H78.0484V152.195Z" fill="white"/>
<path d="M81.9513 152.195H78.0488V156.098H81.9513V152.195Z" fill="white"/>
<path d="M85.8536 152.195H81.9512V156.097H85.8536V152.195Z" fill="white"/>
<path d="M89.7564 152.195H85.854V156.097H89.7564V152.195Z" fill="white"/>
<path d="M97.5606 152.195H93.6582V156.098H97.5606V152.195Z" fill="white"/>
<path d="M101.463 152.195H97.561V156.097H101.463V152.195Z" fill="white"/>
<path d="M105.366 152.195H101.463V156.097H105.366V152.195Z" fill="white"/>
<path d="M113.171 152.195H109.268V156.098H113.171V152.195Z" fill="white"/>
<path d="M120.976 152.195H117.073V156.097H120.976V152.195Z" fill="white"/>
<path d="M128.781 152.195H124.878V156.097H128.781V152.195Z" fill="white"/>
<path d="M136.586 152.195H132.684V156.097H136.586V152.195Z" fill="white"/>
<path d="M144.391 152.195H140.488V156.097H144.391V152.195Z" fill="white"/>
<path d="M156.098 152.195H152.195V156.097H156.098V152.195Z" fill="white"/>
<path d="M42.9269 156.098H39.0244V160H42.9269V156.098Z" fill="white"/>
<path d="M46.8287 156.098H42.9263V160H46.8287V156.098Z" fill="white"/>
<path d="M50.7315 156.098H46.8291V160H50.7315V156.098Z" fill="white"/>
<path d="M58.5362 156.098H54.6338V160H58.5362V156.098Z" fill="white"/>
<path d="M62.4391 156.098H58.5366V160H62.4391V156.098Z" fill="white"/>
<path d="M81.9513 156.098H78.0488V160H81.9513V156.098Z" fill="white"/>
<path d="M89.7564 156.098H85.854V160H89.7564V156.098Z" fill="white"/>
<path d="M93.6583 156.098H89.7559V160H93.6583V156.098Z" fill="white"/>
<path d="M97.5606 156.098H93.6582V160H97.5606V156.098Z" fill="white"/>
<path d="M105.366 156.098H101.463V160H105.366V156.098Z" fill="white"/>
<path d="M109.268 156.098H105.366V160H109.268V156.098Z" fill="white"/>
<path d="M113.171 156.098H109.268V160H113.171V156.098Z" fill="white"/>
<path d="M120.976 156.098H117.073V160H120.976V156.098Z" fill="white"/>
<path d="M124.878 156.098H120.976V160H124.878V156.098Z" fill="white"/>
<path d="M128.781 156.098H124.878V160H128.781V156.098Z" fill="white"/>
<path d="M132.683 156.098H128.78V160H132.683V156.098Z" fill="white"/>
<path d="M136.586 156.098H132.684V160H136.586V156.098Z" fill="white"/>
<path d="M148.293 156.098H144.39V160H148.293V156.098Z" fill="white"/>
<path d="M156.098 156.098H152.195V160H156.098V156.098Z" fill="white"/>
<path d="M23.2205 0.000488281H4.09854H0.000976562V4.09805V23.22V27.3176H4.09854H23.2205H27.3181V23.22V4.09805V0.000488281H23.2205ZM23.2205 23.22H4.09854V4.09805H23.2205V23.22Z" fill="white"/>
<path d="M155.902 0H136.78H132.683V4.09756V23.2195V27.3171H136.78H155.902H160V23.2195V4.09756V0H155.902ZM155.902 23.2195H136.78V4.09756H155.902V23.2195Z" fill="white"/>
<path d="M23.219 132.683H4.09708H-0.000488281V136.781V155.903V160H4.09708H23.219H27.3166V155.903V136.781V132.683H23.219ZM23.219 155.903H4.09708V136.781H23.219V155.903Z" fill="white"/>
<path d="M19.512 7.80469H7.80469V19.512H19.512V7.80469Z" fill="white"/>
<path d="M152.195 7.80469H140.487V19.512H152.195V7.80469Z" fill="white"/>
<path d="M19.512 140.488H7.80469V152.195H19.512V140.488Z" fill="white"/>
<path d="M89.2767 81.0263C89.2767 76.7219 92.8886 74.6391 93.0275 74.5003C90.9438 71.5844 87.8876 71.1679 86.7763 71.029C84.1368 70.7513 81.4974 72.5564 80.2471 72.5564C78.858 72.5564 76.7742 71.029 74.5516 71.029C71.6343 71.029 68.9949 72.6953 67.4668 75.3334C64.4106 80.6098 66.6333 88.3853 69.5505 92.6897C71.0786 94.7726 72.7456 97.1329 74.9683 96.9942C77.191 96.8553 78.0245 95.6056 80.664 95.6056C83.3033 95.6056 83.9979 96.9942 86.3595 96.9942C88.7212 96.9942 90.2492 94.9113 91.6383 92.8286C93.3054 90.4681 94 88.1076 94 87.9689C93.861 87.83 89.2767 86.1637 89.2767 81.0263Z" fill="white"/>
<path d="M85.1445 68.6057C86.2768 67.0642 87.1262 65.1021 86.9845 63C85.286 63.1401 83.0213 64.1211 81.889 65.6627C80.7566 66.924 79.7658 69.0261 80.0489 70.9881C81.889 71.1283 83.8706 70.0072 85.1445 68.6057Z" fill="white"/>
</g>
<defs>
<clipPath id="clip0">
<rect width="160" height="160" fill="white"/>
</clipPath>
</defs>
</svg>
