<svg width="160" height="160" viewBox="0 0 160 160" fill="none" xmlns="http://www.w3.org/2000/svg">
<g clip-path="url(#clip0)">
<path d="M29.3874 -0.000488281H26.1221V3.26482H29.3874V-0.000488281Z" fill="white"/>
<path d="M32.6525 -0.000488281H29.3872V3.26482H32.6525V-0.000488281Z" fill="white"/>
<path d="M42.4484 -0.000488281H39.1831V3.26482H42.4484V-0.000488281Z" fill="white"/>
<path d="M45.714 -0.000488281H42.4487V3.26482H45.714V-0.000488281Z" fill="white"/>
<path d="M62.0412 0H58.7759V3.26531H62.0412V0Z" fill="white"/>
<path d="M65.3053 -0.000488281H62.04V3.26482H65.3053V-0.000488281Z" fill="white"/>
<path d="M81.6325 -0.000488281H78.3672V3.26482H81.6325V-0.000488281Z" fill="white"/>
<path d="M88.1633 -0.000488281H84.8979V3.26482H88.1633V-0.000488281Z" fill="white"/>
<path d="M91.4284 -0.000488281H88.1631V3.26482H91.4284V-0.000488281Z" fill="white"/>
<path d="M94.6935 0H91.4282V3.26531H94.6935V0Z" fill="white"/>
<path d="M101.225 -0.000488281H97.9595V3.26482H101.225V-0.000488281Z" fill="white"/>
<path d="M104.489 -0.000488281H101.224V3.26482H104.489V-0.000488281Z" fill="white"/>
<path d="M117.55 -0.000488281H114.285V3.26482H117.55V-0.000488281Z" fill="white"/>
<path d="M124.082 -0.000488281H120.816V3.26482H124.082V-0.000488281Z" fill="white"/>
<path d="M133.877 -0.000488281H130.612V3.26482H133.877V-0.000488281Z" fill="white"/>
<path d="M29.3874 3.26514H26.1221V6.53044H29.3874V3.26514Z" fill="white"/>
<path d="M32.6525 3.26514H29.3872V6.53044H32.6525V3.26514Z" fill="white"/>
<path d="M35.9181 3.26514H32.6528V6.53044H35.9181V3.26514Z" fill="white"/>
<path d="M45.714 3.26514H42.4487V6.53044H45.714V3.26514Z" fill="white"/>
<path d="M58.7751 3.26514H55.5098V6.53044H58.7751V3.26514Z" fill="white"/>
<path d="M78.3678 3.26514H75.1025V6.53044H78.3678V3.26514Z" fill="white"/>
<path d="M81.6325 3.26514H78.3672V6.53044H81.6325V3.26514Z" fill="white"/>
<path d="M84.8976 3.26514H81.6323V6.53044H84.8976V3.26514Z" fill="white"/>
<path d="M88.1633 3.26514H84.8979V6.53044H88.1633V3.26514Z" fill="white"/>
<path d="M94.6935 3.26514H91.4282V6.53044H94.6935V3.26514Z" fill="white"/>
<path d="M104.489 3.26514H101.224V6.53044H104.489V3.26514Z" fill="white"/>
<path d="M107.755 3.26514H104.489V6.53044H107.755V3.26514Z" fill="white"/>
<path d="M114.285 3.26514H111.02V6.53044H114.285V3.26514Z" fill="white"/>
<path d="M117.55 3.26514H114.285V6.53044H117.55V3.26514Z" fill="white"/>
<path d="M124.082 3.26514H120.816V6.53044H124.082V3.26514Z" fill="white"/>
<path d="M127.346 3.26514H124.081V6.53044H127.346V3.26514Z" fill="white"/>
<path d="M130.611 3.26514H127.346V6.53044H130.611V3.26514Z" fill="white"/>
<path d="M133.877 3.26514H130.612V6.53044H133.877V3.26514Z" fill="white"/>
<path d="M29.3874 6.53027H26.1221V9.79558H29.3874V6.53027Z" fill="white"/>
<path d="M32.6525 6.53027H29.3872V9.79558H32.6525V6.53027Z" fill="white"/>
<path d="M35.9181 6.53027H32.6528V9.79558H35.9181V6.53027Z" fill="white"/>
<path d="M39.1838 6.53027H35.9185V9.79558H39.1838V6.53027Z" fill="white"/>
<path d="M45.714 6.53027H42.4487V9.79558H45.714V6.53027Z" fill="white"/>
<path d="M52.2448 6.53027H48.9795V9.79558H52.2448V6.53027Z" fill="white"/>
<path d="M58.7751 6.53027H55.5098V9.79558H58.7751V6.53027Z" fill="white"/>
<path d="M65.3053 6.53027H62.04V9.79558H65.3053V6.53027Z" fill="white"/>
<path d="M68.571 6.53027H65.3057V9.79558H68.571V6.53027Z" fill="white"/>
<path d="M88.1633 6.53027H84.8979V9.79558H88.1633V6.53027Z" fill="white"/>
<path d="M91.4284 6.53027H88.1631V9.79558H91.4284V6.53027Z" fill="white"/>
<path d="M101.225 6.53027H97.9595V9.79558H101.225V6.53027Z" fill="white"/>
<path d="M104.489 6.53027H101.224V9.79558H104.489V6.53027Z" fill="white"/>
<path d="M107.755 6.53027H104.489V9.79558H107.755V6.53027Z" fill="white"/>
<path d="M130.611 6.53076H127.346V9.79607H130.611V6.53076Z" fill="white"/>
<path d="M133.877 6.53027H130.612V9.79558H133.877V6.53027Z" fill="white"/>
<path d="M32.6525 9.7959H29.3872V13.0612H32.6525V9.7959Z" fill="white"/>
<path d="M39.1838 9.79541H35.9185V13.0607H39.1838V9.79541Z" fill="white"/>
<path d="M42.4484 9.79541H39.1831V13.0607H42.4484V9.79541Z" fill="white"/>
<path d="M48.9797 9.7959H45.7144V13.0612H48.9797V9.7959Z" fill="white"/>
<path d="M52.2448 9.79541H48.9795V13.0607H52.2448V9.79541Z" fill="white"/>
<path d="M55.5099 9.7959H52.2446V13.0612H55.5099V9.7959Z" fill="white"/>
<path d="M58.7751 9.7959H55.5098V13.0612H58.7751V9.7959Z" fill="white"/>
<path d="M62.0412 9.79541H58.7759V13.0607H62.0412V9.79541Z" fill="white"/>
<path d="M71.8371 9.7959H68.5718V13.0612H71.8371V9.7959Z" fill="white"/>
<path d="M75.1017 9.79541H71.8364V13.0607H75.1017V9.79541Z" fill="white"/>
<path d="M78.3678 9.7959H75.1025V13.0612H78.3678V9.7959Z" fill="white"/>
<path d="M81.6325 9.7959H78.3672V13.0612H81.6325V9.7959Z" fill="white"/>
<path d="M84.8976 9.79541H81.6323V13.0607H84.8976V9.79541Z" fill="white"/>
<path d="M97.9592 9.79541H94.6938V13.0607H97.9592V9.79541Z" fill="white"/>
<path d="M101.225 9.79541H97.9595V13.0607H101.225V9.79541Z" fill="white"/>
<path d="M107.755 9.79541H104.489V13.0607H107.755V9.79541Z" fill="white"/>
<path d="M111.02 9.7959H107.755V13.0612H111.02V9.7959Z" fill="white"/>
<path d="M117.55 9.79541H114.285V13.0607H117.55V9.79541Z" fill="white"/>
<path d="M120.816 9.79541H117.551V13.0607H120.816V9.79541Z" fill="white"/>
<path d="M130.611 9.79541H127.346V13.0607H130.611V9.79541Z" fill="white"/>
<path d="M35.9181 13.0605H32.6528V16.3259H35.9181V13.0605Z" fill="white"/>
<path d="M48.9797 13.061H45.7144V16.3263H48.9797V13.061Z" fill="white"/>
<path d="M58.7751 13.061H55.5098V16.3263H58.7751V13.061Z" fill="white"/>
<path d="M62.0412 13.061H58.7759V16.3263H62.0412V13.061Z" fill="white"/>
<path d="M65.3053 13.061H62.04V16.3263H65.3053V13.061Z" fill="white"/>
<path d="M75.1017 13.061H71.8364V16.3263H75.1017V13.061Z" fill="white"/>
<path d="M78.3678 13.0605H75.1025V16.3259H78.3678V13.0605Z" fill="white"/>
<path d="M81.6325 13.061H78.3672V16.3263H81.6325V13.061Z" fill="white"/>
<path d="M84.8976 13.061H81.6323V16.3263H84.8976V13.061Z" fill="white"/>
<path d="M88.1633 13.061H84.8979V16.3263H88.1633V13.061Z" fill="white"/>
<path d="M97.9592 13.061H94.6938V16.3263H97.9592V13.061Z" fill="white"/>
<path d="M101.225 13.061H97.9595V16.3263H101.225V13.061Z" fill="white"/>
<path d="M120.816 13.061H117.551V16.3263H120.816V13.061Z" fill="white"/>
<path d="M124.082 13.061H120.816V16.3263H124.082V13.061Z" fill="white"/>
<path d="M29.3874 16.3262H26.1221V19.5915H29.3874V16.3262Z" fill="white"/>
<path d="M39.1838 16.3262H35.9185V19.5915H39.1838V16.3262Z" fill="white"/>
<path d="M42.4484 16.3262H39.1831V19.5915H42.4484V16.3262Z" fill="white"/>
<path d="M52.2448 16.3262H48.9795V19.5915H52.2448V16.3262Z" fill="white"/>
<path d="M58.7751 16.3267H55.5098V19.592H58.7751V16.3267Z" fill="white"/>
<path d="M68.571 16.3267H65.3057V19.592H68.571V16.3267Z" fill="white"/>
<path d="M71.8371 16.3267H68.5718V19.592H71.8371V16.3267Z" fill="white"/>
<path d="M75.1017 16.3262H71.8364V19.5915H75.1017V16.3262Z" fill="white"/>
<path d="M88.1633 16.3262H84.8979V19.5915H88.1633V16.3262Z" fill="white"/>
<path d="M94.6935 16.3267H91.4282V19.592H94.6935V16.3267Z" fill="white"/>
<path d="M101.225 16.3262H97.9595V19.5915H101.225V16.3262Z" fill="white"/>
<path d="M111.02 16.3267H107.755V19.592H111.02V16.3267Z" fill="white"/>
<path d="M114.285 16.3262H111.02V19.5915H114.285V16.3262Z" fill="white"/>
<path d="M117.55 16.3262H114.285V19.5915H117.55V16.3262Z" fill="white"/>
<path d="M127.346 16.3262H124.081V19.5915H127.346V16.3262Z" fill="white"/>
<path d="M29.3874 19.5918H26.1221V22.8571H29.3874V19.5918Z" fill="white"/>
<path d="M35.9181 19.5918H32.6528V22.8571H35.9181V19.5918Z" fill="white"/>
<path d="M42.4484 19.5918H39.1831V22.8571H42.4484V19.5918Z" fill="white"/>
<path d="M48.9797 19.5918H45.7144V22.8571H48.9797V19.5918Z" fill="white"/>
<path d="M55.5099 19.5918H52.2446V22.8571H55.5099V19.5918Z" fill="white"/>
<path d="M62.0412 19.5913H58.7759V22.8566H62.0412V19.5913Z" fill="white"/>
<path d="M68.571 19.5918H65.3057V22.8571H68.571V19.5918Z" fill="white"/>
<path d="M75.1017 19.5918H71.8364V22.8571H75.1017V19.5918Z" fill="white"/>
<path d="M81.6325 19.5918H78.3672V22.8571H81.6325V19.5918Z" fill="white"/>
<path d="M88.1633 19.5918H84.8979V22.8571H88.1633V19.5918Z" fill="white"/>
<path d="M94.6935 19.5918H91.4282V22.8571H94.6935V19.5918Z" fill="white"/>
<path d="M101.225 19.5918H97.9595V22.8571H101.225V19.5918Z" fill="white"/>
<path d="M107.755 19.5918H104.489V22.8571H107.755V19.5918Z" fill="white"/>
<path d="M114.285 19.5918H111.02V22.8571H114.285V19.5918Z" fill="white"/>
<path d="M120.816 19.5918H117.551V22.8571H120.816V19.5918Z" fill="white"/>
<path d="M127.346 19.5913H124.081V22.8566H127.346V19.5913Z" fill="white"/>
<path d="M133.877 19.5918H130.612V22.8571H133.877V19.5918Z" fill="white"/>
<path d="M29.3874 22.8569H26.1221V26.1222H29.3874V22.8569Z" fill="white"/>
<path d="M55.5099 22.8569H52.2446V26.1222H55.5099V22.8569Z" fill="white"/>
<path d="M62.0412 22.8569H58.7759V26.1222H62.0412V22.8569Z" fill="white"/>
<path d="M65.3053 22.8564H62.04V26.1218H65.3053V22.8564Z" fill="white"/>
<path d="M68.571 22.8569H65.3057V26.1222H68.571V22.8569Z" fill="white"/>
<path d="M75.1017 22.8569H71.8364V26.1222H75.1017V22.8569Z" fill="white"/>
<path d="M88.1633 22.8569H84.8979V26.1222H88.1633V22.8569Z" fill="white"/>
<path d="M91.4284 22.8569H88.1631V26.1222H91.4284V22.8569Z" fill="white"/>
<path d="M107.755 22.8569H104.489V26.1222H107.755V22.8569Z" fill="white"/>
<path d="M111.02 22.8569H107.755V26.1222H111.02V22.8569Z" fill="white"/>
<path d="M120.816 22.8569H117.551V26.1222H120.816V22.8569Z" fill="white"/>
<path d="M130.611 22.8569H127.346V26.1222H130.611V22.8569Z" fill="white"/>
<path d="M9.79558 26.1221H6.53027V29.3874H9.79558V26.1221Z" fill="white"/>
<path d="M13.0612 26.1221H9.7959V29.3874H13.0612V26.1221Z" fill="white"/>
<path d="M16.3263 26.1221H13.061V29.3874H16.3263V26.1221Z" fill="white"/>
<path d="M22.8571 26.1221H19.5918V29.3874H22.8571V26.1221Z" fill="white"/>
<path d="M29.3874 26.1221H26.1221V29.3874H29.3874V26.1221Z" fill="white"/>
<path d="M32.6525 26.1221H29.3872V29.3874H32.6525V26.1221Z" fill="white"/>
<path d="M39.1838 26.1226H35.9185V29.3879H39.1838V26.1226Z" fill="white"/>
<path d="M42.4484 26.1221H39.1831V29.3874H42.4484V26.1221Z" fill="white"/>
<path d="M55.5099 26.1221H52.2446V29.3874H55.5099V26.1221Z" fill="white"/>
<path d="M58.7751 26.1221H55.5098V29.3874H58.7751V26.1221Z" fill="white"/>
<path d="M62.0412 26.1221H58.7759V29.3874H62.0412V26.1221Z" fill="white"/>
<path d="M68.571 26.1221H65.3057V29.3874H68.571V26.1221Z" fill="white"/>
<path d="M75.1017 26.1221H71.8364V29.3874H75.1017V26.1221Z" fill="white"/>
<path d="M78.3678 26.1221H75.1025V29.3874H78.3678V26.1221Z" fill="white"/>
<path d="M81.6325 26.1221H78.3672V29.3874H81.6325V26.1221Z" fill="white"/>
<path d="M84.8976 26.1221H81.6323V29.3874H84.8976V26.1221Z" fill="white"/>
<path d="M88.1633 26.1221H84.8979V29.3874H88.1633V26.1221Z" fill="white"/>
<path d="M91.4284 26.1221H88.1631V29.3874H91.4284V26.1221Z" fill="white"/>
<path d="M97.9592 26.1221H94.6938V29.3874H97.9592V26.1221Z" fill="white"/>
<path d="M101.225 26.1226H97.9595V29.3879H101.225V26.1226Z" fill="white"/>
<path d="M104.489 26.1216H101.224V29.3869H104.489V26.1216Z" fill="white"/>
<path d="M107.755 26.1221H104.489V29.3874H107.755V26.1221Z" fill="white"/>
<path d="M117.55 26.1221H114.285V29.3874H117.55V26.1221Z" fill="white"/>
<path d="M127.346 26.1226H124.081V29.3879H127.346V26.1226Z" fill="white"/>
<path d="M130.611 26.1216H127.346V29.3869H130.611V26.1216Z" fill="white"/>
<path d="M133.877 26.1221H130.612V29.3874H133.877V26.1221Z" fill="white"/>
<path d="M137.143 26.1221H133.877V29.3874H137.143V26.1221Z" fill="white"/>
<path d="M140.408 26.1221H137.143V29.3874H140.408V26.1221Z" fill="white"/>
<path d="M143.673 26.1221H140.408V29.3874H143.673V26.1221Z" fill="white"/>
<path d="M153.469 26.1221H150.204V29.3874H153.469V26.1221Z" fill="white"/>
<path d="M156.735 26.1221H153.469V29.3874H156.735V26.1221Z" fill="white"/>
<path d="M160 26.1221H156.735V29.3874H160V26.1221Z" fill="white"/>
<path d="M3.26482 29.3872H-0.000488281V32.6525H3.26482V29.3872Z" fill="white"/>
<path d="M16.3263 29.3877H13.061V32.653H16.3263V29.3877Z" fill="white"/>
<path d="M26.1227 29.3877H22.8574V32.653H26.1227V29.3877Z" fill="white"/>
<path d="M35.9181 29.3877H32.6528V32.653H35.9181V29.3877Z" fill="white"/>
<path d="M39.1838 29.3872H35.9185V32.6525H39.1838V29.3872Z" fill="white"/>
<path d="M42.4484 29.3877H39.1831V32.653H42.4484V29.3877Z" fill="white"/>
<path d="M45.714 29.3877H42.4487V32.653H45.714V29.3877Z" fill="white"/>
<path d="M48.9797 29.3877H45.7144V32.653H48.9797V29.3877Z" fill="white"/>
<path d="M52.2448 29.3872H48.9795V32.6525H52.2448V29.3872Z" fill="white"/>
<path d="M55.5099 29.3877H52.2446V32.653H55.5099V29.3877Z" fill="white"/>
<path d="M58.7751 29.3877H55.5098V32.653H58.7751V29.3877Z" fill="white"/>
<path d="M62.0412 29.3877H58.7759V32.653H62.0412V29.3877Z" fill="white"/>
<path d="M65.3053 29.3872H62.04V32.6525H65.3053V29.3872Z" fill="white"/>
<path d="M68.571 29.3877H65.3057V32.653H68.571V29.3877Z" fill="white"/>
<path d="M71.8371 29.3877H68.5718V32.653H71.8371V29.3877Z" fill="white"/>
<path d="M75.1017 29.3877H71.8364V32.653H75.1017V29.3877Z" fill="white"/>
<path d="M81.6325 29.3877H78.3672V32.653H81.6325V29.3877Z" fill="white"/>
<path d="M88.1633 29.3877H84.8979V32.653H88.1633V29.3877Z" fill="white"/>
<path d="M94.6935 29.3877H91.4282V32.653H94.6935V29.3877Z" fill="white"/>
<path d="M97.9592 29.3877H94.6938V32.653H97.9592V29.3877Z" fill="white"/>
<path d="M101.225 29.3872H97.9595V32.6525H101.225V29.3872Z" fill="white"/>
<path d="M107.755 29.3877H104.489V32.653H107.755V29.3877Z" fill="white"/>
<path d="M124.082 29.3877H120.816V32.653H124.082V29.3877Z" fill="white"/>
<path d="M140.408 29.3877H137.143V32.653H140.408V29.3877Z" fill="white"/>
<path d="M156.735 29.3877H153.469V32.653H156.735V29.3877Z" fill="white"/>
<path d="M3.26482 32.6528H-0.000488281V35.9181H3.26482V32.6528Z" fill="white"/>
<path d="M13.0612 32.6528H9.7959V35.9181H13.0612V32.6528Z" fill="white"/>
<path d="M16.3263 32.6528H13.061V35.9181H16.3263V32.6528Z" fill="white"/>
<path d="M22.8571 32.6528H19.5918V35.9181H22.8571V32.6528Z" fill="white"/>
<path d="M26.1227 32.6528H22.8574V35.9181H26.1227V32.6528Z" fill="white"/>
<path d="M29.3874 32.6528H26.1221V35.9181H29.3874V32.6528Z" fill="white"/>
<path d="M39.1838 32.6528H35.9185V35.9181H39.1838V32.6528Z" fill="white"/>
<path d="M45.714 32.6528H42.4487V35.9181H45.714V32.6528Z" fill="white"/>
<path d="M48.9797 32.6528H45.7144V35.9181H48.9797V32.6528Z" fill="white"/>
<path d="M52.2448 32.6528H48.9795V35.9181H52.2448V32.6528Z" fill="white"/>
<path d="M62.0412 32.6528H58.7759V35.9181H62.0412V32.6528Z" fill="white"/>
<path d="M65.3053 32.6528H62.04V35.9181H65.3053V32.6528Z" fill="white"/>
<path d="M68.571 32.6528H65.3057V35.9181H68.571V32.6528Z" fill="white"/>
<path d="M84.8976 32.6528H81.6323V35.9181H84.8976V32.6528Z" fill="white"/>
<path d="M88.1633 32.6528H84.8979V35.9181H88.1633V32.6528Z" fill="white"/>
<path d="M94.6935 32.6528H91.4282V35.9181H94.6935V32.6528Z" fill="white"/>
<path d="M101.225 32.6528H97.9595V35.9181H101.225V32.6528Z" fill="white"/>
<path d="M104.489 32.6528H101.224V35.9181H104.489V32.6528Z" fill="white"/>
<path d="M107.755 32.6528H104.489V35.9181H107.755V32.6528Z" fill="white"/>
<path d="M114.285 32.6528H111.02V35.9181H114.285V32.6528Z" fill="white"/>
<path d="M117.55 32.6528H114.285V35.9181H117.55V32.6528Z" fill="white"/>
<path d="M127.346 32.6528H124.081V35.9181H127.346V32.6528Z" fill="white"/>
<path d="M130.611 32.6528H127.346V35.9181H130.611V32.6528Z" fill="white"/>
<path d="M133.877 32.6528H130.612V35.9181H133.877V32.6528Z" fill="white"/>
<path d="M137.143 32.6528H133.877V35.9181H137.143V32.6528Z" fill="white"/>
<path d="M143.673 32.6528H140.408V35.9181H143.673V32.6528Z" fill="white"/>
<path d="M160 32.6528H156.735V35.9181H160V32.6528Z" fill="white"/>
<path d="M13.0612 35.918H9.7959V39.1833H13.0612V35.918Z" fill="white"/>
<path d="M16.3263 35.918H13.061V39.1833H16.3263V35.918Z" fill="white"/>
<path d="M19.5915 35.918H16.3262V39.1833H19.5915V35.918Z" fill="white"/>
<path d="M32.6525 35.918H29.3872V39.1833H32.6525V35.918Z" fill="white"/>
<path d="M35.9181 35.918H32.6528V39.1833H35.9181V35.918Z" fill="white"/>
<path d="M42.4484 35.918H39.1831V39.1833H42.4484V35.918Z" fill="white"/>
<path d="M45.714 35.918H42.4487V39.1833H45.714V35.918Z" fill="white"/>
<path d="M52.2448 35.918H48.9795V39.1833H52.2448V35.918Z" fill="white"/>
<path d="M55.5099 35.918H52.2446V39.1833H55.5099V35.918Z" fill="white"/>
<path d="M65.3053 35.918H62.04V39.1833H65.3053V35.918Z" fill="white"/>
<path d="M75.1017 35.918H71.8364V39.1833H75.1017V35.918Z" fill="white"/>
<path d="M88.1633 35.918H84.8979V39.1833H88.1633V35.918Z" fill="white"/>
<path d="M97.9592 35.918H94.6938V39.1833H97.9592V35.918Z" fill="white"/>
<path d="M101.225 35.918H97.9595V39.1833H101.225V35.918Z" fill="white"/>
<path d="M104.489 35.918H101.224V39.1833H104.489V35.918Z" fill="white"/>
<path d="M107.755 35.918H104.489V39.1833H107.755V35.918Z" fill="white"/>
<path d="M114.285 35.918H111.02V39.1833H114.285V35.918Z" fill="white"/>
<path d="M120.816 35.918H117.551V39.1833H120.816V35.918Z" fill="white"/>
<path d="M124.082 35.918H120.816V39.1833H124.082V35.918Z" fill="white"/>
<path d="M133.877 35.918H130.612V39.1833H133.877V35.918Z" fill="white"/>
<path d="M140.408 35.918H137.143V39.1833H140.408V35.918Z" fill="white"/>
<path d="M143.673 35.918H140.408V39.1833H143.673V35.918Z" fill="white"/>
<path d="M146.939 35.918H143.674V39.1833H146.939V35.918Z" fill="white"/>
<path d="M156.735 35.918H153.469V39.1833H156.735V35.918Z" fill="white"/>
<path d="M3.26482 39.1836H-0.000488281V42.4489H3.26482V39.1836Z" fill="white"/>
<path d="M6.52996 39.1836H3.26465V42.4489H6.52996V39.1836Z" fill="white"/>
<path d="M13.0612 39.1831H9.7959V42.4484H13.0612V39.1831Z" fill="white"/>
<path d="M16.3263 39.1836H13.061V42.4489H16.3263V39.1836Z" fill="white"/>
<path d="M19.5915 39.1836H16.3262V42.4489H19.5915V39.1836Z" fill="white"/>
<path d="M22.8571 39.1831H19.5918V42.4484H22.8571V39.1831Z" fill="white"/>
<path d="M26.1227 39.1831H22.8574V42.4484H26.1227V39.1831Z" fill="white"/>
<path d="M32.6525 39.1831H29.3872V42.4484H32.6525V39.1831Z" fill="white"/>
<path d="M39.1838 39.1836H35.9185V42.4489H39.1838V39.1836Z" fill="white"/>
<path d="M42.4484 39.1836H39.1831V42.4489H42.4484V39.1836Z" fill="white"/>
<path d="M52.2448 39.1836H48.9795V42.4489H52.2448V39.1836Z" fill="white"/>
<path d="M55.5099 39.1831H52.2446V42.4484H55.5099V39.1831Z" fill="white"/>
<path d="M62.0412 39.1836H58.7759V42.4489H62.0412V39.1836Z" fill="white"/>
<path d="M65.3053 39.1836H62.04V42.4489H65.3053V39.1836Z" fill="white"/>
<path d="M78.3678 39.1831H75.1025V42.4484H78.3678V39.1831Z" fill="white"/>
<path d="M84.8976 39.1836H81.6323V42.4489H84.8976V39.1836Z" fill="white"/>
<path d="M91.4284 39.1831H88.1631V42.4484H91.4284V39.1831Z" fill="white"/>
<path d="M104.489 39.1831H101.224V42.4484H104.489V39.1831Z" fill="white"/>
<path d="M114.285 39.1836H111.02V42.4489H114.285V39.1836Z" fill="white"/>
<path d="M117.55 39.1836H114.285V42.4489H117.55V39.1836Z" fill="white"/>
<path d="M120.816 39.1836H117.551V42.4489H120.816V39.1836Z" fill="white"/>
<path d="M130.611 39.1831H127.346V42.4484H130.611V39.1831Z" fill="white"/>
<path d="M133.877 39.1831H130.612V42.4484H133.877V39.1831Z" fill="white"/>
<path d="M143.673 39.1831H140.408V42.4484H143.673V39.1831Z" fill="white"/>
<path d="M153.469 39.1836H150.204V42.4489H153.469V39.1836Z" fill="white"/>
<path d="M160 39.1831H156.735V42.4484H160V39.1831Z" fill="white"/>
<path d="M6.52996 42.4487H3.26465V45.714H6.52996V42.4487Z" fill="white"/>
<path d="M9.79558 42.4487H6.53027V45.714H9.79558V42.4487Z" fill="white"/>
<path d="M32.6525 42.4487H29.3872V45.714H32.6525V42.4487Z" fill="white"/>
<path d="M39.1838 42.4487H35.9185V45.714H39.1838V42.4487Z" fill="white"/>
<path d="M42.4484 42.4487H39.1831V45.714H42.4484V42.4487Z" fill="white"/>
<path d="M45.714 42.4487H42.4487V45.714H45.714V42.4487Z" fill="white"/>
<path d="M48.9797 42.4487H45.7144V45.714H48.9797V42.4487Z" fill="white"/>
<path d="M62.0412 42.4487H58.7759V45.714H62.0412V42.4487Z" fill="white"/>
<path d="M78.3678 42.4487H75.1025V45.714H78.3678V42.4487Z" fill="white"/>
<path d="M91.4284 42.4487H88.1631V45.714H91.4284V42.4487Z" fill="white"/>
<path d="M94.6935 42.4487H91.4282V45.714H94.6935V42.4487Z" fill="white"/>
<path d="M97.9592 42.4487H94.6938V45.714H97.9592V42.4487Z" fill="white"/>
<path d="M130.611 42.4487H127.346V45.714H130.611V42.4487Z" fill="white"/>
<path d="M137.143 42.4487H133.877V45.714H137.143V42.4487Z" fill="white"/>
<path d="M140.408 42.4487H137.143V45.714H140.408V42.4487Z" fill="white"/>
<path d="M143.673 42.4487H140.408V45.714H143.673V42.4487Z" fill="white"/>
<path d="M150.204 42.4487H146.938V45.714H150.204V42.4487Z" fill="white"/>
<path d="M153.469 42.4487H150.204V45.714H153.469V42.4487Z" fill="white"/>
<path d="M6.52996 45.7139H3.26465V48.9792H6.52996V45.7139Z" fill="white"/>
<path d="M13.0612 45.7139H9.7959V48.9792H13.0612V45.7139Z" fill="white"/>
<path d="M16.3263 45.7139H13.061V48.9792H16.3263V45.7139Z" fill="white"/>
<path d="M19.5915 45.7139H16.3262V48.9792H19.5915V45.7139Z" fill="white"/>
<path d="M22.8571 45.7139H19.5918V48.9792H22.8571V45.7139Z" fill="white"/>
<path d="M32.6525 45.7139H29.3872V48.9792H32.6525V45.7139Z" fill="white"/>
<path d="M35.9181 45.7139H32.6528V48.9792H35.9181V45.7139Z" fill="white"/>
<path d="M45.714 45.7139H42.4487V48.9792H45.714V45.7139Z" fill="white"/>
<path d="M48.9797 45.7139H45.7144V48.9792H48.9797V45.7139Z" fill="white"/>
<path d="M55.5099 45.7139H52.2446V48.9792H55.5099V45.7139Z" fill="white"/>
<path d="M58.7751 45.7139H55.5098V48.9792H58.7751V45.7139Z" fill="white"/>
<path d="M62.0412 45.7139H58.7759V48.9792H62.0412V45.7139Z" fill="white"/>
<path d="M68.571 45.7139H65.3057V48.9792H68.571V45.7139Z" fill="white"/>
<path d="M71.8371 45.7139H68.5718V48.9792H71.8371V45.7139Z" fill="white"/>
<path d="M78.3678 45.7139H75.1025V48.9792H78.3678V45.7139Z" fill="white"/>
<path d="M81.6325 45.7139H78.3672V48.9792H81.6325V45.7139Z" fill="white"/>
<path d="M91.4284 45.7139H88.1631V48.9792H91.4284V45.7139Z" fill="white"/>
<path d="M94.6935 45.7139H91.4282V48.9792H94.6935V45.7139Z" fill="white"/>
<path d="M101.225 45.7139H97.9595V48.9792H101.225V45.7139Z" fill="white"/>
<path d="M107.755 45.7139H104.489V48.9792H107.755V45.7139Z" fill="white"/>
<path d="M111.02 45.7139H107.755V48.9792H111.02V45.7139Z" fill="white"/>
<path d="M117.55 45.7139H114.285V48.9792H117.55V45.7139Z" fill="white"/>
<path d="M120.816 45.7139H117.551V48.9792H120.816V45.7139Z" fill="white"/>
<path d="M127.346 45.7139H124.081V48.9792H127.346V45.7139Z" fill="white"/>
<path d="M130.611 45.7139H127.346V48.9792H130.611V45.7139Z" fill="white"/>
<path d="M133.877 45.7139H130.612V48.9792H133.877V45.7139Z" fill="white"/>
<path d="M156.735 45.7139H153.469V48.9792H156.735V45.7139Z" fill="white"/>
<path d="M160 45.7139H156.735V48.9792H160V45.7139Z" fill="white"/>
<path d="M3.26482 48.9795H-0.000488281V52.2448H3.26482V48.9795Z" fill="white"/>
<path d="M6.52996 48.979H3.26465V52.2443H6.52996V48.979Z" fill="white"/>
<path d="M26.1227 48.9795H22.8574V52.2448H26.1227V48.9795Z" fill="white"/>
<path d="M29.3874 48.979H26.1221V52.2443H29.3874V48.979Z" fill="white"/>
<path d="M32.6525 48.9795H29.3872V52.2448H32.6525V48.9795Z" fill="white"/>
<path d="M35.9181 48.9795H32.6528V52.2448H35.9181V48.9795Z" fill="white"/>
<path d="M42.4484 48.979H39.1831V52.2443H42.4484V48.979Z" fill="white"/>
<path d="M48.9797 48.9795H45.7144V52.2448H48.9797V48.9795Z" fill="white"/>
<path d="M55.5099 48.9795H52.2446V52.2448H55.5099V48.9795Z" fill="white"/>
<path d="M58.7751 48.9795H55.5098V52.2448H58.7751V48.9795Z" fill="white"/>
<path d="M65.3053 48.9795H62.04V52.2448H65.3053V48.9795Z" fill="white"/>
<path d="M71.8371 48.9795H68.5718V52.2448H71.8371V48.9795Z" fill="white"/>
<path d="M78.3678 48.9795H75.1025V52.2448H78.3678V48.9795Z" fill="white"/>
<path d="M81.6325 48.9795H78.3672V52.2448H81.6325V48.9795Z" fill="white"/>
<path d="M88.1633 48.979H84.8979V52.2443H88.1633V48.979Z" fill="white"/>
<path d="M97.9592 48.979H94.6938V52.2443H97.9592V48.979Z" fill="white"/>
<path d="M101.225 48.9795H97.9595V52.2448H101.225V48.9795Z" fill="white"/>
<path d="M107.755 48.979H104.489V52.2443H107.755V48.979Z" fill="white"/>
<path d="M111.02 48.9795H107.755V52.2448H111.02V48.9795Z" fill="white"/>
<path d="M130.611 48.979H127.346V52.2443H130.611V48.979Z" fill="white"/>
<path d="M133.877 48.9795H130.612V52.2448H133.877V48.9795Z" fill="white"/>
<path d="M137.143 48.9795H133.877V52.2448H137.143V48.9795Z" fill="white"/>
<path d="M146.939 48.9795H143.674V52.2448H146.939V48.9795Z" fill="white"/>
<path d="M3.26482 52.2441H-0.000488281V55.5094H3.26482V52.2441Z" fill="white"/>
<path d="M6.52996 52.2446H3.26465V55.5099H6.52996V52.2446Z" fill="white"/>
<path d="M13.0612 52.2446H9.7959V55.5099H13.0612V52.2446Z" fill="white"/>
<path d="M22.8571 52.2446H19.5918V55.5099H22.8571V52.2446Z" fill="white"/>
<path d="M29.3874 52.2446H26.1221V55.5099H29.3874V52.2446Z" fill="white"/>
<path d="M32.6525 52.2446H29.3872V55.5099H32.6525V52.2446Z" fill="white"/>
<path d="M39.1838 52.2441H35.9185V55.5094H39.1838V52.2441Z" fill="white"/>
<path d="M42.4484 52.2446H39.1831V55.5099H42.4484V52.2446Z" fill="white"/>
<path d="M45.714 52.2446H42.4487V55.5099H45.714V52.2446Z" fill="white"/>
<path d="M55.5099 52.2446H52.2446V55.5099H55.5099V52.2446Z" fill="white"/>
<path d="M117.55 52.2446H114.285V55.5099H117.55V52.2446Z" fill="white"/>
<path d="M120.816 52.2446H117.551V55.5099H120.816V52.2446Z" fill="white"/>
<path d="M124.082 52.2446H120.816V55.5099H124.082V52.2446Z" fill="white"/>
<path d="M130.611 52.2441H127.346V55.5094H130.611V52.2441Z" fill="white"/>
<path d="M143.673 52.2446H140.408V55.5099H143.673V52.2446Z" fill="white"/>
<path d="M150.204 52.2446H146.938V55.5099H150.204V52.2446Z" fill="white"/>
<path d="M153.469 52.2446H150.204V55.5099H153.469V52.2446Z" fill="white"/>
<path d="M160 52.2446H156.735V55.5099H160V52.2446Z" fill="white"/>
<path d="M9.79558 55.5103H6.53027V58.7756H9.79558V55.5103Z" fill="white"/>
<path d="M16.3263 55.5103H13.061V58.7756H16.3263V55.5103Z" fill="white"/>
<path d="M19.5915 55.5098H16.3262V58.7751H19.5915V55.5098Z" fill="white"/>
<path d="M26.1227 55.5103H22.8574V58.7756H26.1227V55.5103Z" fill="white"/>
<path d="M29.3874 55.5098H26.1221V58.7751H29.3874V55.5098Z" fill="white"/>
<path d="M42.4484 55.5098H39.1831V58.7751H42.4484V55.5098Z" fill="white"/>
<path d="M48.9797 55.5103H45.7144V58.7756H48.9797V55.5103Z" fill="white"/>
<path d="M52.2448 55.5098H48.9795V58.7751H52.2448V55.5098Z" fill="white"/>
<path d="M107.755 55.5098H104.489V58.7751H107.755V55.5098Z" fill="white"/>
<path d="M111.02 55.5103H107.755V58.7756H111.02V55.5103Z" fill="white"/>
<path d="M133.877 55.5103H130.612V58.7756H133.877V55.5103Z" fill="white"/>
<path d="M137.143 55.5103H133.877V58.7756H137.143V55.5103Z" fill="white"/>
<path d="M143.673 55.5103H140.408V58.7756H143.673V55.5103Z" fill="white"/>
<path d="M146.939 55.5103H143.674V58.7756H146.939V55.5103Z" fill="white"/>
<path d="M150.204 55.5103H146.938V58.7756H150.204V55.5103Z" fill="white"/>
<path d="M153.469 55.5098H150.204V58.7751H153.469V55.5098Z" fill="white"/>
<path d="M6.52996 58.7754H3.26465V62.0407H6.52996V58.7754Z" fill="white"/>
<path d="M9.79558 58.7754H6.53027V62.0407H9.79558V58.7754Z" fill="white"/>
<path d="M16.3263 58.7749H13.061V62.0402H16.3263V58.7749Z" fill="white"/>
<path d="M22.8571 58.7754H19.5918V62.0407H22.8571V58.7754Z" fill="white"/>
<path d="M26.1227 58.7754H22.8574V62.0407H26.1227V58.7754Z" fill="white"/>
<path d="M32.6525 58.7754H29.3872V62.0407H32.6525V58.7754Z" fill="white"/>
<path d="M35.9181 58.7754H32.6528V62.0407H35.9181V58.7754Z" fill="white"/>
<path d="M45.714 58.7754H42.4487V62.0407H45.714V58.7754Z" fill="white"/>
<path d="M48.9797 58.7754H45.7144V62.0407H48.9797V58.7754Z" fill="white"/>
<path d="M107.755 58.7754H104.489V62.0407H107.755V58.7754Z" fill="white"/>
<path d="M117.55 58.7754H114.285V62.0407H117.55V58.7754Z" fill="white"/>
<path d="M124.082 58.7754H120.816V62.0407H124.082V58.7754Z" fill="white"/>
<path d="M130.611 58.7754H127.346V62.0407H130.611V58.7754Z" fill="white"/>
<path d="M133.877 58.7754H130.612V62.0407H133.877V58.7754Z" fill="white"/>
<path d="M140.408 58.7754H137.143V62.0407H140.408V58.7754Z" fill="white"/>
<path d="M143.673 58.7754H140.408V62.0407H143.673V58.7754Z" fill="white"/>
<path d="M150.204 58.7754H146.938V62.0407H150.204V58.7754Z" fill="white"/>
<path d="M156.735 58.7754H153.469V62.0407H156.735V58.7754Z" fill="white"/>
<path d="M160 58.7754H156.735V62.0407H160V58.7754Z" fill="white"/>
<path d="M3.26482 62.0405H-0.000488281V65.3058H3.26482V62.0405Z" fill="white"/>
<path d="M6.52996 62.0405H3.26465V65.3058H6.52996V62.0405Z" fill="white"/>
<path d="M9.79558 62.0405H6.53027V65.3058H9.79558V62.0405Z" fill="white"/>
<path d="M13.0612 62.0405H9.7959V65.3058H13.0612V62.0405Z" fill="white"/>
<path d="M16.3263 62.0405H13.061V65.3058H16.3263V62.0405Z" fill="white"/>
<path d="M39.1838 62.0405H35.9185V65.3058H39.1838V62.0405Z" fill="white"/>
<path d="M42.4484 62.0405H39.1831V65.3058H42.4484V62.0405Z" fill="white"/>
<path d="M45.714 62.0405H42.4487V65.3058H45.714V62.0405Z" fill="white"/>
<path d="M48.9797 62.0405H45.7144V65.3058H48.9797V62.0405Z" fill="white"/>
<path d="M111.02 62.0405H107.755V65.3058H111.02V62.0405Z" fill="white"/>
<path d="M117.55 62.0405H114.285V65.3058H117.55V62.0405Z" fill="white"/>
<path d="M124.082 62.0405H120.816V65.3058H124.082V62.0405Z" fill="white"/>
<path d="M127.346 62.0405H124.081V65.3058H127.346V62.0405Z" fill="white"/>
<path d="M133.877 62.0405H130.612V65.3058H133.877V62.0405Z" fill="white"/>
<path d="M140.408 62.0405H137.143V65.3058H140.408V62.0405Z" fill="white"/>
<path d="M143.673 62.0405H140.408V65.3058H143.673V62.0405Z" fill="white"/>
<path d="M146.939 62.0405H143.674V65.3058H146.939V62.0405Z" fill="white"/>
<path d="M156.735 62.0405H153.469V65.3058H156.735V62.0405Z" fill="white"/>
<path d="M3.26482 65.3057H-0.000488281V68.571H3.26482V65.3057Z" fill="white"/>
<path d="M9.79558 65.3062H6.53027V68.5715H9.79558V65.3062Z" fill="white"/>
<path d="M16.3263 65.3062H13.061V68.5715H16.3263V65.3062Z" fill="white"/>
<path d="M19.5915 65.3057H16.3262V68.571H19.5915V65.3057Z" fill="white"/>
<path d="M22.8571 65.3062H19.5918V68.5715H22.8571V65.3062Z" fill="white"/>
<path d="M26.1227 65.3062H22.8574V68.5715H26.1227V65.3062Z" fill="white"/>
<path d="M48.9797 65.3062H45.7144V68.5715H48.9797V65.3062Z" fill="white"/>
<path d="M117.55 65.3057H114.285V68.571H117.55V65.3057Z" fill="white"/>
<path d="M120.816 65.3057H117.551V68.571H120.816V65.3057Z" fill="white"/>
<path d="M124.082 65.3062H120.816V68.5715H124.082V65.3062Z" fill="white"/>
<path d="M127.346 65.3057H124.081V68.571H127.346V65.3057Z" fill="white"/>
<path d="M133.877 65.3062H130.612V68.5715H133.877V65.3062Z" fill="white"/>
<path d="M140.408 65.3057H137.143V68.571H140.408V65.3057Z" fill="white"/>
<path d="M143.673 65.3062H140.408V68.5715H143.673V65.3062Z" fill="white"/>
<path d="M153.469 65.3057H150.204V68.571H153.469V65.3057Z" fill="white"/>
<path d="M156.735 65.3062H153.469V68.5715H156.735V65.3062Z" fill="white"/>
<path d="M160 65.3062H156.735V68.5715H160V65.3062Z" fill="white"/>
<path d="M3.26482 68.5713H-0.000488281V71.8366H3.26482V68.5713Z" fill="white"/>
<path d="M6.52996 68.5713H3.26465V71.8366H6.52996V68.5713Z" fill="white"/>
<path d="M9.79558 68.5713H6.53027V71.8366H9.79558V68.5713Z" fill="white"/>
<path d="M13.0612 68.5713H9.7959V71.8366H13.0612V68.5713Z" fill="white"/>
<path d="M16.3263 68.5713H13.061V71.8366H16.3263V68.5713Z" fill="white"/>
<path d="M32.6525 68.5713H29.3872V71.8366H32.6525V68.5713Z" fill="white"/>
<path d="M42.4484 68.5713H39.1831V71.8366H42.4484V68.5713Z" fill="white"/>
<path d="M45.714 68.5713H42.4487V71.8366H45.714V68.5713Z" fill="white"/>
<path d="M117.55 68.5713H114.285V71.8366H117.55V68.5713Z" fill="white"/>
<path d="M120.816 68.5713H117.551V71.8366H120.816V68.5713Z" fill="white"/>
<path d="M137.143 68.5713H133.877V71.8366H137.143V68.5713Z" fill="white"/>
<path d="M140.408 68.5713H137.143V71.8366H140.408V68.5713Z" fill="white"/>
<path d="M153.469 68.5713H150.204V71.8366H153.469V68.5713Z" fill="white"/>
<path d="M3.26482 71.8364H-0.000488281V75.1017H3.26482V71.8364Z" fill="white"/>
<path d="M16.3263 71.8364H13.061V75.1017H16.3263V71.8364Z" fill="white"/>
<path d="M19.5915 71.8364H16.3262V75.1017H19.5915V71.8364Z" fill="white"/>
<path d="M22.8571 71.8369H19.5918V75.1022H22.8571V71.8369Z" fill="white"/>
<path d="M26.1227 71.8369H22.8574V75.1022H26.1227V71.8369Z" fill="white"/>
<path d="M29.3874 71.8364H26.1221V75.1017H29.3874V71.8364Z" fill="white"/>
<path d="M35.9181 71.8369H32.6528V75.1022H35.9181V71.8369Z" fill="white"/>
<path d="M39.1838 71.8364H35.9185V75.1017H39.1838V71.8364Z" fill="white"/>
<path d="M42.4484 71.8364H39.1831V75.1017H42.4484V71.8364Z" fill="white"/>
<path d="M48.9797 71.8369H45.7144V75.1022H48.9797V71.8369Z" fill="white"/>
<path d="M52.2448 71.8364H48.9795V75.1017H52.2448V71.8364Z" fill="white"/>
<path d="M55.5099 71.8369H52.2446V75.1022H55.5099V71.8369Z" fill="white"/>
<path d="M107.755 71.8364H104.489V75.1017H107.755V71.8364Z" fill="white"/>
<path d="M114.285 71.8364H111.02V75.1017H114.285V71.8364Z" fill="white"/>
<path d="M117.55 71.8364H114.285V75.1017H117.55V71.8364Z" fill="white"/>
<path d="M120.816 71.8364H117.551V75.1017H120.816V71.8364Z" fill="white"/>
<path d="M127.346 71.8364H124.081V75.1017H127.346V71.8364Z" fill="white"/>
<path d="M130.611 71.8364H127.346V75.1017H130.611V71.8364Z" fill="white"/>
<path d="M133.877 71.8369H130.612V75.1022H133.877V71.8369Z" fill="white"/>
<path d="M137.143 71.8369H133.877V75.1022H137.143V71.8369Z" fill="white"/>
<path d="M140.408 71.8364H137.143V75.1017H140.408V71.8364Z" fill="white"/>
<path d="M143.673 71.8369H140.408V75.1022H143.673V71.8369Z" fill="white"/>
<path d="M146.939 71.8369H143.674V75.1022H146.939V71.8369Z" fill="white"/>
<path d="M153.469 71.8364H150.204V75.1017H153.469V71.8364Z" fill="white"/>
<path d="M156.735 71.8369H153.469V75.1022H156.735V71.8369Z" fill="white"/>
<path d="M160 71.8369H156.735V75.1022H160V71.8369Z" fill="white"/>
<path d="M3.26482 75.1021H-0.000488281V78.3674H3.26482V75.1021Z" fill="white"/>
<path d="M16.3263 75.1016H13.061V78.3669H16.3263V75.1016Z" fill="white"/>
<path d="M29.3874 75.1016H26.1221V78.3669H29.3874V75.1016Z" fill="white"/>
<path d="M35.9181 75.1016H32.6528V78.3669H35.9181V75.1016Z" fill="white"/>
<path d="M39.1838 75.1021H35.9185V78.3674H39.1838V75.1021Z" fill="white"/>
<path d="M55.5099 75.1016H52.2446V78.3669H55.5099V75.1016Z" fill="white"/>
<path d="M111.02 75.1016H107.755V78.3669H111.02V75.1016Z" fill="white"/>
<path d="M130.611 75.1016H127.346V78.3669H130.611V75.1016Z" fill="white"/>
<path d="M133.877 75.1016H130.612V78.3669H133.877V75.1016Z" fill="white"/>
<path d="M146.939 75.1016H143.674V78.3669H146.939V75.1016Z" fill="white"/>
<path d="M156.735 75.1016H153.469V78.3669H156.735V75.1016Z" fill="white"/>
<path d="M160 75.1016H156.735V78.3669H160V75.1016Z" fill="white"/>
<path d="M3.26482 78.3667H-0.000488281V81.632H3.26482V78.3667Z" fill="white"/>
<path d="M6.52996 78.3672H3.26465V81.6325H6.52996V78.3672Z" fill="white"/>
<path d="M9.79558 78.3672H6.53027V81.6325H9.79558V78.3672Z" fill="white"/>
<path d="M13.0612 78.3672H9.7959V81.6325H13.0612V78.3672Z" fill="white"/>
<path d="M16.3263 78.3672H13.061V81.6325H16.3263V78.3672Z" fill="white"/>
<path d="M22.8571 78.3672H19.5918V81.6325H22.8571V78.3672Z" fill="white"/>
<path d="M29.3874 78.3672H26.1221V81.6325H29.3874V78.3672Z" fill="white"/>
<path d="M35.9181 78.3667H32.6528V81.632H35.9181V78.3667Z" fill="white"/>
<path d="M39.1838 78.3667H35.9185V81.632H39.1838V78.3667Z" fill="white"/>
<path d="M45.714 78.3672H42.4487V81.6325H45.714V78.3672Z" fill="white"/>
<path d="M55.5099 78.3672H52.2446V81.6325H55.5099V78.3672Z" fill="white"/>
<path d="M107.755 78.3672H104.489V81.6325H107.755V78.3672Z" fill="white"/>
<path d="M114.285 78.3667H111.02V81.632H114.285V78.3667Z" fill="white"/>
<path d="M120.816 78.3672H117.551V81.6325H120.816V78.3672Z" fill="white"/>
<path d="M124.082 78.3672H120.816V81.6325H124.082V78.3672Z" fill="white"/>
<path d="M127.346 78.3667H124.081V81.632H127.346V78.3667Z" fill="white"/>
<path d="M130.611 78.3672H127.346V81.6325H130.611V78.3672Z" fill="white"/>
<path d="M133.877 78.3672H130.612V81.6325H133.877V78.3672Z" fill="white"/>
<path d="M140.408 78.3672H137.143V81.6325H140.408V78.3672Z" fill="white"/>
<path d="M146.939 78.3672H143.674V81.6325H146.939V78.3672Z" fill="white"/>
<path d="M150.204 78.3672H146.938V81.6325H150.204V78.3672Z" fill="white"/>
<path d="M153.469 78.3672H150.204V81.6325H153.469V78.3672Z" fill="white"/>
<path d="M3.26482 81.6328H-0.000488281V84.8981H3.26482V81.6328Z" fill="white"/>
<path d="M6.52996 81.6323H3.26465V84.8976H6.52996V81.6323Z" fill="white"/>
<path d="M16.3263 81.6323H13.061V84.8976H16.3263V81.6323Z" fill="white"/>
<path d="M29.3874 81.6323H26.1221V84.8976H29.3874V81.6323Z" fill="white"/>
<path d="M32.6525 81.6323H29.3872V84.8976H32.6525V81.6323Z" fill="white"/>
<path d="M35.9181 81.6328H32.6528V84.8981H35.9181V81.6328Z" fill="white"/>
<path d="M39.1838 81.6328H35.9185V84.8981H39.1838V81.6328Z" fill="white"/>
<path d="M42.4484 81.6323H39.1831V84.8976H42.4484V81.6323Z" fill="white"/>
<path d="M45.714 81.6323H42.4487V84.8976H45.714V81.6323Z" fill="white"/>
<path d="M48.9797 81.6323H45.7144V84.8976H48.9797V81.6323Z" fill="white"/>
<path d="M52.2448 81.6328H48.9795V84.8981H52.2448V81.6328Z" fill="white"/>
<path d="M55.5099 81.6323H52.2446V84.8976H55.5099V81.6323Z" fill="white"/>
<path d="M107.755 81.6323H104.489V84.8976H107.755V81.6323Z" fill="white"/>
<path d="M117.55 81.6323H114.285V84.8976H117.55V81.6323Z" fill="white"/>
<path d="M120.816 81.6323H117.551V84.8976H120.816V81.6323Z" fill="white"/>
<path d="M124.082 81.6323H120.816V84.8976H124.082V81.6323Z" fill="white"/>
<path d="M130.611 81.6328H127.346V84.8981H130.611V81.6328Z" fill="white"/>
<path d="M133.877 81.6323H130.612V84.8976H133.877V81.6323Z" fill="white"/>
<path d="M146.939 81.6323H143.674V84.8976H146.939V81.6323Z" fill="white"/>
<path d="M6.52996 84.8979H3.26465V88.1633H6.52996V84.8979Z" fill="white"/>
<path d="M9.79558 84.8979H6.53027V88.1633H9.79558V84.8979Z" fill="white"/>
<path d="M16.3263 84.8979H13.061V88.1633H16.3263V84.8979Z" fill="white"/>
<path d="M19.5915 84.8979H16.3262V88.1633H19.5915V84.8979Z" fill="white"/>
<path d="M22.8571 84.8979H19.5918V88.1633H22.8571V84.8979Z" fill="white"/>
<path d="M26.1227 84.8979H22.8574V88.1633H26.1227V84.8979Z" fill="white"/>
<path d="M29.3874 84.8979H26.1221V88.1633H29.3874V84.8979Z" fill="white"/>
<path d="M42.4484 84.8979H39.1831V88.1633H42.4484V84.8979Z" fill="white"/>
<path d="M45.714 84.8979H42.4487V88.1633H45.714V84.8979Z" fill="white"/>
<path d="M48.9797 84.8979H45.7144V88.1633H48.9797V84.8979Z" fill="white"/>
<path d="M52.2448 84.8975H48.9795V88.1628H52.2448V84.8975Z" fill="white"/>
<path d="M55.5099 84.8979H52.2446V88.1633H55.5099V84.8979Z" fill="white"/>
<path d="M107.755 84.8979H104.489V88.1633H107.755V84.8979Z" fill="white"/>
<path d="M114.285 84.8975H111.02V88.1628H114.285V84.8975Z" fill="white"/>
<path d="M117.55 84.8979H114.285V88.1633H117.55V84.8979Z" fill="white"/>
<path d="M127.346 84.8975H124.081V88.1628H127.346V84.8975Z" fill="white"/>
<path d="M133.877 84.8979H130.612V88.1633H133.877V84.8979Z" fill="white"/>
<path d="M137.143 84.8979H133.877V88.1633H137.143V84.8979Z" fill="white"/>
<path d="M140.408 84.8979H137.143V88.1633H140.408V84.8979Z" fill="white"/>
<path d="M143.673 84.8979H140.408V88.1633H143.673V84.8979Z" fill="white"/>
<path d="M146.939 84.8979H143.674V88.1633H146.939V84.8979Z" fill="white"/>
<path d="M156.735 84.8979H153.469V88.1633H156.735V84.8979Z" fill="white"/>
<path d="M160 84.8979H156.735V88.1633H160V84.8979Z" fill="white"/>
<path d="M6.52996 88.1626H3.26465V91.4279H6.52996V88.1626Z" fill="white"/>
<path d="M13.0612 88.1631H9.7959V91.4284H13.0612V88.1631Z" fill="white"/>
<path d="M16.3263 88.1626H13.061V91.4279H16.3263V88.1626Z" fill="white"/>
<path d="M39.1838 88.1631H35.9185V91.4284H39.1838V88.1631Z" fill="white"/>
<path d="M107.755 88.1626H104.489V91.4279H107.755V88.1626Z" fill="white"/>
<path d="M111.02 88.1631H107.755V91.4284H111.02V88.1631Z" fill="white"/>
<path d="M124.082 88.1631H120.816V91.4284H124.082V88.1631Z" fill="white"/>
<path d="M127.346 88.1631H124.081V91.4284H127.346V88.1631Z" fill="white"/>
<path d="M133.877 88.1631H130.612V91.4284H133.877V88.1631Z" fill="white"/>
<path d="M137.143 88.1631H133.877V91.4284H137.143V88.1631Z" fill="white"/>
<path d="M143.673 88.1631H140.408V91.4284H143.673V88.1631Z" fill="white"/>
<path d="M150.204 88.1626H146.938V91.4279H150.204V88.1626Z" fill="white"/>
<path d="M6.52996 91.4282H3.26465V94.6935H6.52996V91.4282Z" fill="white"/>
<path d="M13.0612 91.4282H9.7959V94.6935H13.0612V91.4282Z" fill="white"/>
<path d="M19.5915 91.4282H16.3262V94.6935H19.5915V91.4282Z" fill="white"/>
<path d="M22.8571 91.4282H19.5918V94.6935H22.8571V91.4282Z" fill="white"/>
<path d="M26.1227 91.4282H22.8574V94.6935H26.1227V91.4282Z" fill="white"/>
<path d="M48.9797 91.4282H45.7144V94.6935H48.9797V91.4282Z" fill="white"/>
<path d="M52.2448 91.4282H48.9795V94.6935H52.2448V91.4282Z" fill="white"/>
<path d="M117.55 91.4282H114.285V94.6935H117.55V91.4282Z" fill="white"/>
<path d="M120.816 91.4282H117.551V94.6935H120.816V91.4282Z" fill="white"/>
<path d="M124.082 91.4282H120.816V94.6935H124.082V91.4282Z" fill="white"/>
<path d="M127.346 91.4282H124.081V94.6935H127.346V91.4282Z" fill="white"/>
<path d="M130.611 91.4282H127.346V94.6935H130.611V91.4282Z" fill="white"/>
<path d="M133.877 91.4282H130.612V94.6935H133.877V91.4282Z" fill="white"/>
<path d="M137.143 91.4282H133.877V94.6935H137.143V91.4282Z" fill="white"/>
<path d="M150.204 91.4282H146.938V94.6935H150.204V91.4282Z" fill="white"/>
<path d="M153.469 91.4282H150.204V94.6935H153.469V91.4282Z" fill="white"/>
<path d="M160 91.4282H156.735V94.6935H160V91.4282Z" fill="white"/>
<path d="M6.52996 94.6934H3.26465V97.9587H6.52996V94.6934Z" fill="white"/>
<path d="M9.79558 94.6934H6.53027V97.9587H9.79558V94.6934Z" fill="white"/>
<path d="M13.0612 94.6934H9.7959V97.9587H13.0612V94.6934Z" fill="white"/>
<path d="M19.5915 94.6934H16.3262V97.9587H19.5915V94.6934Z" fill="white"/>
<path d="M26.1227 94.6934H22.8574V97.9587H26.1227V94.6934Z" fill="white"/>
<path d="M29.3874 94.6934H26.1221V97.9587H29.3874V94.6934Z" fill="white"/>
<path d="M39.1838 94.6938H35.9185V97.9592H39.1838V94.6938Z" fill="white"/>
<path d="M42.4484 94.6934H39.1831V97.9587H42.4484V94.6934Z" fill="white"/>
<path d="M107.755 94.6934H104.489V97.9587H107.755V94.6934Z" fill="white"/>
<path d="M120.816 94.6934H117.551V97.9587H120.816V94.6934Z" fill="white"/>
<path d="M124.082 94.6934H120.816V97.9587H124.082V94.6934Z" fill="white"/>
<path d="M133.877 94.6934H130.612V97.9587H133.877V94.6934Z" fill="white"/>
<path d="M140.408 94.6934H137.143V97.9587H140.408V94.6934Z" fill="white"/>
<path d="M153.469 94.6934H150.204V97.9587H153.469V94.6934Z" fill="white"/>
<path d="M13.0612 97.959H9.7959V101.224H13.0612V97.959Z" fill="white"/>
<path d="M16.3263 97.959H13.061V101.224H16.3263V97.959Z" fill="white"/>
<path d="M19.5915 97.959H16.3262V101.224H19.5915V97.959Z" fill="white"/>
<path d="M22.8571 97.959H19.5918V101.224H22.8571V97.959Z" fill="white"/>
<path d="M26.1227 97.959H22.8574V101.224H26.1227V97.959Z" fill="white"/>
<path d="M29.3874 97.959H26.1221V101.224H29.3874V97.959Z" fill="white"/>
<path d="M32.6525 97.959H29.3872V101.224H32.6525V97.959Z" fill="white"/>
<path d="M35.9181 97.959H32.6528V101.224H35.9181V97.959Z" fill="white"/>
<path d="M39.1838 97.959H35.9185V101.224H39.1838V97.959Z" fill="white"/>
<path d="M42.4484 97.959H39.1831V101.224H42.4484V97.959Z" fill="white"/>
<path d="M45.714 97.959H42.4487V101.224H45.714V97.959Z" fill="white"/>
<path d="M107.755 97.959H104.489V101.224H107.755V97.959Z" fill="white"/>
<path d="M111.02 97.959H107.755V101.224H111.02V97.959Z" fill="white"/>
<path d="M114.285 97.959H111.02V101.224H114.285V97.959Z" fill="white"/>
<path d="M120.816 97.959H117.551V101.224H120.816V97.959Z" fill="white"/>
<path d="M127.346 97.959H124.081V101.224H127.346V97.959Z" fill="white"/>
<path d="M133.877 97.959H130.612V101.224H133.877V97.959Z" fill="white"/>
<path d="M137.143 97.959H133.877V101.224H137.143V97.959Z" fill="white"/>
<path d="M140.408 97.959H137.143V101.224H140.408V97.959Z" fill="white"/>
<path d="M143.673 97.959H140.408V101.224H143.673V97.959Z" fill="white"/>
<path d="M153.469 97.959H150.204V101.224H153.469V97.959Z" fill="white"/>
<path d="M156.735 97.959H153.469V101.224H156.735V97.959Z" fill="white"/>
<path d="M160 97.959H156.735V101.224H160V97.959Z" fill="white"/>
<path d="M3.26482 101.224H-0.000488281V104.489H3.26482V101.224Z" fill="white"/>
<path d="M32.6525 101.224H29.3872V104.489H32.6525V101.224Z" fill="white"/>
<path d="M39.1838 101.224H35.9185V104.489H39.1838V101.224Z" fill="white"/>
<path d="M117.55 101.224H114.285V104.489H117.55V101.224Z" fill="white"/>
<path d="M120.816 101.224H117.551V104.489H120.816V101.224Z" fill="white"/>
<path d="M124.082 101.224H120.816V104.489H124.082V101.224Z" fill="white"/>
<path d="M133.877 101.224H130.612V104.489H133.877V101.224Z" fill="white"/>
<path d="M143.673 101.224H140.408V104.489H143.673V101.224Z" fill="white"/>
<path d="M9.79558 104.49H6.53027V107.755H9.79558V104.49Z" fill="white"/>
<path d="M13.0612 104.49H9.7959V107.755H13.0612V104.49Z" fill="white"/>
<path d="M22.8571 104.49H19.5918V107.755H22.8571V104.49Z" fill="white"/>
<path d="M29.3874 104.489H26.1221V107.755H29.3874V104.489Z" fill="white"/>
<path d="M32.6525 104.49H29.3872V107.755H32.6525V104.49Z" fill="white"/>
<path d="M39.1838 104.489H35.9185V107.755H39.1838V104.489Z" fill="white"/>
<path d="M45.714 104.49H42.4487V107.755H45.714V104.49Z" fill="white"/>
<path d="M48.9797 104.49H45.7144V107.755H48.9797V104.49Z" fill="white"/>
<path d="M52.2448 104.489H48.9795V107.755H52.2448V104.489Z" fill="white"/>
<path d="M111.02 104.49H107.755V107.755H111.02V104.49Z" fill="white"/>
<path d="M120.816 104.489H117.551V107.755H120.816V104.489Z" fill="white"/>
<path d="M124.082 104.49H120.816V107.755H124.082V104.49Z" fill="white"/>
<path d="M127.346 104.489H124.081V107.755H127.346V104.489Z" fill="white"/>
<path d="M130.611 104.489H127.346V107.755H130.611V104.489Z" fill="white"/>
<path d="M140.408 104.489H137.143V107.755H140.408V104.489Z" fill="white"/>
<path d="M143.673 104.49H140.408V107.755H143.673V104.49Z" fill="white"/>
<path d="M146.939 104.49H143.674V107.755H146.939V104.49Z" fill="white"/>
<path d="M150.204 104.489H146.938V107.755H150.204V104.489Z" fill="white"/>
<path d="M153.469 104.489H150.204V107.755H153.469V104.489Z" fill="white"/>
<path d="M156.735 104.49H153.469V107.755H156.735V104.49Z" fill="white"/>
<path d="M160 104.49H156.735V107.755H160V104.49Z" fill="white"/>
<path d="M3.26482 107.755H-0.000488281V111.02H3.26482V107.755Z" fill="white"/>
<path d="M9.79558 107.755H6.53027V111.02H9.79558V107.755Z" fill="white"/>
<path d="M13.0612 107.755H9.7959V111.02H13.0612V107.755Z" fill="white"/>
<path d="M26.1227 107.755H22.8574V111.02H26.1227V107.755Z" fill="white"/>
<path d="M29.3874 107.755H26.1221V111.02H29.3874V107.755Z" fill="white"/>
<path d="M42.4484 107.755H39.1831V111.02H42.4484V107.755Z" fill="white"/>
<path d="M45.714 107.755H42.4487V111.02H45.714V107.755Z" fill="white"/>
<path d="M58.7751 107.755H55.5098V111.02H58.7751V107.755Z" fill="white"/>
<path d="M62.0412 107.755H58.7759V111.02H62.0412V107.755Z" fill="white"/>
<path d="M68.571 107.755H65.3057V111.02H68.571V107.755Z" fill="white"/>
<path d="M75.1017 107.755H71.8364V111.02H75.1017V107.755Z" fill="white"/>
<path d="M81.6325 107.755H78.3672V111.02H81.6325V107.755Z" fill="white"/>
<path d="M84.8976 107.755H81.6323V111.02H84.8976V107.755Z" fill="white"/>
<path d="M91.4284 107.755H88.1631V111.02H91.4284V107.755Z" fill="white"/>
<path d="M104.489 107.755H101.224V111.02H104.489V107.755Z" fill="white"/>
<path d="M117.55 107.755H114.285V111.02H117.55V107.755Z" fill="white"/>
<path d="M120.816 107.755H117.551V111.02H120.816V107.755Z" fill="white"/>
<path d="M130.611 107.755H127.346V111.02H130.611V107.755Z" fill="white"/>
<path d="M140.408 107.755H137.143V111.02H140.408V107.755Z" fill="white"/>
<path d="M143.673 107.755H140.408V111.02H143.673V107.755Z" fill="white"/>
<path d="M150.204 107.755H146.938V111.02H150.204V107.755Z" fill="white"/>
<path d="M156.735 107.755H153.469V111.02H156.735V107.755Z" fill="white"/>
<path d="M3.26482 111.021H-0.000488281V114.286H3.26482V111.021Z" fill="white"/>
<path d="M6.52996 111.02H3.26465V114.285H6.52996V111.02Z" fill="white"/>
<path d="M13.0612 111.021H9.7959V114.286H13.0612V111.021Z" fill="white"/>
<path d="M16.3263 111.021H13.061V114.286H16.3263V111.021Z" fill="white"/>
<path d="M22.8571 111.021H19.5918V114.286H22.8571V111.021Z" fill="white"/>
<path d="M26.1227 111.021H22.8574V114.286H26.1227V111.021Z" fill="white"/>
<path d="M32.6525 111.021H29.3872V114.286H32.6525V111.021Z" fill="white"/>
<path d="M35.9181 111.021H32.6528V114.286H35.9181V111.021Z" fill="white"/>
<path d="M39.1838 111.021H35.9185V114.286H39.1838V111.021Z" fill="white"/>
<path d="M42.4484 111.02H39.1831V114.285H42.4484V111.02Z" fill="white"/>
<path d="M45.714 111.021H42.4487V114.286H45.714V111.021Z" fill="white"/>
<path d="M48.9797 111.021H45.7144V114.286H48.9797V111.021Z" fill="white"/>
<path d="M58.7751 111.021H55.5098V114.286H58.7751V111.021Z" fill="white"/>
<path d="M65.3053 111.021H62.04V114.286H65.3053V111.021Z" fill="white"/>
<path d="M75.1017 111.02H71.8364V114.285H75.1017V111.02Z" fill="white"/>
<path d="M78.3678 111.021H75.1025V114.286H78.3678V111.021Z" fill="white"/>
<path d="M91.4284 111.021H88.1631V114.286H91.4284V111.021Z" fill="white"/>
<path d="M97.9592 111.02H94.6938V114.285H97.9592V111.02Z" fill="white"/>
<path d="M111.02 111.021H107.755V114.286H111.02V111.021Z" fill="white"/>
<path d="M114.285 111.021H111.02V114.286H114.285V111.021Z" fill="white"/>
<path d="M120.816 111.02H117.551V114.285H120.816V111.02Z" fill="white"/>
<path d="M127.346 111.021H124.081V114.286H127.346V111.021Z" fill="white"/>
<path d="M130.611 111.02H127.346V114.285H130.611V111.02Z" fill="white"/>
<path d="M137.143 111.021H133.877V114.286H137.143V111.021Z" fill="white"/>
<path d="M140.408 111.02H137.143V114.285H140.408V111.02Z" fill="white"/>
<path d="M143.673 111.021H140.408V114.286H143.673V111.021Z" fill="white"/>
<path d="M146.939 111.021H143.674V114.286H146.939V111.021Z" fill="white"/>
<path d="M153.469 111.02H150.204V114.285H153.469V111.02Z" fill="white"/>
<path d="M156.735 111.021H153.469V114.286H156.735V111.021Z" fill="white"/>
<path d="M160 111.021H156.735V114.286H160V111.021Z" fill="white"/>
<path d="M3.26482 114.285H-0.000488281V117.55H3.26482V114.285Z" fill="white"/>
<path d="M9.79558 114.286H6.53027V117.551H9.79558V114.286Z" fill="white"/>
<path d="M13.0612 114.286H9.7959V117.551H13.0612V114.286Z" fill="white"/>
<path d="M16.3263 114.285H13.061V117.55H16.3263V114.285Z" fill="white"/>
<path d="M19.5915 114.286H16.3262V117.551H19.5915V114.286Z" fill="white"/>
<path d="M32.6525 114.286H29.3872V117.551H32.6525V114.286Z" fill="white"/>
<path d="M35.9181 114.286H32.6528V117.551H35.9181V114.286Z" fill="white"/>
<path d="M45.714 114.286H42.4487V117.551H45.714V114.286Z" fill="white"/>
<path d="M48.9797 114.286H45.7144V117.551H48.9797V114.286Z" fill="white"/>
<path d="M52.2448 114.285H48.9795V117.55H52.2448V114.285Z" fill="white"/>
<path d="M55.5099 114.286H52.2446V117.551H55.5099V114.286Z" fill="white"/>
<path d="M62.0412 114.285H58.7759V117.55H62.0412V114.285Z" fill="white"/>
<path d="M68.571 114.286H65.3057V117.551H68.571V114.286Z" fill="white"/>
<path d="M71.8371 114.286H68.5718V117.551H71.8371V114.286Z" fill="white"/>
<path d="M75.1017 114.286H71.8364V117.551H75.1017V114.286Z" fill="white"/>
<path d="M78.3678 114.286H75.1025V117.551H78.3678V114.286Z" fill="white"/>
<path d="M84.8976 114.286H81.6323V117.551H84.8976V114.286Z" fill="white"/>
<path d="M101.225 114.285H97.9595V117.55H101.225V114.285Z" fill="white"/>
<path d="M107.755 114.286H104.489V117.551H107.755V114.286Z" fill="white"/>
<path d="M111.02 114.286H107.755V117.551H111.02V114.286Z" fill="white"/>
<path d="M114.285 114.285H111.02V117.55H114.285V114.285Z" fill="white"/>
<path d="M117.55 114.286H114.285V117.551H117.55V114.286Z" fill="white"/>
<path d="M120.816 114.286H117.551V117.551H120.816V114.286Z" fill="white"/>
<path d="M124.082 114.286H120.816V117.551H124.082V114.286Z" fill="white"/>
<path d="M127.346 114.285H124.081V117.55H127.346V114.285Z" fill="white"/>
<path d="M137.143 114.286H133.877V117.551H137.143V114.286Z" fill="white"/>
<path d="M160 114.286H156.735V117.551H160V114.286Z" fill="white"/>
<path d="M3.26482 117.551H-0.000488281V120.816H3.26482V117.551Z" fill="white"/>
<path d="M6.52996 117.551H3.26465V120.816H6.52996V117.551Z" fill="white"/>
<path d="M9.79558 117.551H6.53027V120.816H9.79558V117.551Z" fill="white"/>
<path d="M13.0612 117.551H9.7959V120.816H13.0612V117.551Z" fill="white"/>
<path d="M16.3263 117.551H13.061V120.816H16.3263V117.551Z" fill="white"/>
<path d="M19.5915 117.551H16.3262V120.816H19.5915V117.551Z" fill="white"/>
<path d="M22.8571 117.551H19.5918V120.816H22.8571V117.551Z" fill="white"/>
<path d="M26.1227 117.551H22.8574V120.816H26.1227V117.551Z" fill="white"/>
<path d="M29.3874 117.551H26.1221V120.816H29.3874V117.551Z" fill="white"/>
<path d="M32.6525 117.551H29.3872V120.816H32.6525V117.551Z" fill="white"/>
<path d="M35.9181 117.551H32.6528V120.816H35.9181V117.551Z" fill="white"/>
<path d="M39.1838 117.551H35.9185V120.816H39.1838V117.551Z" fill="white"/>
<path d="M45.714 117.551H42.4487V120.816H45.714V117.551Z" fill="white"/>
<path d="M48.9797 117.551H45.7144V120.816H48.9797V117.551Z" fill="white"/>
<path d="M62.0412 117.551H58.7759V120.816H62.0412V117.551Z" fill="white"/>
<path d="M65.3053 117.551H62.04V120.816H65.3053V117.551Z" fill="white"/>
<path d="M71.8371 117.551H68.5718V120.816H71.8371V117.551Z" fill="white"/>
<path d="M75.1017 117.551H71.8364V120.816H75.1017V117.551Z" fill="white"/>
<path d="M78.3678 117.551H75.1025V120.816H78.3678V117.551Z" fill="white"/>
<path d="M88.1633 117.551H84.8979V120.816H88.1633V117.551Z" fill="white"/>
<path d="M97.9592 117.551H94.6938V120.816H97.9592V117.551Z" fill="white"/>
<path d="M104.489 117.551H101.224V120.816H104.489V117.551Z" fill="white"/>
<path d="M117.55 117.551H114.285V120.816H117.55V117.551Z" fill="white"/>
<path d="M120.816 117.551H117.551V120.816H120.816V117.551Z" fill="white"/>
<path d="M127.346 117.551H124.081V120.816H127.346V117.551Z" fill="white"/>
<path d="M130.611 117.551H127.346V120.816H130.611V117.551Z" fill="white"/>
<path d="M133.877 117.551H130.612V120.816H133.877V117.551Z" fill="white"/>
<path d="M137.143 117.551H133.877V120.816H137.143V117.551Z" fill="white"/>
<path d="M146.939 117.551H143.674V120.816H146.939V117.551Z" fill="white"/>
<path d="M150.204 117.551H146.938V120.816H150.204V117.551Z" fill="white"/>
<path d="M153.469 117.551H150.204V120.816H153.469V117.551Z" fill="white"/>
<path d="M156.735 117.551H153.469V120.816H156.735V117.551Z" fill="white"/>
<path d="M3.26482 120.816H-0.000488281V124.081H3.26482V120.816Z" fill="white"/>
<path d="M13.0612 120.816H9.7959V124.082H13.0612V120.816Z" fill="white"/>
<path d="M16.3263 120.816H13.061V124.082H16.3263V120.816Z" fill="white"/>
<path d="M19.5915 120.816H16.3262V124.082H19.5915V120.816Z" fill="white"/>
<path d="M32.6525 120.816H29.3872V124.082H32.6525V120.816Z" fill="white"/>
<path d="M35.9181 120.816H32.6528V124.082H35.9181V120.816Z" fill="white"/>
<path d="M42.4484 120.816H39.1831V124.082H42.4484V120.816Z" fill="white"/>
<path d="M52.2448 120.816H48.9795V124.081H52.2448V120.816Z" fill="white"/>
<path d="M58.7751 120.816H55.5098V124.082H58.7751V120.816Z" fill="white"/>
<path d="M62.0412 120.816H58.7759V124.082H62.0412V120.816Z" fill="white"/>
<path d="M65.3053 120.816H62.04V124.081H65.3053V120.816Z" fill="white"/>
<path d="M68.571 120.816H65.3057V124.082H68.571V120.816Z" fill="white"/>
<path d="M71.8371 120.816H68.5718V124.082H71.8371V120.816Z" fill="white"/>
<path d="M75.1017 120.816H71.8364V124.082H75.1017V120.816Z" fill="white"/>
<path d="M91.4284 120.816H88.1631V124.082H91.4284V120.816Z" fill="white"/>
<path d="M104.489 120.816H101.224V124.082H104.489V120.816Z" fill="white"/>
<path d="M117.55 120.816H114.285V124.082H117.55V120.816Z" fill="white"/>
<path d="M124.082 120.816H120.816V124.082H124.082V120.816Z" fill="white"/>
<path d="M130.611 120.816H127.346V124.082H130.611V120.816Z" fill="white"/>
<path d="M133.877 120.816H130.612V124.082H133.877V120.816Z" fill="white"/>
<path d="M137.143 120.816H133.877V124.082H137.143V120.816Z" fill="white"/>
<path d="M140.408 120.816H137.143V124.082H140.408V120.816Z" fill="white"/>
<path d="M143.673 120.816H140.408V124.082H143.673V120.816Z" fill="white"/>
<path d="M153.469 120.816H150.204V124.082H153.469V120.816Z" fill="white"/>
<path d="M156.735 120.816H153.469V124.082H156.735V120.816Z" fill="white"/>
<path d="M6.52996 124.082H3.26465V127.347H6.52996V124.082Z" fill="white"/>
<path d="M19.5915 124.082H16.3262V127.347H19.5915V124.082Z" fill="white"/>
<path d="M22.8571 124.082H19.5918V127.347H22.8571V124.082Z" fill="white"/>
<path d="M32.6525 124.082H29.3872V127.347H32.6525V124.082Z" fill="white"/>
<path d="M42.4484 124.082H39.1831V127.347H42.4484V124.082Z" fill="white"/>
<path d="M48.9797 124.082H45.7144V127.347H48.9797V124.082Z" fill="white"/>
<path d="M55.5099 124.082H52.2446V127.347H55.5099V124.082Z" fill="white"/>
<path d="M78.3678 124.082H75.1025V127.347H78.3678V124.082Z" fill="white"/>
<path d="M91.4284 124.082H88.1631V127.347H91.4284V124.082Z" fill="white"/>
<path d="M94.6935 124.082H91.4282V127.347H94.6935V124.082Z" fill="white"/>
<path d="M104.489 124.082H101.224V127.347H104.489V124.082Z" fill="white"/>
<path d="M107.755 124.082H104.489V127.347H107.755V124.082Z" fill="white"/>
<path d="M111.02 124.082H107.755V127.347H111.02V124.082Z" fill="white"/>
<path d="M114.285 124.082H111.02V127.347H114.285V124.082Z" fill="white"/>
<path d="M120.816 124.082H117.551V127.347H120.816V124.082Z" fill="white"/>
<path d="M124.082 124.082H120.816V127.347H124.082V124.082Z" fill="white"/>
<path d="M130.611 124.082H127.346V127.347H130.611V124.082Z" fill="white"/>
<path d="M133.877 124.082H130.612V127.347H133.877V124.082Z" fill="white"/>
<path d="M137.143 124.082H133.877V127.347H137.143V124.082Z" fill="white"/>
<path d="M140.408 124.082H137.143V127.347H140.408V124.082Z" fill="white"/>
<path d="M143.673 124.082H140.408V127.347H143.673V124.082Z" fill="white"/>
<path d="M150.204 124.082H146.938V127.347H150.204V124.082Z" fill="white"/>
<path d="M156.735 124.082H153.469V127.347H156.735V124.082Z" fill="white"/>
<path d="M160 124.082H156.735V127.347H160V124.082Z" fill="white"/>
<path d="M6.52996 127.347H3.26465V130.612H6.52996V127.347Z" fill="white"/>
<path d="M9.79558 127.347H6.53027V130.612H9.79558V127.347Z" fill="white"/>
<path d="M13.0612 127.347H9.7959V130.612H13.0612V127.347Z" fill="white"/>
<path d="M32.6525 127.347H29.3872V130.612H32.6525V127.347Z" fill="white"/>
<path d="M39.1838 127.347H35.9185V130.612H39.1838V127.347Z" fill="white"/>
<path d="M52.2448 127.346H48.9795V130.611H52.2448V127.346Z" fill="white"/>
<path d="M55.5099 127.347H52.2446V130.612H55.5099V127.347Z" fill="white"/>
<path d="M58.7751 127.347H55.5098V130.612H58.7751V127.347Z" fill="white"/>
<path d="M68.571 127.347H65.3057V130.612H68.571V127.347Z" fill="white"/>
<path d="M71.8371 127.347H68.5718V130.612H71.8371V127.347Z" fill="white"/>
<path d="M81.6325 127.347H78.3672V130.612H81.6325V127.347Z" fill="white"/>
<path d="M91.4284 127.347H88.1631V130.612H91.4284V127.347Z" fill="white"/>
<path d="M104.489 127.347H101.224V130.612H104.489V127.347Z" fill="white"/>
<path d="M107.755 127.347H104.489V130.612H107.755V127.347Z" fill="white"/>
<path d="M114.285 127.347H111.02V130.612H114.285V127.347Z" fill="white"/>
<path d="M124.082 127.347H120.816V130.612H124.082V127.347Z" fill="white"/>
<path d="M127.346 127.347H124.081V130.612H127.346V127.347Z" fill="white"/>
<path d="M146.939 127.347H143.674V130.612H146.939V127.347Z" fill="white"/>
<path d="M156.735 127.347H153.469V130.612H156.735V127.347Z" fill="white"/>
<path d="M3.26482 130.612H-0.000488281V133.877H3.26482V130.612Z" fill="white"/>
<path d="M6.52996 130.612H3.26465V133.877H6.52996V130.612Z" fill="white"/>
<path d="M9.79558 130.612H6.53027V133.877H9.79558V130.612Z" fill="white"/>
<path d="M22.8571 130.612H19.5918V133.877H22.8571V130.612Z" fill="white"/>
<path d="M32.6525 130.612H29.3872V133.877H32.6525V130.612Z" fill="white"/>
<path d="M48.9797 130.612H45.7144V133.877H48.9797V130.612Z" fill="white"/>
<path d="M65.3053 130.612H62.04V133.877H65.3053V130.612Z" fill="white"/>
<path d="M75.1017 130.612H71.8364V133.877H75.1017V130.612Z" fill="white"/>
<path d="M78.3678 130.612H75.1025V133.877H78.3678V130.612Z" fill="white"/>
<path d="M81.6325 130.612H78.3672V133.877H81.6325V130.612Z" fill="white"/>
<path d="M84.8976 130.612H81.6323V133.877H84.8976V130.612Z" fill="white"/>
<path d="M88.1633 130.612H84.8979V133.877H88.1633V130.612Z" fill="white"/>
<path d="M91.4284 130.612H88.1631V133.877H91.4284V130.612Z" fill="white"/>
<path d="M94.6935 130.612H91.4282V133.877H94.6935V130.612Z" fill="white"/>
<path d="M104.489 130.612H101.224V133.877H104.489V130.612Z" fill="white"/>
<path d="M111.02 130.612H107.755V133.877H111.02V130.612Z" fill="white"/>
<path d="M114.285 130.612H111.02V133.877H114.285V130.612Z" fill="white"/>
<path d="M117.55 130.612H114.285V133.877H117.55V130.612Z" fill="white"/>
<path d="M120.816 130.612H117.551V133.877H120.816V130.612Z" fill="white"/>
<path d="M127.346 130.612H124.081V133.877H127.346V130.612Z" fill="white"/>
<path d="M130.611 130.612H127.346V133.877H130.611V130.612Z" fill="white"/>
<path d="M133.877 130.612H130.612V133.877H133.877V130.612Z" fill="white"/>
<path d="M137.143 130.612H133.877V133.877H137.143V130.612Z" fill="white"/>
<path d="M140.408 130.612H137.143V133.877H140.408V130.612Z" fill="white"/>
<path d="M143.673 130.612H140.408V133.877H143.673V130.612Z" fill="white"/>
<path d="M146.939 130.612H143.674V133.877H146.939V130.612Z" fill="white"/>
<path d="M150.204 130.612H146.938V133.877H150.204V130.612Z" fill="white"/>
<path d="M153.469 130.612H150.204V133.877H153.469V130.612Z" fill="white"/>
<path d="M156.735 130.612H153.469V133.877H156.735V130.612Z" fill="white"/>
<path d="M29.3874 133.877H26.1221V137.143H29.3874V133.877Z" fill="white"/>
<path d="M35.9181 133.878H32.6528V137.143H35.9181V133.878Z" fill="white"/>
<path d="M48.9797 133.877H45.7144V137.143H48.9797V133.877Z" fill="white"/>
<path d="M58.7751 133.877H55.5098V137.143H58.7751V133.877Z" fill="white"/>
<path d="M65.3053 133.877H62.04V137.142H65.3053V133.877Z" fill="white"/>
<path d="M68.571 133.877H65.3057V137.143H68.571V133.877Z" fill="white"/>
<path d="M75.1017 133.877H71.8364V137.143H75.1017V133.877Z" fill="white"/>
<path d="M88.1633 133.877H84.8979V137.143H88.1633V133.877Z" fill="white"/>
<path d="M91.4284 133.877H88.1631V137.143H91.4284V133.877Z" fill="white"/>
<path d="M97.9592 133.877H94.6938V137.143H97.9592V133.877Z" fill="white"/>
<path d="M104.489 133.878H101.224V137.143H104.489V133.878Z" fill="white"/>
<path d="M114.285 133.877H111.02V137.142H114.285V133.877Z" fill="white"/>
<path d="M124.082 133.877H120.816V137.143H124.082V133.877Z" fill="white"/>
<path d="M127.346 133.877H124.081V137.143H127.346V133.877Z" fill="white"/>
<path d="M133.877 133.877H130.612V137.143H133.877V133.877Z" fill="white"/>
<path d="M146.939 133.877H143.674V137.143H146.939V133.877Z" fill="white"/>
<path d="M32.6525 137.143H29.3872V140.408H32.6525V137.143Z" fill="white"/>
<path d="M35.9181 137.143H32.6528V140.408H35.9181V137.143Z" fill="white"/>
<path d="M48.9797 137.143H45.7144V140.408H48.9797V137.143Z" fill="white"/>
<path d="M68.571 137.143H65.3057V140.408H68.571V137.143Z" fill="white"/>
<path d="M75.1017 137.143H71.8364V140.408H75.1017V137.143Z" fill="white"/>
<path d="M81.6325 137.143H78.3672V140.408H81.6325V137.143Z" fill="white"/>
<path d="M88.1633 137.143H84.8979V140.408H88.1633V137.143Z" fill="white"/>
<path d="M97.9592 137.143H94.6938V140.408H97.9592V137.143Z" fill="white"/>
<path d="M101.225 137.143H97.9595V140.408H101.225V137.143Z" fill="white"/>
<path d="M107.755 137.143H104.489V140.408H107.755V137.143Z" fill="white"/>
<path d="M111.02 137.143H107.755V140.408H111.02V137.143Z" fill="white"/>
<path d="M117.55 137.143H114.285V140.408H117.55V137.143Z" fill="white"/>
<path d="M133.877 137.143H130.612V140.408H133.877V137.143Z" fill="white"/>
<path d="M140.408 137.143H137.143V140.408H140.408V137.143Z" fill="white"/>
<path d="M146.939 137.143H143.674V140.408H146.939V137.143Z" fill="white"/>
<path d="M150.204 137.143H146.938V140.408H150.204V137.143Z" fill="white"/>
<path d="M156.735 137.143H153.469V140.408H156.735V137.143Z" fill="white"/>
<path d="M160 137.143H156.735V140.408H160V137.143Z" fill="white"/>
<path d="M32.6525 140.408H29.3872V143.673H32.6525V140.408Z" fill="white"/>
<path d="M48.9797 140.408H45.7144V143.673H48.9797V140.408Z" fill="white"/>
<path d="M55.5099 140.408H52.2446V143.673H55.5099V140.408Z" fill="white"/>
<path d="M58.7751 140.408H55.5098V143.673H58.7751V140.408Z" fill="white"/>
<path d="M62.0412 140.408H58.7759V143.673H62.0412V140.408Z" fill="white"/>
<path d="M65.3053 140.408H62.04V143.673H65.3053V140.408Z" fill="white"/>
<path d="M75.1017 140.408H71.8364V143.673H75.1017V140.408Z" fill="white"/>
<path d="M88.1633 140.408H84.8979V143.673H88.1633V140.408Z" fill="white"/>
<path d="M91.4284 140.408H88.1631V143.673H91.4284V140.408Z" fill="white"/>
<path d="M94.6935 140.408H91.4282V143.673H94.6935V140.408Z" fill="white"/>
<path d="M101.225 140.408H97.9595V143.673H101.225V140.408Z" fill="white"/>
<path d="M107.755 140.408H104.489V143.673H107.755V140.408Z" fill="white"/>
<path d="M111.02 140.408H107.755V143.673H111.02V140.408Z" fill="white"/>
<path d="M114.285 140.408H111.02V143.673H114.285V140.408Z" fill="white"/>
<path d="M124.082 140.408H120.816V143.673H124.082V140.408Z" fill="white"/>
<path d="M127.346 140.408H124.081V143.673H127.346V140.408Z" fill="white"/>
<path d="M130.611 140.408H127.346V143.673H130.611V140.408Z" fill="white"/>
<path d="M133.877 140.408H130.612V143.673H133.877V140.408Z" fill="white"/>
<path d="M146.939 140.408H143.674V143.673H146.939V140.408Z" fill="white"/>
<path d="M29.3874 143.673H26.1221V146.938H29.3874V143.673Z" fill="white"/>
<path d="M32.6525 143.673H29.3872V146.939H32.6525V143.673Z" fill="white"/>
<path d="M35.9181 143.673H32.6528V146.939H35.9181V143.673Z" fill="white"/>
<path d="M39.1838 143.673H35.9185V146.939H39.1838V143.673Z" fill="white"/>
<path d="M52.2448 143.673H48.9795V146.939H52.2448V143.673Z" fill="white"/>
<path d="M55.5099 143.673H52.2446V146.939H55.5099V143.673Z" fill="white"/>
<path d="M65.3053 143.673H62.04V146.939H65.3053V143.673Z" fill="white"/>
<path d="M75.1017 143.673H71.8364V146.938H75.1017V143.673Z" fill="white"/>
<path d="M78.3678 143.673H75.1025V146.939H78.3678V143.673Z" fill="white"/>
<path d="M81.6325 143.673H78.3672V146.939H81.6325V143.673Z" fill="white"/>
<path d="M84.8976 143.673H81.6323V146.938H84.8976V143.673Z" fill="white"/>
<path d="M88.1633 143.673H84.8979V146.938H88.1633V143.673Z" fill="white"/>
<path d="M91.4284 143.673H88.1631V146.939H91.4284V143.673Z" fill="white"/>
<path d="M104.489 143.673H101.224V146.938H104.489V143.673Z" fill="white"/>
<path d="M117.55 143.673H114.285V146.938H117.55V143.673Z" fill="white"/>
<path d="M120.816 143.673H117.551V146.938H120.816V143.673Z" fill="white"/>
<path d="M124.082 143.673H120.816V146.939H124.082V143.673Z" fill="white"/>
<path d="M127.346 143.673H124.081V146.939H127.346V143.673Z" fill="white"/>
<path d="M130.611 143.673H127.346V146.938H130.611V143.673Z" fill="white"/>
<path d="M133.877 143.673H130.612V146.939H133.877V143.673Z" fill="white"/>
<path d="M137.143 143.673H133.877V146.939H137.143V143.673Z" fill="white"/>
<path d="M140.408 143.673H137.143V146.938H140.408V143.673Z" fill="white"/>
<path d="M143.673 143.673H140.408V146.939H143.673V143.673Z" fill="white"/>
<path d="M146.939 143.673H143.674V146.939H146.939V143.673Z" fill="white"/>
<path d="M153.469 143.673H150.204V146.938H153.469V143.673Z" fill="white"/>
<path d="M156.735 143.673H153.469V146.939H156.735V143.673Z" fill="white"/>
<path d="M29.3874 146.938H26.1221V150.204H29.3874V146.938Z" fill="white"/>
<path d="M32.6525 146.938H29.3872V150.204H32.6525V146.938Z" fill="white"/>
<path d="M39.1838 146.938H35.9185V150.204H39.1838V146.938Z" fill="white"/>
<path d="M42.4484 146.938H39.1831V150.204H42.4484V146.938Z" fill="white"/>
<path d="M48.9797 146.938H45.7144V150.204H48.9797V146.938Z" fill="white"/>
<path d="M52.2448 146.938H48.9795V150.204H52.2448V146.938Z" fill="white"/>
<path d="M55.5099 146.938H52.2446V150.204H55.5099V146.938Z" fill="white"/>
<path d="M58.7751 146.938H55.5098V150.204H58.7751V146.938Z" fill="white"/>
<path d="M78.3678 146.939H75.1025V150.204H78.3678V146.939Z" fill="white"/>
<path d="M84.8976 146.938H81.6323V150.204H84.8976V146.938Z" fill="white"/>
<path d="M88.1633 146.938H84.8979V150.204H88.1633V146.938Z" fill="white"/>
<path d="M94.6935 146.938H91.4282V150.204H94.6935V146.938Z" fill="white"/>
<path d="M97.9592 146.938H94.6938V150.204H97.9592V146.938Z" fill="white"/>
<path d="M104.489 146.939H101.224V150.204H104.489V146.939Z" fill="white"/>
<path d="M111.02 146.938H107.755V150.204H111.02V146.938Z" fill="white"/>
<path d="M120.816 146.938H117.551V150.204H120.816V146.938Z" fill="white"/>
<path d="M124.082 146.938H120.816V150.204H124.082V146.938Z" fill="white"/>
<path d="M146.939 146.938H143.674V150.204H146.939V146.938Z" fill="white"/>
<path d="M153.469 146.938H150.204V150.204H153.469V146.938Z" fill="white"/>
<path d="M160 146.938H156.735V150.204H160V146.938Z" fill="white"/>
<path d="M29.3874 150.204H26.1221V153.469H29.3874V150.204Z" fill="white"/>
<path d="M35.9181 150.204H32.6528V153.469H35.9181V150.204Z" fill="white"/>
<path d="M39.1838 150.204H35.9185V153.469H39.1838V150.204Z" fill="white"/>
<path d="M45.714 150.204H42.4487V153.469H45.714V150.204Z" fill="white"/>
<path d="M48.9797 150.204H45.7144V153.469H48.9797V150.204Z" fill="white"/>
<path d="M58.7751 150.204H55.5098V153.469H58.7751V150.204Z" fill="white"/>
<path d="M68.571 150.204H65.3057V153.469H68.571V150.204Z" fill="white"/>
<path d="M75.1017 150.204H71.8364V153.469H75.1017V150.204Z" fill="white"/>
<path d="M91.4284 150.204H88.1631V153.469H91.4284V150.204Z" fill="white"/>
<path d="M97.9592 150.204H94.6938V153.469H97.9592V150.204Z" fill="white"/>
<path d="M107.755 150.204H104.489V153.469H107.755V150.204Z" fill="white"/>
<path d="M111.02 150.204H107.755V153.469H111.02V150.204Z" fill="white"/>
<path d="M114.285 150.204H111.02V153.469H114.285V150.204Z" fill="white"/>
<path d="M117.55 150.204H114.285V153.469H117.55V150.204Z" fill="white"/>
<path d="M120.816 150.204H117.551V153.469H120.816V150.204Z" fill="white"/>
<path d="M124.082 150.204H120.816V153.469H124.082V150.204Z" fill="white"/>
<path d="M127.346 150.204H124.081V153.469H127.346V150.204Z" fill="white"/>
<path d="M130.611 150.204H127.346V153.469H130.611V150.204Z" fill="white"/>
<path d="M137.143 150.204H133.877V153.469H137.143V150.204Z" fill="white"/>
<path d="M140.408 150.204H137.143V153.469H140.408V150.204Z" fill="white"/>
<path d="M143.673 150.204H140.408V153.469H143.673V150.204Z" fill="white"/>
<path d="M153.469 150.204H150.204V153.469H153.469V150.204Z" fill="white"/>
<path d="M156.735 150.204H153.469V153.469H156.735V150.204Z" fill="white"/>
<path d="M160 150.204H156.735V153.469H160V150.204Z" fill="white"/>
<path d="M32.6525 153.469H29.3872V156.735H32.6525V153.469Z" fill="white"/>
<path d="M58.7751 153.469H55.5098V156.735H58.7751V153.469Z" fill="white"/>
<path d="M65.3053 153.469H62.04V156.735H65.3053V153.469Z" fill="white"/>
<path d="M68.571 153.469H65.3057V156.735H68.571V153.469Z" fill="white"/>
<path d="M71.8371 153.469H68.5718V156.735H71.8371V153.469Z" fill="white"/>
<path d="M84.8976 153.469H81.6323V156.735H84.8976V153.469Z" fill="white"/>
<path d="M88.1633 153.469H84.8979V156.735H88.1633V153.469Z" fill="white"/>
<path d="M91.4284 153.469H88.1631V156.735H91.4284V153.469Z" fill="white"/>
<path d="M97.9592 153.469H94.6938V156.735H97.9592V153.469Z" fill="white"/>
<path d="M101.225 153.469H97.9595V156.735H101.225V153.469Z" fill="white"/>
<path d="M107.755 153.469H104.489V156.735H107.755V153.469Z" fill="white"/>
<path d="M124.082 153.469H120.816V156.735H124.082V153.469Z" fill="white"/>
<path d="M127.346 153.469H124.081V156.734H127.346V153.469Z" fill="white"/>
<path d="M137.143 153.469H133.877V156.735H137.143V153.469Z" fill="white"/>
<path d="M140.408 153.469H137.143V156.735H140.408V153.469Z" fill="white"/>
<path d="M143.673 153.469H140.408V156.735H143.673V153.469Z" fill="white"/>
<path d="M146.939 153.469H143.674V156.735H146.939V153.469Z" fill="white"/>
<path d="M160 153.469H156.735V156.735H160V153.469Z" fill="white"/>
<path d="M35.9181 156.734H32.6528V160H35.9181V156.734Z" fill="white"/>
<path d="M42.4484 156.734H39.1831V160H42.4484V156.734Z" fill="white"/>
<path d="M52.2448 156.735H48.9795V160H52.2448V156.735Z" fill="white"/>
<path d="M65.3053 156.734H62.04V160H65.3053V156.734Z" fill="white"/>
<path d="M71.8371 156.734H68.5718V160H71.8371V156.734Z" fill="white"/>
<path d="M78.3678 156.734H75.1025V160H78.3678V156.734Z" fill="white"/>
<path d="M84.8976 156.734H81.6323V160H84.8976V156.734Z" fill="white"/>
<path d="M91.4284 156.734H88.1631V160H91.4284V156.734Z" fill="white"/>
<path d="M94.6935 156.734H91.4282V160H94.6935V156.734Z" fill="white"/>
<path d="M97.9592 156.734H94.6938V160H97.9592V156.734Z" fill="white"/>
<path d="M101.225 156.734H97.9595V160H101.225V156.734Z" fill="white"/>
<path d="M104.489 156.734H101.224V160H104.489V156.734Z" fill="white"/>
<path d="M111.02 156.734H107.755V160H111.02V156.734Z" fill="white"/>
<path d="M117.55 156.734H114.285V160H117.55V156.734Z" fill="white"/>
<path d="M120.816 156.734H117.551V160H120.816V156.734Z" fill="white"/>
<path d="M124.082 156.734H120.816V160H124.082V156.734Z" fill="white"/>
<path d="M127.346 156.734H124.081V160H127.346V156.734Z" fill="white"/>
<path d="M130.611 156.734H127.346V160H130.611V156.734Z" fill="white"/>
<path d="M137.143 156.734H133.877V160H137.143V156.734Z" fill="white"/>
<path d="M143.673 156.734H140.408V160H143.673V156.734Z" fill="white"/>
<path d="M146.939 156.734H143.674V160H146.939V156.734Z" fill="white"/>
<path d="M150.204 156.734H146.938V160H150.204V156.734Z" fill="white"/>
<path d="M153.469 156.734H150.204V160H153.469V156.734Z" fill="white"/>
<path d="M156.735 156.734H153.469V160H156.735V156.734Z" fill="white"/>
<path d="M160 156.734H156.735V160H160V156.734Z" fill="white"/>
<path d="M19.4291 0.00195312H3.42906H0.000488281V3.43053V19.4305V22.8591H3.42906H19.4291H22.8576V19.4305V3.43053V0.00195312H19.4291ZM19.4291 19.4305H3.42906V3.43053H19.4291V19.4305Z" fill="white"/>
<path d="M156.572 -0.000488281H140.572H137.143V3.42808V19.4281V22.8567H140.572H156.572H160V19.4281V3.42808V-0.000488281H156.572ZM156.572 19.4281H140.572V3.42808H156.572V19.4281Z" fill="white"/>
<path d="M19.4286 137.143H3.42857H0V140.571V156.571V160H3.42857H19.4286H22.8572V156.571V140.571V137.143H19.4286ZM19.4286 156.571H3.42857V140.571H19.4286V156.571Z" fill="white"/>
<path d="M16.3262 6.53027H6.53027V16.3262H16.3262V6.53027Z" fill="white"/>
<path d="M153.47 6.53027H143.674V16.3262H153.47V6.53027Z" fill="white"/>
<path d="M16.3262 143.673H6.53027V153.469H16.3262V143.673Z" fill="white"/>
<path fill-rule="evenodd" clip-rule="evenodd" d="M68.2361 94.0504L64.8015 95.9458C64.6946 96 64.6412 96 64.5343 96C64.4275 96 64.3206 96 64.2672 95.9458C64.1069 95.8374 64 95.6746 64 95.4577V64.5442C64 64.3477 64.0879 64.1518 64.2631 64.0761C64.3265 64.0382 64.3968 64.0147 64.4712 64.0061C64.5307 63.9963 64.589 63.9985 64.6452 64.0113C64.6969 64.0201 64.7492 64.0349 64.8015 64.0561L78.6412 71.2693L84.8924 74.9175C84.9293 74.9267 84.9653 74.9396 85.0001 74.9572L91.4657 78.7535C91.7863 78.9705 92 79.2958 92 79.6755C92 80.0551 91.7863 80.4347 91.4657 80.5974L85.1243 84.3208C85.088 84.3524 85.0466 84.378 85.0001 84.3939C84.8932 84.5022 84.8397 84.5566 84.7329 84.5566C84.7311 84.5566 84.7295 84.5565 84.7278 84.5563C84.7266 84.5562 84.7255 84.5562 84.7242 84.5562L78.6412 88.136L68.2361 94.0504ZM74.1259 72.8963L67.7456 66.8523L67.7034 67.3497L66.0776 65.7916L67.7456 66.8523L78.1068 72.1913L83.8778 75.5538L82.0136 77.4763L80.5624 78.9682L74.1259 72.8963ZM68.5761 93.2617L66.0776 94.3L67.8391 92.1L68.1762 92.6313L77.5725 83.4124L80.5624 80.4915L83.848 83.869L78.1068 87.2141L68.2426 92.7361L68.5761 93.2617ZM79.7559 79.7227L65.0687 65.7916V94.1326L79.7559 79.7227ZM81.3614 79.7302L84.8225 83.2882L90.9314 79.7298L84.8424 76.1519L81.3614 79.7302Z" fill="white"/>
<path fill-rule="evenodd" clip-rule="evenodd" d="M74.1259 72.8963L67.7456 66.8523L78.1068 72.1913L83.8778 75.5538L82.0136 77.4763L80.5624 78.9682L74.1259 72.8963ZM64.8015 95.9458L68.2361 94.0504L78.6412 88.136L84.7242 84.5562L84.7278 84.5563L84.7329 84.5566C84.8397 84.5566 84.8932 84.5022 85.0001 84.3939C85.0466 84.378 85.088 84.3524 85.1243 84.3208L91.4657 80.5974C91.7863 80.4347 92 80.0551 92 79.6755C92 79.2958 91.7863 78.9705 91.4657 78.7535L85.0001 74.9572C84.9653 74.9396 84.9293 74.9267 84.8924 74.9175L78.6412 71.2693L64.8015 64.0561C64.7492 64.0349 64.6969 64.0201 64.6452 64.0113C64.589 63.9985 64.5307 63.9963 64.4712 64.0061C64.3968 64.0147 64.3265 64.0382 64.2631 64.0761C64.0879 64.1518 64 64.3477 64 64.5442V95.4577C64 95.6746 64.1069 95.8374 64.2672 95.9458C64.3206 96 64.4275 96 64.5343 96C64.6412 96 64.6946 96 64.8015 95.9458ZM79.7559 79.7227L65.0687 65.7916V94.1326L79.7559 79.7227ZM80.5624 80.4915L77.5725 83.4124L68.1762 92.6313L68.2426 92.7361L78.1068 87.2141L83.848 83.869L80.5624 80.4915ZM81.3614 79.7302L84.8225 83.2882L90.9314 79.7298L84.8424 76.1519L81.3614 79.7302Z" fill="white"/>
<path d="M67.7456 66.8523L74.1259 72.8963L80.5624 78.9682L82.0136 77.4763L83.8778 75.5538L78.1068 72.1913L67.7456 66.8523ZM67.7456 66.8523L67.7034 67.3497L66.0776 65.7916L67.7456 66.8523ZM84.7329 84.5566C84.8397 84.5566 84.8932 84.5022 85.0001 84.3939C85.0466 84.378 85.088 84.3524 85.1243 84.3208L91.4657 80.5974C91.7863 80.4347 92 80.0551 92 79.6755C92 79.2958 91.7863 78.9705 91.4657 78.7535L85.0001 74.9572C84.9653 74.9396 84.9293 74.9267 84.8924 74.9175L78.6412 71.2693L64.8015 64.0561C64.7492 64.0349 64.6969 64.0201 64.6452 64.0113C64.589 63.9985 64.5307 63.9963 64.4712 64.0061C64.3968 64.0147 64.3265 64.0382 64.2631 64.0761C64.0879 64.1518 64 64.3477 64 64.5442V95.4577C64 95.6746 64.1069 95.8374 64.2672 95.9458C64.3206 96 64.4275 96 64.5343 96C64.6412 96 64.6946 96 64.8015 95.9458L68.2361 94.0504L78.6412 88.136L84.7242 84.5562L84.7329 84.5566ZM84.7329 84.5566C84.7311 84.5566 84.7295 84.5565 84.7278 84.5563L84.7329 84.5566ZM84.7329 84.5566L84.7278 84.5563L84.7329 84.5566ZM84.7242 84.5562C84.7254 84.5562 84.7266 84.5562 84.7278 84.5563L84.7242 84.5562ZM84.7242 84.5562L84.7278 84.5563L84.7242 84.5562ZM68.1762 92.6313L67.8391 92.1L66.0776 94.3L68.5761 93.2617L68.2426 92.7361L68.1762 92.6313ZM68.1762 92.6313L77.5725 83.4124L80.5624 80.4915L83.848 83.869L78.1068 87.2141L68.2426 92.7361L68.1762 92.6313ZM68.1762 92.6313L67.8391 92.9619L68.2426 92.7361L68.1762 92.6313ZM68.1762 92.6313L68.2426 92.7361L68.1762 92.6313ZM65.0687 65.7916L79.7559 79.7227L65.0687 94.1326V65.7916ZM84.8225 83.2882L81.3614 79.7302L84.8424 76.1519L90.9314 79.7298L84.8225 83.2882Z" stroke="white" stroke-width="2"/>
</g>
<defs>
<clipPath id="clip0">
<rect width="160" height="160" fill="white"/>
</clipPath>
</defs>
</svg>
