<svg width="32" height="32" viewBox="0 0 32 32" fill="none" xmlns="http://www.w3.org/2000/svg">
<path d="M26.3714 20.9998C26.346 20.9494 26.3224 20.9075 26.3004 20.874C25.9366 20.2696 25.2415 19.5278 24.2155 18.6484L24.1938 18.6283L24.1829 18.6184L24.1719 18.6083H24.1609C23.6952 18.1987 23.4004 17.9234 23.2769 17.7824C23.0509 17.5139 23.0003 17.2421 23.1238 16.9666C23.211 16.7586 23.5388 16.3191 24.1062 15.6477C24.4047 15.2918 24.6411 15.0067 24.8157 14.7918C26.0747 13.2477 26.6206 12.261 26.4531 11.8313L26.3881 11.7309C26.3444 11.6704 26.2316 11.6151 26.0499 11.5647C25.8677 11.5144 25.6349 11.5061 25.3511 11.5396L22.2074 11.5596C22.1564 11.543 22.0837 11.5445 21.989 11.5647C21.8944 11.5849 21.847 11.595 21.847 11.595L21.7923 11.6202L21.7489 11.6505C21.7125 11.6706 21.6724 11.7058 21.6287 11.7562C21.5853 11.8063 21.5489 11.8652 21.5199 11.9324C21.1776 12.7446 20.7885 13.4999 20.3517 14.198C20.0824 14.6143 19.8352 14.975 19.6093 15.2805C19.3838 15.5859 19.1946 15.8109 19.0419 15.9551C18.8889 16.0994 18.7509 16.2151 18.6269 16.3024C18.5032 16.3898 18.4087 16.4268 18.3433 16.4133C18.2777 16.3998 18.216 16.3864 18.1575 16.373C18.0557 16.3125 17.9738 16.2303 17.9121 16.1262C17.85 16.0222 17.8083 15.8912 17.7865 15.7335C17.7647 15.5756 17.7519 15.4398 17.7482 15.3257C17.7448 15.2116 17.7464 15.0503 17.7538 14.8423C17.7613 14.6341 17.7647 14.4932 17.7647 14.4193C17.7647 14.1642 17.7701 13.8873 17.781 13.5886C17.792 13.2898 17.8009 13.0531 17.8083 12.8788C17.8158 12.7042 17.8192 12.5196 17.8192 12.3249C17.8192 12.1302 17.8063 11.9775 17.781 11.8667C17.7559 11.756 17.7174 11.6486 17.6666 11.5444C17.6156 11.4404 17.5409 11.3599 17.4429 11.3028C17.3446 11.2457 17.2225 11.2004 17.0772 11.1668C16.6915 11.0862 16.2003 11.0427 15.6034 11.0359C14.2499 11.0225 13.3802 11.1031 12.9945 11.2777C12.8417 11.3514 12.7034 11.4522 12.5798 11.5797C12.4488 11.7274 12.4305 11.808 12.5251 11.8213C12.9618 11.8816 13.2709 12.026 13.4529 12.2542L13.5185 12.3752C13.5695 12.4624 13.6204 12.6169 13.6713 12.8384C13.7222 13.0599 13.7551 13.3049 13.7695 13.5733C13.8059 14.0634 13.8059 14.483 13.7695 14.832C13.7331 15.1812 13.6987 15.453 13.6658 15.6477C13.633 15.8424 13.5839 16.0002 13.5185 16.121C13.4529 16.2418 13.4093 16.3156 13.3874 16.3424C13.3656 16.3692 13.3474 16.3861 13.3329 16.3928C13.2383 16.4262 13.1399 16.4432 13.0381 16.4432C12.9362 16.4432 12.8125 16.3962 12.667 16.3022C12.5215 16.2081 12.3705 16.079 12.2141 15.9145C12.0576 15.75 11.8811 15.52 11.6845 15.2247C11.4881 14.9293 11.2843 14.5803 11.0733 14.1775L10.8987 13.8854C10.7895 13.6975 10.6404 13.4239 10.4512 13.0648C10.2619 12.7056 10.0945 12.3581 9.94904 12.0224C9.89089 11.8815 9.80353 11.7741 9.68711 11.7003L9.63247 11.67C9.59615 11.6432 9.53784 11.6147 9.45786 11.5844C9.37776 11.5541 9.29418 11.5324 9.20678 11.519L6.21584 11.539C5.9102 11.539 5.70283 11.6029 5.59363 11.7305L5.54993 11.7908C5.5281 11.8244 5.51709 11.8781 5.51709 11.952C5.51709 12.0259 5.53892 12.1165 5.58262 12.2238C6.01924 13.1705 6.49406 14.0834 7.00708 14.9628C7.52009 15.8422 7.96589 16.5506 8.3442 17.0873C8.7226 17.6244 9.10829 18.1314 9.50129 18.6079C9.89429 19.0845 10.1544 19.39 10.2817 19.5242C10.4091 19.6586 10.5092 19.7592 10.582 19.8263L10.8549 20.0679C11.0296 20.2291 11.2861 20.4221 11.6245 20.6469C11.9629 20.8719 12.3377 21.0934 12.7488 21.3117C13.1601 21.5297 13.6385 21.7076 14.1843 21.8452C14.7301 21.9829 15.2613 22.0382 15.778 22.0115H17.0334C17.288 21.9913 17.4809 21.9174 17.612 21.7899L17.6554 21.7395C17.6846 21.6994 17.7119 21.6372 17.7372 21.5534C17.7627 21.4695 17.7754 21.377 17.7754 21.2765C17.768 20.9879 17.7918 20.7278 17.8462 20.4962C17.9006 20.2647 17.9626 20.0901 18.032 19.9726C18.1013 19.8551 18.1795 19.756 18.2666 19.6757C18.3538 19.5952 18.416 19.5464 18.4525 19.5296C18.4887 19.5127 18.5177 19.5012 18.5395 19.4944C18.7142 19.4407 18.9197 19.4927 19.1564 19.6506C19.393 19.8083 19.6149 20.0031 19.8224 20.2346C20.0298 20.4663 20.279 20.7263 20.57 21.0149C20.8613 21.3036 21.1159 21.5183 21.3341 21.6594L21.5524 21.7803C21.6981 21.8609 21.8873 21.9348 22.1202 22.0019C22.3527 22.069 22.5564 22.0857 22.7314 22.0522L25.5257 22.012C25.8021 22.012 26.0172 21.9698 26.1697 21.886C26.3226 21.8021 26.4134 21.7097 26.4426 21.6091C26.4719 21.5085 26.4734 21.3943 26.4482 21.2666C26.4223 21.1392 26.3968 21.0502 26.3714 20.9998Z" fill="white"/>
<rect x="0.5" y="0.5" width="31" height="31" stroke="white"/>
</svg>
