<svg width="32" height="32" viewBox="0 0 32 32" fill="none" xmlns="http://www.w3.org/2000/svg">
<rect width="32" height="32" fill="white"/>
<path d="M16 23.7241C11.4368 23.7241 7.72412 19.8877 7.72412 15.1724C7.72412 10.4571 11.4368 6.62067 16 6.62067C20.5632 6.62067 24.2758 10.4571 24.2758 15.1724C24.2758 19.8877 20.5632 23.7241 16 23.7241ZM16 8.28246C12.3234 8.28246 9.3323 11.3732 9.3323 15.1724C9.3323 18.9716 12.3234 22.0623 16 22.0623C19.6766 22.0623 22.6677 18.9716 22.6677 15.1724C22.6677 11.3732 19.6766 8.28246 16 8.28246Z" fill="#38568C"/>
<path d="M26.204 8.01822C25.9236 8.01822 25.6396 7.94467 25.3797 7.78949C24.9969 7.56109 24.7233 7.1923 24.6089 6.75129C24.4945 6.30994 24.553 5.84878 24.774 5.45312C24.9949 5.05779 25.3517 4.77498 25.7787 4.65675C26.2053 4.53818 26.6512 4.59898 27.0339 4.82738C27.4167 5.05577 27.6907 5.42457 27.805 5.86591C27.9194 6.30692 27.8606 6.76775 27.6396 7.16341C27.3335 7.71157 26.7763 8.01822 26.204 8.01822Z" fill="#38568C"/>
</svg>
