<svg width="32" height="32" viewBox="0 0 32 32" fill="none" xmlns="http://www.w3.org/2000/svg">
<g clip-path="url(#clip0)">
<rect width="32" height="32" fill="white"/>
<path d="M13.1615 9.43579C13.1615 9.9758 13.1615 12.3861 13.1615 12.3861H11V15.9937H13.1615V26.7143H17.6016V15.994H20.5811C20.5811 15.994 20.8602 14.2642 20.9954 12.3728C20.6076 12.3728 17.6184 12.3728 17.6184 12.3728C17.6184 12.3728 17.6184 10.274 17.6184 9.9061C17.6184 9.53743 18.1025 9.04151 18.581 9.04151C19.0586 9.04151 20.0665 9.04151 21.0001 9.04151C21.0001 8.55033 21.0001 6.85318 21.0001 5.28577C19.7538 5.28577 18.3359 5.28577 17.7109 5.28577C13.0517 5.28552 13.1615 8.89673 13.1615 9.43579Z" fill="#38568C"/>
</g>
<defs>
<clipPath id="clip0">
<rect width="31.9999" height="32" fill="white"/>
</clipPath>
</defs>
</svg>
